Recursive Mono-Linear Heavy Italic.ufo
<glyph name="exclam" format="2">
  <advance width="600.0"/>
  <unicode hex="0021"/>
  <outline>
    <contour>
      <point x="384.2723617382" y="321.0" type="line"/>
      <point x="416.5266111651" y="382.0"/>
      <point x="448.2807212665" y="441.0"/>
      <point x="480.5349706934" y="502.0" type="curve"/>
      <point x="527.297997625" y="689.0" type="line" smooth="yes"/>
      <point x="529.0484852642" y="696.0"/>
      <point x="525.0487639150999" y="700.0"/>
      <point x="519.0487639150999" y="700.0" type="curve" smooth="yes"/>
      <point x="415.0487639151" y="700.0"/>
      <point x="336.0487639151" y="700.0"/>
      <point x="282.0487639151" y="700.0" type="curve"/>
      <point x="272.5461167312" y="662.0"/>
      <point x="263.7936785354" y="627.0"/>
      <point x="254.5411010142" y="590.0" type="curve" smooth="yes"/>
      <point x="232.5349706934" y="502.0" type="line"/>
      <point x="235.7727797146" y="327.0"/>
      <point x="237.0228493774" y="328.0"/>
      <point x="240.0225707264" y="324.0" type="curve" smooth="yes"/>
      <point x="241.522431401" y="322.0"/>
      <point x="243.2723617382" y="321.0"/>
      <point x="247.2723617382" y="321.0" type="curve"/>
    </contour>
    <component base="period"/>
  </outline>
</glyph>
<glyph name="quotedbl" format="2">
  <advance width="600.0"/>
  <unicode hex="0022"/>
  <outline>
    <contour>
      <point x="287.0" y="450.0" type="curve"/>
      <point x="382.0" y="737.0" type="line" smooth="yes"/>
      <point x="386.0" y="746.0"/>
      <point x="382.0" y="750.0"/>
      <point x="376.0" y="750.0" type="curve" smooth="yes"/>
      <point x="316.0" y="750.0"/>
      <point x="251.0" y="750.0"/>
      <point x="179.0" y="750.0" type="curve"/>
      <point x="173.0" y="714.0"/>
      <point x="167.0" y="683.0"/>
      <point x="161.0" y="648.0" type="curve" smooth="yes"/>
      <point x="129.0" y="461.0" type="line" smooth="yes"/>
      <point x="128.0" y="454.0"/>
      <point x="132.0" y="450.0"/>
      <point x="138.0" y="450.0" type="curve" smooth="yes"/>
      <point x="189.0" y="450.0"/>
      <point x="236.0" y="450.0"/>
    </contour>
    <contour>
      <point x="559.0" y="450.0" type="curve"/>
      <point x="654.0" y="737.0" type="line" smooth="yes"/>
      <point x="658.0" y="746.0"/>
      <point x="654.0" y="750.0"/>
      <point x="648.0" y="750.0" type="curve" smooth="yes"/>
      <point x="588.0" y="750.0"/>
      <point x="523.0" y="750.0"/>
      <point x="451.0" y="750.0" type="curve"/>
      <point x="401.0" y="461.0" type="line" smooth="yes"/>
      <point x="400.0" y="454.0"/>
      <point x="404.0" y="450.0"/>
      <point x="410.0" y="450.0" type="curve" smooth="yes"/>
      <point x="461.0" y="450.0"/>
      <point x="508.0" y="450.0"/>
    </contour>
  </outline>
</glyph>
<glyph name="percent" format="2">
  <advance width="600.0"/>
  <unicode hex="0025"/>
  <outline>
    <contour>
      <point x="276.0" y="710.0" type="curve" smooth="yes"/>
      <point x="179.0" y="710.0"/>
      <point x="109.0" y="648.0"/>
      <point x="89.0" y="569.0" type="curve" smooth="yes"/>
      <point x="69.0" y="491.0" type="line" smooth="yes"/>
      <point x="50.0" y="412.0"/>
      <point x="89.0" y="350.0"/>
      <point x="186.0" y="350.0" type="curve" smooth="yes"/>
      <point x="283.0" y="350.0"/>
      <point x="354.0" y="412.0"/>
      <point x="373.0" y="491.0" type="curve" smooth="yes"/>
      <point x="393.0" y="569.0" type="line" smooth="yes"/>
      <point x="413.0" y="648.0"/>
      <point x="373.0" y="710.0"/>
    </contour>
    <contour>
      <point x="240.0" y="544.0" type="curve" smooth="yes"/>
      <point x="239.0" y="540.0" type="line" smooth="yes"/>
      <point x="237.0" y="535.0"/>
      <point x="235.0" y="534.0"/>
      <point x="232.0" y="534.0" type="curve" smooth="yes"/>
      <point x="223.0" y="534.0"/>
      <point x="214.0" y="498.0"/>
      <point x="226.0" y="507.0" type="curve" smooth="yes"/>
      <point x="221.0" y="507.0"/>
      <point x="221.0" y="511.0"/>
      <point x="223.0" y="516.0" type="curve" smooth="yes"/>
      <point x="224.0" y="521.0" type="line" smooth="yes"/>
      <point x="225.0" y="525.0"/>
      <point x="227.0" y="526.0"/>
      <point x="230.0" y="526.0" type="curve" smooth="yes"/>
      <point x="239.0" y="526.0"/>
      <point x="248.0" y="563.0"/>
      <point x="236.0" y="553.0" type="curve" smooth="yes"/>
      <point x="241.0" y="553.0"/>
      <point x="241.0" y="549.0"/>
    </contour>
    <contour>
      <point x="451.0" y="350.0" type="curve" smooth="yes"/>
      <point x="354.0" y="350.0"/>
      <point x="283.0" y="288.0"/>
      <point x="264.0" y="209.0" type="curve" smooth="yes"/>
      <point x="244.0" y="131.0" type="line" smooth="yes"/>
      <point x="224.0" y="52.0"/>
      <point x="264.0" y="-10.0"/>
      <point x="361.0" y="-10.0" type="curve" smooth="yes"/>
      <point x="458.0" y="-10.0"/>
      <point x="528.0" y="52.0"/>
      <point x="548.0" y="131.0" type="curve" smooth="yes"/>
      <point x="568.0" y="209.0" type="line" smooth="yes"/>
      <point x="587.0" y="288.0"/>
      <point x="548.0" y="350.0"/>
    </contour>
    <contour>
      <point x="414.0" y="184.0" type="curve" smooth="yes"/>
      <point x="413.0" y="180.0" type="line" smooth="yes"/>
      <point x="412.0" y="175.0"/>
      <point x="410.0" y="174.0"/>
      <point x="407.0" y="174.0" type="curve" smooth="yes"/>
      <point x="398.0" y="174.0"/>
      <point x="389.0" y="138.0"/>
      <point x="401.0" y="147.0" type="curve" smooth="yes"/>
      <point x="396.0" y="147.0"/>
      <point x="396.0" y="151.0"/>
      <point x="397.0" y="156.0" type="curve" smooth="yes"/>
      <point x="399.0" y="161.0" type="line" smooth="yes"/>
      <point x="400.0" y="165.0"/>
      <point x="402.0" y="166.0"/>
      <point x="405.0" y="166.0" type="curve" smooth="yes"/>
      <point x="414.0" y="166.0"/>
      <point x="423.0" y="203.0"/>
      <point x="411.0" y="193.0" type="curve" smooth="yes"/>
      <point x="416.0" y="193.0"/>
      <point x="416.0" y="189.0"/>
    </contour>
    <component base="fraction"/>
  </outline>
</glyph>
<glyph name="ampersand" format="2">
  <advance width="600.0"/>
  <unicode hex="0026"/>
  <outline>
    <contour>
      <point x="330.0" y="456.0" type="curve" smooth="yes"/>
      <point x="317.0" y="482.0"/>
      <point x="315.0" y="495.0"/>
      <point x="318.0" y="507.0" type="curve" smooth="yes"/>
      <point x="320.0" y="512.0"/>
      <point x="322.0" y="516.0"/>
      <point x="327.0" y="519.0" type="curve"/>
      <point x="337.0" y="525.0"/>
      <point x="352.0" y="529.0"/>
      <point x="390.0" y="529.0" type="curve" smooth="yes"/>
      <point x="437.0" y="529.0"/>
      <point x="492.0" y="524.0"/>
      <point x="541.0" y="514.0" type="curve"/>
      <point x="561.0" y="514.0" type="line"/>
      <point x="575.0" y="568.0"/>
      <point x="588.0" y="622.0"/>
      <point x="602.0" y="676.0" type="curve" smooth="yes"/>
      <point x="603.0" y="681.0"/>
      <point x="603.0" y="687.0"/>
      <point x="592.0" y="690.0" type="curve" smooth="yes"/>
      <point x="556.0" y="700.0"/>
      <point x="500.0" y="709.0"/>
      <point x="399.0" y="709.0" type="curve" smooth="yes"/>
      <point x="251.0" y="709.0"/>
      <point x="157.0" y="646.0"/>
      <point x="136.0" y="565.0" type="curve" smooth="yes"/>
      <point x="130.0" y="542.0" type="line" smooth="yes"/>
      <point x="111.0" y="468.0"/>
      <point x="137.0" y="399.0"/>
      <point x="174.0" y="328.0" type="curve" smooth="yes"/>
      <point x="216.0" y="248.0"/>
      <point x="259.0" y="168.0"/>
      <point x="301.0" y="88.0" type="curve" smooth="yes"/>
      <point x="341.0" y="14.0"/>
      <point x="368.0" y="-10.0"/>
      <point x="440.0" y="-10.0" type="curve" smooth="yes"/>
      <point x="478.0" y="-10.0"/>
      <point x="488.0" y="-10.0"/>
      <point x="499.0" y="-10.0" type="curve" smooth="yes"/>
      <point x="506.0" y="-10.0"/>
      <point x="511.0" y="-6.0"/>
      <point x="513.0" y="1.0" type="curve" smooth="yes"/>
      <point x="528.0" y="64.0"/>
      <point x="544.0" y="127.0"/>
      <point x="560.0" y="190.0" type="curve"/>
      <point x="540.0" y="190.0" type="line"/>
      <point x="528.0" y="190.0"/>
      <point x="515.0" y="190.0"/>
      <point x="503.0" y="190.0" type="curve" smooth="yes"/>
      <point x="471.0" y="190.0"/>
      <point x="457.0" y="196.0"/>
      <point x="449.0" y="214.0" type="curve" smooth="yes"/>
      <point x="407.0" y="297.0"/>
      <point x="368.0" y="372.0"/>
    </contour>
    <contour>
      <point x="116.0" y="-9.0" type="curve"/>
      <point x="202.0" y="-9.0"/>
      <point x="253.0" y="9.0"/>
      <point x="290.0" y="73.0" type="curve"/>
      <point x="339.0" y="73.0" type="line"/>
      <point x="306.0" y="192.0" type="line"/>
      <point x="272.0" y="151.0"/>
      <point x="246.0" y="139.0"/>
      <point x="210.0" y="139.0" type="curve" smooth="yes"/>
      <point x="173.0" y="139.0"/>
      <point x="159.0" y="161.0"/>
      <point x="167.0" y="194.0" type="curve" smooth="yes"/>
      <point x="171.0" y="211.0" type="line" smooth="yes"/>
      <point x="181.0" y="251.0"/>
      <point x="211.0" y="274.0"/>
      <point x="276.0" y="283.0" type="curve"/>
      <point x="171.0" y="395.0" type="line"/>
      <point x="156.0" y="338.0" type="line"/>
      <point x="68.0" y="326.0"/>
      <point x="21.0" y="293.0"/>
      <point x="3.0" y="223.0" type="curve" smooth="yes"/>
      <point x="-13.0" y="160.0" type="line" smooth="yes"/>
      <point x="-37.0" y="66.0"/>
      <point x="17.0" y="-9.0"/>
    </contour>
    <contour>
      <point x="459.0" y="430.0" type="curve"/>
      <point x="451.0" y="399.0"/>
      <point x="444.0" y="368.0"/>
      <point x="436.0" y="337.0" type="curve" smooth="yes"/>
      <point x="432.0" y="322.0"/>
      <point x="426.0" y="310.0"/>
      <point x="400.0" y="286.0" type="curve"/>
      <point x="439.0" y="165.0" type="line"/>
      <point x="455.0" y="232.0" type="line"/>
      <point x="534.0" y="244.0"/>
      <point x="575.0" y="289.0"/>
      <point x="588.0" y="343.0" type="curve" smooth="yes"/>
      <point x="607.0" y="419.0" type="line" smooth="yes"/>
      <point x="609.0" y="426.0"/>
      <point x="606.0" y="430.0"/>
      <point x="599.0" y="430.0" type="curve" smooth="yes"/>
      <point x="568.0" y="430.0"/>
      <point x="508.0" y="430.0"/>
    </contour>
  </outline>
</glyph>
<glyph name="quotesingle" format="2">
  <advance width="600.0"/>
  <unicode hex="0027"/>
  <outline>
    <contour>
      <point x="431.0" y="450.0" type="curve"/>
      <point x="526.0" y="737.0" type="line" smooth="yes"/>
      <point x="530.0" y="746.0"/>
      <point x="526.0" y="750.0"/>
      <point x="520.0" y="750.0" type="curve" smooth="yes"/>
      <point x="455.0" y="750.0"/>
      <point x="385.0" y="750.0"/>
      <point x="307.0" y="750.0" type="curve"/>
      <point x="301.0" y="714.0"/>
      <point x="295.0" y="683.0"/>
      <point x="289.0" y="648.0" type="curve" smooth="yes"/>
      <point x="257.0" y="461.0" type="line" smooth="yes"/>
      <point x="256.0" y="454.0"/>
      <point x="260.0" y="450.0"/>
      <point x="266.0" y="450.0" type="curve" smooth="yes"/>
      <point x="322.0" y="450.0"/>
      <point x="375.0" y="450.0"/>
    </contour>
  </outline>
</glyph>
<glyph name="comma" format="2">
  <advance width="600"/>
  <unicode hex="002C"/>
  <outline>
    <contour>
      <point x="212" y="-200" type="curve" smooth="yes"/>
      <point x="216" y="-200"/>
      <point x="220" y="-198"/>
      <point x="223" y="-192" type="curve"/>
      <point x="293" y="-65"/>
      <point x="385" y="97"/>
      <point x="433" y="186" type="curve"/>
      <point x="437" y="194"/>
      <point x="436" y="200"/>
      <point x="428" y="200" type="curve" smooth="yes"/>
      <point x="334" y="200"/>
      <point x="278" y="200"/>
      <point x="169" y="200" type="curve"/>
      <point x="115" y="67"/>
      <point x="59" y="-67"/>
      <point x="5" y="-200" type="curve"/>
      <point x="59" y="-200"/>
      <point x="121" y="-200"/>
    </contour>
  </outline>
</glyph>
<glyph name="hyphen" format="2">
  <advance width="600"/>
  <unicode hex="002D"/>
  <outline>
    <contour>
      <point x="132" y="405" type="line"/>
      <point x="116" y="338"/>
      <point x="99" y="272"/>
      <point x="82" y="206" type="curve" smooth="yes"/>
      <point x="81" y="199"/>
      <point x="84" y="195"/>
      <point x="90" y="195" type="curve"/>
      <point x="480" y="195" type="line"/>
      <point x="496" y="261"/>
      <point x="513" y="327"/>
      <point x="530" y="394" type="curve" smooth="yes"/>
      <point x="531" y="401"/>
      <point x="528" y="405"/>
      <point x="521" y="405" type="curve"/>
    </contour>
  </outline>
</glyph>
<glyph name="period" format="2">
  <advance width="600.0"/>
  <unicode hex="002E"/>
  <outline>
    <contour>
      <point x="354.0" y="-13.0" type="curve"/>
      <point x="414.0" y="226.0" type="line" smooth="yes"/>
      <point x="415.0" y="233.0"/>
      <point x="412.0" y="237.0"/>
      <point x="405.0" y="237.0" type="curve"/>
      <point x="321.0" y="237.0"/>
      <point x="252.0" y="237.0"/>
      <point x="168.0" y="237.0" type="curve"/>
      <point x="108.0" y="-2.0" type="line" smooth="yes"/>
      <point x="107.0" y="-9.0"/>
      <point x="110.0" y="-13.0"/>
      <point x="117.0" y="-13.0" type="curve"/>
      <point x="201.0" y="-13.0"/>
      <point x="270.0" y="-13.0"/>
    </contour>
  </outline>
</glyph>
<glyph name="slash" format="2">
  <advance width="600"/>
  <unicode hex="002F"/>
  <outline>
    <contour>
      <point x="703" y="750" type="curve"/>
      <point x="632" y="750"/>
      <point x="544" y="750"/>
      <point x="474" y="750" type="curve" smooth="yes"/>
      <point x="468" y="750"/>
      <point x="463" y="748"/>
      <point x="460" y="743" type="curve" smooth="yes"/>
      <point x="303" y="489"/>
      <point x="144" y="233"/>
      <point x="-13" y="-21" type="curve" smooth="yes"/>
      <point x="-36" y="-57"/>
      <point x="-59" y="-94"/>
      <point x="-81" y="-130" type="curve"/>
      <point x="-11" y="-130"/>
      <point x="76" y="-130"/>
      <point x="147" y="-130" type="curve" smooth="yes"/>
      <point x="153" y="-130"/>
      <point x="160" y="-127"/>
      <point x="165" y="-119" type="curve"/>
      <point x="345" y="170"/>
      <point x="523" y="461"/>
    </contour>
  </outline>
</glyph>
<glyph name="zero" format="2">
  <advance width="600.0"/>
  <unicode hex="0030"/>
  <outline>
    <contour>
      <point x="399.0" y="720.0" type="curve" smooth="yes"/>
      <point x="238.0" y="720.0"/>
      <point x="131.0" y="640.0"/>
      <point x="91.0" y="480.0" type="curve" smooth="yes"/>
      <point x="33.0" y="248.0" type="line" smooth="yes"/>
      <point x="-10.0" y="75.0"/>
      <point x="57.0" y="-20.0"/>
      <point x="215.0" y="-20.0" type="curve" smooth="yes"/>
      <point x="375.0" y="-20.0"/>
      <point x="503.0" y="49.0"/>
      <point x="546.0" y="220.0" type="curve" smooth="yes"/>
      <point x="598.0" y="429.0" type="line" smooth="yes"/>
      <point x="643.0" y="610.0"/>
      <point x="562.0" y="720.0"/>
    </contour>
    <contour>
      <point x="362.0" y="540.0" type="curve" smooth="yes"/>
      <point x="386.0" y="540.0"/>
      <point x="398.0" y="535.0"/>
      <point x="403.0" y="526.0" type="curve" smooth="yes"/>
      <point x="409.0" y="516.0"/>
      <point x="410.0" y="503.0"/>
      <point x="407.0" y="489.0" type="curve" smooth="yes"/>
      <point x="338.0" y="211.0" type="line" smooth="yes"/>
      <point x="329.0" y="174.0"/>
      <point x="310.0" y="160.0"/>
      <point x="270.0" y="160.0" type="curve" smooth="yes"/>
      <point x="249.0" y="160.0"/>
      <point x="237.0" y="165.0"/>
      <point x="232.0" y="174.0" type="curve" smooth="yes"/>
      <point x="227.0" y="183.0"/>
      <point x="227.0" y="197.0"/>
      <point x="230.0" y="211.0" type="curve" smooth="yes"/>
      <point x="299.0" y="489.0" type="line" smooth="yes"/>
      <point x="308.0" y="526.0"/>
      <point x="326.0" y="540.0"/>
    </contour>
    <contour>
      <point x="505.0" y="571.0" type="line"/>
      <point x="442.0" y="527.0"/>
      <point x="391.0" y="488.0"/>
      <point x="354.0" y="451.0" type="curve" smooth="yes"/>
      <point x="314.0" y="410.0"/>
      <point x="291.0" y="381.0"/>
      <point x="279.0" y="333.0" type="curve"/>
      <point x="309.0" y="356.0" type="line"/>
      <point x="202.0" y="356.0" type="line"/>
      <point x="150.0" y="146.0" type="line"/>
      <point x="200.0" y="177.0"/>
      <point x="254.0" y="214.0"/>
      <point x="283.0" y="244.0" type="curve" smooth="yes"/>
      <point x="313.0" y="275.0"/>
      <point x="342.0" y="307.0"/>
      <point x="360.0" y="377.0" type="curve"/>
      <point x="340.0" y="355.0" type="line"/>
      <point x="451.0" y="355.0" type="line"/>
    </contour>
  </outline>
</glyph>
<glyph name="one" format="2">
  <advance width="600"/>
  <unicode hex="0031"/>
  <outline>
    <contour>
      <point x="326" y="710" type="curve"/>
      <point x="303" y="699"/>
      <point x="271" y="683"/>
      <point x="237" y="666" type="curve" smooth="yes"/>
      <point x="202" y="650"/>
      <point x="165" y="632"/>
      <point x="138" y="619" type="curve"/>
      <point x="75" y="376" type="line" smooth="yes"/>
      <point x="73" y="368"/>
      <point x="75" y="359"/>
      <point x="87" y="359" type="curve" smooth="yes"/>
      <point x="102" y="359"/>
      <point x="117" y="365"/>
      <point x="148" y="392" type="curve" smooth="yes"/>
      <point x="187" y="425"/>
      <point x="223" y="465"/>
      <point x="293" y="557" type="curve"/>
      <point x="252" y="535" type="line"/>
      <point x="326" y="535" type="line"/>
      <point x="304" y="565" type="line"/>
      <point x="274" y="448"/>
      <point x="211" y="193"/>
      <point x="204" y="164" type="curve" smooth="yes"/>
      <point x="197" y="135"/>
      <point x="191" y="112"/>
      <point x="188" y="101" type="curve"/>
      <point x="171" y="72" type="line"/>
      <point x="399" y="72" type="line"/>
      <point x="403" y="89"/>
      <point x="551" y="679"/>
      <point x="556" y="699" type="curve" smooth="yes"/>
      <point x="558" y="706"/>
      <point x="555" y="710"/>
      <point x="548" y="710" type="curve" smooth="yes"/>
      <point x="535" y="710"/>
      <point x="360" y="710"/>
    </contour>
    <contour>
      <point x="27" y="185" type="curve"/>
      <point x="24" y="170"/>
      <point x="-13" y="23"/>
      <point x="-16" y="11" type="curve" smooth="yes"/>
      <point x="-17" y="7"/>
      <point x="-17" y="5"/>
      <point x="-15" y="3" type="curve" smooth="yes"/>
      <point x="-14" y="1"/>
      <point x="-11" y="0"/>
      <point x="-8" y="0" type="curve" smooth="yes"/>
      <point x="5" y="0"/>
      <point x="486" y="0"/>
      <point x="501" y="0" type="curve"/>
      <point x="505" y="17"/>
      <point x="539" y="152"/>
      <point x="545" y="174" type="curve" smooth="yes"/>
      <point x="546" y="181"/>
      <point x="543" y="185"/>
      <point x="536" y="185" type="curve" smooth="yes"/>
      <point x="515" y="185"/>
      <point x="41" y="185"/>
    </contour>
  </outline>
</glyph>
<glyph name="two" format="2">
  <advance width="600"/>
  <unicode hex="0032"/>
  <outline>
    <contour>
      <point x="381" y="720" type="curve" smooth="yes"/>
      <point x="281" y="720"/>
      <point x="215" y="700"/>
      <point x="167" y="678" type="curve" smooth="yes"/>
      <point x="154" y="672"/>
      <point x="152" y="669"/>
      <point x="150" y="659" type="curve" smooth="yes"/>
      <point x="134" y="595"/>
      <point x="113" y="513"/>
      <point x="103" y="472" type="curve"/>
      <point x="123" y="472" type="line"/>
      <point x="174" y="504"/>
      <point x="237" y="523"/>
      <point x="327" y="523" type="curve" smooth="yes"/>
      <point x="375" y="523"/>
      <point x="396" y="517"/>
      <point x="403" y="512" type="curve" smooth="yes"/>
      <point x="410" y="507"/>
      <point x="412" y="499"/>
      <point x="410" y="492" type="curve" smooth="yes"/>
      <point x="409" y="489" type="line" smooth="yes"/>
      <point x="401" y="464"/>
      <point x="374" y="449"/>
      <point x="255" y="406" type="curve" smooth="yes"/>
      <point x="87" y="345"/>
      <point x="33" y="289"/>
      <point x="0" y="156" type="curve" smooth="yes"/>
      <point x="-36" y="11" type="line" smooth="yes"/>
      <point x="-38" y="4"/>
      <point x="-35" y="0"/>
      <point x="-28" y="0" type="curve" smooth="yes"/>
      <point x="-16" y="0"/>
      <point x="479" y="0"/>
      <point x="494" y="0" type="curve"/>
      <point x="498" y="16"/>
      <point x="534" y="160"/>
      <point x="538" y="174" type="curve" smooth="yes"/>
      <point x="540" y="181"/>
      <point x="537" y="185"/>
      <point x="530" y="185" type="curve" smooth="yes"/>
      <point x="367" y="185" type="line" smooth="yes"/>
      <point x="275" y="185"/>
      <point x="210" y="171"/>
      <point x="158" y="142" type="curve"/>
      <point x="227" y="158" type="line"/>
      <point x="147" y="158" type="line"/>
      <point x="161" y="129" type="line"/>
      <point x="184" y="203"/>
      <point x="221" y="239"/>
      <point x="364" y="286" type="curve" smooth="yes"/>
      <point x="521" y="338"/>
      <point x="587" y="396"/>
      <point x="618" y="510" type="curve" smooth="yes"/>
      <point x="621" y="521" type="line" smooth="yes"/>
      <point x="647" y="618"/>
      <point x="591" y="720"/>
    </contour>
  </outline>
</glyph>
<glyph name="three" format="2">
  <advance width="600.0"/>
  <unicode hex="0033"/>
  <outline>
    <contour>
      <point x="376.0" y="720.0" type="curve" smooth="yes"/>
      <point x="268.0" y="720.0"/>
      <point x="203.0" y="703.0"/>
      <point x="153.0" y="679.0" type="curve" smooth="yes"/>
      <point x="143.0" y="674.0"/>
      <point x="140.0" y="670.0"/>
      <point x="137.0" y="657.0" type="curve" smooth="yes"/>
      <point x="124.0" y="603.0"/>
      <point x="107.0" y="534.0"/>
      <point x="96.0" y="491.0" type="curve"/>
      <point x="116.0" y="491.0" type="line"/>
      <point x="174.0" y="512.0"/>
      <point x="242.0" y="523.0"/>
      <point x="319.0" y="523.0" type="curve" smooth="yes"/>
      <point x="393.0" y="523.0"/>
      <point x="405.0" y="502.0"/>
      <point x="402.0" y="481.0" type="curve" smooth="yes"/>
      <point x="401.0" y="475.0" type="line"/>
      <point x="396.0" y="444.0"/>
      <point x="355.0" y="428.0"/>
      <point x="169.0" y="428.0" type="curve"/>
      <point x="164.0" y="408.0"/>
      <point x="137.0" y="299.0"/>
      <point x="132.0" y="281.0" type="curve" smooth="yes"/>
      <point x="130.0" y="273.0"/>
      <point x="132.0" y="270.0"/>
      <point x="140.0" y="270.0" type="curve" smooth="yes"/>
      <point x="333.0" y="270.0"/>
      <point x="353.0" y="249.0"/>
      <point x="347.0" y="220.0" type="curve" smooth="yes"/>
      <point x="346.0" y="215.0" type="line" smooth="yes"/>
      <point x="341.0" y="188.0"/>
      <point x="311.0" y="175.0"/>
      <point x="237.0" y="175.0" type="curve" smooth="yes"/>
      <point x="156.0" y="175.0"/>
      <point x="98.0" y="182.0"/>
      <point x="36.0" y="204.0" type="curve"/>
      <point x="16.0" y="204.0" type="line"/>
      <point x="11.0" y="184.0"/>
      <point x="-21.0" y="56.0"/>
      <point x="-24.0" y="42.0" type="curve" smooth="yes"/>
      <point x="-27.0" y="30.0"/>
      <point x="-26.0" y="26.0"/>
      <point x="-18.0" y="21.0" type="curve" smooth="yes"/>
      <point x="16.0" y="0.0"/>
      <point x="99.0" y="-20.0"/>
      <point x="212.0" y="-20.0" type="curve" smooth="yes"/>
      <point x="409.0" y="-20.0"/>
      <point x="500.0" y="26.0"/>
      <point x="538.0" y="164.0" type="curve" smooth="yes"/>
      <point x="541.0" y="175.0" type="line" smooth="yes"/>
      <point x="564.0" y="260.0"/>
      <point x="515.0" y="329.0"/>
      <point x="389.0" y="332.0" type="curve"/>
      <point x="411.0" y="301.0" type="line"/>
      <point x="431.0" y="381.0" type="line"/>
      <point x="393.0" y="345.0" type="line"/>
      <point x="516.0" y="360.0"/>
      <point x="588.0" y="405.0"/>
      <point x="615.0" y="511.0" type="curve" smooth="yes"/>
      <point x="617.0" y="519.0" type="line" smooth="yes"/>
      <point x="641.0" y="614.0"/>
      <point x="556.0" y="720.0"/>
    </contour>
  </outline>
</glyph>
<glyph name="four" format="2">
  <advance width="600"/>
  <unicode hex="0034"/>
  <outline>
    <contour>
      <point x="333" y="700" type="curve" smooth="yes"/>
      <point x="325" y="700"/>
      <point x="322" y="699"/>
      <point x="316" y="691" type="curve" smooth="yes"/>
      <point x="255" y="611"/>
      <point x="29" y="308"/>
      <point x="28" y="306" type="curve" smooth="yes"/>
      <point x="-16" y="131" type="line"/>
      <point x="-18" y="124"/>
      <point x="-15" y="120"/>
      <point x="-8" y="120" type="curve" smooth="yes"/>
      <point x="523" y="120" type="line"/>
      <point x="527" y="136"/>
      <point x="563" y="280"/>
      <point x="567" y="295" type="curve" smooth="yes"/>
      <point x="569" y="302"/>
      <point x="566" y="306"/>
      <point x="559" y="306" type="curve" smooth="yes"/>
      <point x="398" y="306" type="line" smooth="yes"/>
      <point x="305" y="306"/>
      <point x="253" y="298"/>
      <point x="194" y="271" type="curve"/>
      <point x="216" y="252" type="line"/>
      <point x="236" y="332" type="line"/>
      <point x="205" y="278" type="line"/>
      <point x="341" y="420"/>
      <point x="476" y="563"/>
      <point x="588" y="680" type="curve"/>
      <point x="593" y="700" type="line"/>
      <point x="577" y="700"/>
      <point x="348" y="700"/>
    </contour>
    <contour>
      <point x="394" y="414" type="curve"/>
      <point x="387" y="400"/>
      <point x="302" y="244"/>
      <point x="263" y="170" type="curve" smooth="yes"/>
      <point x="250" y="117"/>
      <point x="229" y="34"/>
      <point x="223" y="11" type="curve" smooth="yes"/>
      <point x="221" y="4"/>
      <point x="224" y="0"/>
      <point x="231" y="0" type="curve" smooth="yes"/>
      <point x="246" y="0"/>
      <point x="428" y="0"/>
      <point x="444" y="0" type="curve"/>
      <point x="450" y="24"/>
      <point x="459" y="58"/>
      <point x="468" y="96" type="curve" smooth="yes"/>
      <point x="545" y="403" type="line"/>
      <point x="547" y="410"/>
      <point x="544" y="414"/>
      <point x="537" y="414" type="curve" smooth="yes"/>
      <point x="515" y="414"/>
      <point x="412" y="414"/>
    </contour>
  </outline>
</glyph>
<glyph name="five" format="2">
  <advance width="600.0"/>
  <unicode hex="0035"/>
  <outline>
    <contour>
      <point x="174.0" y="700.0" type="curve"/>
      <point x="174.0" y="688.0"/>
      <point x="174.0" y="678.0"/>
      <point x="174.0" y="656.0" type="curve" smooth="yes"/>
      <point x="174.0" y="598.0"/>
      <point x="222.0" y="520.0"/>
      <point x="293.0" y="520.0" type="curve" smooth="yes"/>
      <point x="327.0" y="520.0"/>
      <point x="579.0" y="520.0"/>
      <point x="592.0" y="520.0" type="curve"/>
      <point x="595.0" y="531.0"/>
      <point x="630.0" y="672.0"/>
      <point x="634.0" y="689.0" type="curve" smooth="yes"/>
      <point x="636.0" y="696.0"/>
      <point x="633.0" y="700.0"/>
      <point x="626.0" y="700.0" type="curve" smooth="yes"/>
      <point x="611.0" y="700.0"/>
      <point x="196.0" y="700.0"/>
    </contour>
    <contour>
      <point x="174.0" y="700.0" type="line"/>
      <point x="133.0" y="563.0"/>
      <point x="61.0" y="324.0"/>
      <point x="50.0" y="288.0" type="curve" smooth="yes"/>
      <point x="48.0" y="280.0"/>
      <point x="51.0" y="276.0"/>
      <point x="60.0" y="276.0" type="curve" smooth="yes"/>
      <point x="243.0" y="276.0" type="line"/>
      <point x="255.0" y="284.0"/>
      <point x="269.0" y="287.0"/>
      <point x="295.0" y="287.0" type="curve" smooth="yes"/>
      <point x="327.0" y="287.0"/>
      <point x="353.0" y="271.0"/>
      <point x="341.0" y="235.0" type="curve" smooth="yes"/>
      <point x="340.0" y="232.0" type="line" smooth="yes"/>
      <point x="326.0" y="191.0"/>
      <point x="289.0" y="175.0"/>
      <point x="203.0" y="175.0" type="curve" smooth="yes"/>
      <point x="130.0" y="175.0"/>
      <point x="80.0" y="182.0"/>
      <point x="32.0" y="203.0" type="curve"/>
      <point x="12.0" y="203.0" type="line"/>
      <point x="7.0" y="181.0"/>
      <point x="-23.0" y="64.0"/>
      <point x="-27.0" y="49.0" type="curve" smooth="yes"/>
      <point x="-30.0" y="36.0"/>
      <point x="-32.0" y="29.0"/>
      <point x="-19.0" y="20.0" type="curve" smooth="yes"/>
      <point x="14.0" y="-3.0"/>
      <point x="95.0" y="-20.0"/>
      <point x="198.0" y="-20.0" type="curve" smooth="yes"/>
      <point x="408.0" y="-20.0"/>
      <point x="509.0" y="38.0"/>
      <point x="554.0" y="218.0" type="curve" smooth="yes"/>
      <point x="560.0" y="242.0" type="line" smooth="yes"/>
      <point x="585.0" y="341.0"/>
      <point x="532.0" y="430.0"/>
      <point x="412.0" y="430.0" type="curve" smooth="yes"/>
      <point x="348.0" y="430.0"/>
      <point x="300.0" y="411.0"/>
      <point x="260.0" y="375.0" type="curve"/>
      <point x="321.0" y="400.0" type="line"/>
      <point x="241.0" y="400.0" type="line"/>
      <point x="263.0" y="370.0" type="line"/>
      <point x="283.0" y="426.0"/>
      <point x="297.0" y="466.0"/>
      <point x="305.0" y="491.0" type="curve" smooth="yes"/>
      <point x="322.0" y="542.0"/>
      <point x="330.0" y="568.0"/>
      <point x="340.0" y="601.0" type="curve"/>
      <point x="365.0" y="700.0" type="line"/>
    </contour>
  </outline>
</glyph>
<glyph name="six" format="2">
  <advance width="600.0"/>
  <unicode hex="0036"/>
  <outline>
    <contour>
      <point x="430.0" y="720.0" type="curve" smooth="yes"/>
      <point x="240.0" y="720.0"/>
      <point x="127.0" y="619.0"/>
      <point x="76.0" y="417.0" type="curve" smooth="yes"/>
      <point x="41.0" y="275.0" type="line" smooth="yes"/>
      <point x="-6.0" y="85.0"/>
      <point x="86.0" y="-20.0"/>
      <point x="251.0" y="-20.0" type="curve" smooth="yes"/>
      <point x="417.0" y="-20.0"/>
      <point x="508.0" y="37.0"/>
      <point x="540.0" y="196.0" type="curve" smooth="yes"/>
      <point x="546.0" y="226.0" type="line" smooth="yes"/>
      <point x="575.0" y="370.0"/>
      <point x="523.0" y="448.0"/>
      <point x="419.0" y="448.0" type="curve" smooth="yes"/>
      <point x="355.0" y="448.0"/>
      <point x="317.0" y="425.0"/>
      <point x="271.0" y="365.0" type="curve"/>
      <point x="323.0" y="391.0" type="line"/>
      <point x="225.0" y="391.0" type="line"/>
      <point x="193.0" y="265.0" type="line"/>
      <point x="233.0" y="279.0"/>
      <point x="265.0" y="285.0"/>
      <point x="297.0" y="285.0" type="curve" smooth="yes"/>
      <point x="323.0" y="285.0"/>
      <point x="334.0" y="281.0"/>
      <point x="341.0" y="273.0" type="curve" smooth="yes"/>
      <point x="348.0" y="265.0"/>
      <point x="351.0" y="253.0"/>
      <point x="346.0" y="233.0" type="curve" smooth="yes"/>
      <point x="344.0" y="225.0" type="line" smooth="yes"/>
      <point x="334.0" y="185.0"/>
      <point x="314.0" y="172.0"/>
      <point x="276.0" y="172.0" type="curve" smooth="yes"/>
      <point x="257.0" y="172.0"/>
      <point x="244.0" y="175.0"/>
      <point x="236.0" y="183.0" type="curve" smooth="yes"/>
      <point x="228.0" y="192.0"/>
      <point x="227.0" y="208.0"/>
      <point x="233.0" y="234.0" type="curve" smooth="yes"/>
      <point x="279.0" y="417.0" type="line" smooth="yes"/>
      <point x="289.0" y="456.0"/>
      <point x="305.0" y="485.0"/>
      <point x="331.0" y="504.0" type="curve" smooth="yes"/>
      <point x="354.0" y="521.0"/>
      <point x="387.0" y="530.0"/>
      <point x="431.0" y="530.0" type="curve" smooth="yes"/>
      <point x="482.0" y="530.0"/>
      <point x="521.0" y="524.0"/>
      <point x="567.0" y="510.0" type="curve"/>
      <point x="587.0" y="510.0" type="line"/>
      <point x="591.0" y="525.0"/>
      <point x="623.0" y="658.0"/>
      <point x="627.0" y="672.0" type="curve" smooth="yes"/>
      <point x="629.0" y="681.0"/>
      <point x="629.0" y="684.0"/>
      <point x="622.0" y="687.0" type="curve" smooth="yes"/>
      <point x="584.0" y="705.0"/>
      <point x="517.0" y="720.0"/>
    </contour>
  </outline>
</glyph>
<glyph name="seven" format="2">
  <advance width="600"/>
  <unicode hex="0037"/>
  <outline>
    <contour>
      <point x="138" y="700" type="curve"/>
      <point x="136" y="690"/>
      <point x="76" y="451"/>
      <point x="73" y="441" type="curve" smooth="yes"/>
      <point x="71" y="434"/>
      <point x="74" y="430"/>
      <point x="81" y="430" type="curve" smooth="yes"/>
      <point x="91" y="430"/>
      <point x="253" y="430"/>
      <point x="263" y="430" type="curve"/>
      <point x="266" y="440"/>
      <point x="295" y="561"/>
      <point x="312" y="629" type="curve" smooth="yes"/>
      <point x="323" y="674"/>
      <point x="165" y="700"/>
    </contour>
    <contour>
      <point x="302" y="0" type="curve"/>
      <point x="383" y="123"/>
      <point x="459" y="239"/>
      <point x="492" y="290" type="curve" smooth="yes"/>
      <point x="525" y="341"/>
      <point x="627" y="496"/>
      <point x="628" y="500" type="curve" smooth="yes"/>
      <point x="675" y="689" type="line"/>
      <point x="677" y="696"/>
      <point x="674" y="700"/>
      <point x="667" y="700" type="curve" smooth="yes"/>
      <point x="138" y="700" type="line"/>
      <point x="129" y="663"/>
      <point x="114" y="507"/>
      <point x="165" y="507" type="curve" smooth="yes"/>
      <point x="226" y="507" type="line" smooth="yes"/>
      <point x="266" y="507"/>
      <point x="384" y="507"/>
      <point x="480" y="507" type="curve"/>
      <point x="458" y="537" type="line"/>
      <point x="448" y="457" type="line"/>
      <point x="472" y="500" type="line"/>
      <point x="405" y="459"/>
      <point x="363" y="422"/>
      <point x="248" y="270" type="curve" smooth="yes"/>
      <point x="144" y="132"/>
      <point x="59" y="25"/>
      <point x="55" y="11" type="curve" smooth="yes"/>
      <point x="53" y="4"/>
      <point x="56" y="0"/>
      <point x="63" y="0" type="curve" smooth="yes"/>
      <point x="73" y="0"/>
      <point x="292" y="0"/>
    </contour>
  </outline>
</glyph>
<glyph name="eight" format="2">
  <advance width="600.0"/>
  <unicode hex="0038"/>
  <outline>
    <contour>
      <point x="388.0" y="720.0" type="curve" smooth="yes"/>
      <point x="218.0" y="720.0"/>
      <point x="119.0" y="645.0"/>
      <point x="95.0" y="535.0" type="curve" smooth="yes"/>
      <point x="93.0" y="526.0" type="line" smooth="yes"/>
      <point x="67.0" y="408.0"/>
      <point x="100.0" y="335.0"/>
      <point x="204.0" y="297.0" type="curve" smooth="yes"/>
      <point x="324.0" y="253.0" type="line" smooth="yes"/>
      <point x="350.0" y="243.0"/>
      <point x="361.0" y="226.0"/>
      <point x="354.0" y="198.0" type="curve"/>
      <point x="347.0" y="170.0"/>
      <point x="316.0" y="156.0"/>
      <point x="268.0" y="156.0" type="curve" smooth="yes"/>
      <point x="216.0" y="156.0"/>
      <point x="200.0" y="176.0"/>
      <point x="208.0" y="211.0" type="curve"/>
      <point x="217.0" y="246.0"/>
      <point x="252.0" y="283.0"/>
      <point x="336.0" y="301.0" type="curve"/>
      <point x="162.0" y="360.0" type="line"/>
      <point x="140.0" y="276.0" type="line"/>
      <point x="177.0" y="307.0" type="line"/>
      <point x="79.0" y="297.0"/>
      <point x="18.0" y="260.0"/>
      <point x="0.0" y="187.0" type="curve" smooth="yes"/>
      <point x="-1.0" y="183.0" type="line" smooth="yes"/>
      <point x="-28.0" y="75.0"/>
      <point x="41.0" y="-20.0"/>
      <point x="237.0" y="-20.0" type="curve" smooth="yes"/>
      <point x="417.0" y="-20.0"/>
      <point x="516.0" y="38.0"/>
      <point x="546.0" y="149.0" type="curve" smooth="yes"/>
      <point x="549.0" y="160.0" type="line" smooth="yes"/>
      <point x="581.0" y="279.0"/>
      <point x="530.0" y="356.0"/>
      <point x="444.0" y="385.0" type="curve" smooth="yes"/>
      <point x="335.0" y="422.0" type="line" smooth="yes"/>
      <point x="300.0" y="434.0"/>
      <point x="285.0" y="458.0"/>
      <point x="293.0" y="493.0" type="curve" smooth="yes"/>
      <point x="301.0" y="528.0"/>
      <point x="326.0" y="542.0"/>
      <point x="360.0" y="542.0" type="curve" smooth="yes"/>
      <point x="378.0" y="542.0"/>
      <point x="393.0" y="537.0"/>
      <point x="401.0" y="527.0" type="curve" smooth="yes"/>
      <point x="409.0" y="517.0"/>
      <point x="412.0" y="496.0"/>
      <point x="405.0" y="477.0" type="curve" smooth="yes"/>
      <point x="402.0" y="469.0" type="line" smooth="yes"/>
      <point x="391.0" y="440.0"/>
      <point x="365.0" y="422.0"/>
      <point x="330.0" y="413.0" type="curve"/>
      <point x="450.0" y="325.0" type="line"/>
      <point x="474.0" y="421.0" type="line"/>
      <point x="436.0" y="394.0" type="line"/>
      <point x="532.0" y="400.0"/>
      <point x="601.0" y="438.0"/>
      <point x="614.0" y="516.0" type="curve" smooth="yes"/>
      <point x="615.0" y="522.0" type="line" smooth="yes"/>
      <point x="633.0" y="627.0"/>
      <point x="571.0" y="720.0"/>
    </contour>
  </outline>
</glyph>
<glyph name="nine" format="2">
  <advance width="600.0"/>
  <unicode hex="0039"/>
  <outline>
    <contour>
      <point x="387.0" y="720.0" type="curve" smooth="yes"/>
      <point x="216.0" y="720.0"/>
      <point x="124.0" y="645.0"/>
      <point x="83.0" y="486.0" type="curve" smooth="yes"/>
      <point x="76.0" y="459.0" type="line" smooth="yes"/>
      <point x="41.0" y="325.0"/>
      <point x="95.0" y="240.0"/>
      <point x="205.0" y="240.0" type="curve" smooth="yes"/>
      <point x="261.0" y="240.0"/>
      <point x="320.0" y="255.0"/>
      <point x="361.0" y="319.0" type="curve"/>
      <point x="311.0" y="292.0" type="line"/>
      <point x="397.0" y="292.0" type="line"/>
      <point x="429.0" y="419.0" type="line"/>
      <point x="398.0" y="407.0"/>
      <point x="372.0" y="403.0"/>
      <point x="334.0" y="403.0" type="curve" smooth="yes"/>
      <point x="315.0" y="403.0"/>
      <point x="301.0" y="407.0"/>
      <point x="294.0" y="414.0" type="curve" smooth="yes"/>
      <point x="285.0" y="421.0"/>
      <point x="285.0" y="436.0"/>
      <point x="288.0" y="451.0" type="curve" smooth="yes"/>
      <point x="293.0" y="473.0" type="line" smooth="yes"/>
      <point x="301.0" y="506.0"/>
      <point x="322.0" y="526.0"/>
      <point x="357.0" y="526.0" type="curve" smooth="yes"/>
      <point x="380.0" y="526.0"/>
      <point x="393.0" y="522.0"/>
      <point x="401.0" y="513.0" type="curve" smooth="yes"/>
      <point x="409.0" y="504.0"/>
      <point x="410.0" y="489.0"/>
      <point x="401.0" y="454.0" type="curve" smooth="yes"/>
      <point x="353.0" y="263.0" type="line" smooth="yes"/>
      <point x="345.0" y="229.0"/>
      <point x="330.0" y="204.0"/>
      <point x="310.0" y="191.0" type="curve" smooth="yes"/>
      <point x="286.0" y="175.0"/>
      <point x="255.0" y="168.0"/>
      <point x="204.0" y="168.0" type="curve" smooth="yes"/>
      <point x="152.0" y="168.0"/>
      <point x="108.0" y="174.0"/>
      <point x="69.0" y="194.0" type="curve"/>
      <point x="49.0" y="194.0" type="line"/>
      <point x="46.0" y="184.0"/>
      <point x="14.0" y="49.0"/>
      <point x="11.0" y="37.0" type="curve" smooth="yes"/>
      <point x="9.0" y="28.0"/>
      <point x="9.0" y="21.0"/>
      <point x="17.0" y="16.0" type="curve" smooth="yes"/>
      <point x="57.0" y="-8.0"/>
      <point x="116.0" y="-20.0"/>
      <point x="212.0" y="-20.0" type="curve" smooth="yes"/>
      <point x="409.0" y="-20.0"/>
      <point x="509.0" y="30.0"/>
      <point x="569.0" y="271.0" type="curve" smooth="yes"/>
      <point x="604.0" y="411.0" type="line" smooth="yes"/>
      <point x="648.0" y="586.0"/>
      <point x="586.0" y="720.0"/>
    </contour>
  </outline>
</glyph>
<glyph name="less" format="2">
  <advance width="600.0"/>
  <unicode hex="003C"/>
  <outline>
    <contour>
      <point x="121.0" y="446.0" type="curve"/>
      <point x="98.0" y="353.0"/>
      <point x="74.0" y="261.0"/>
      <point x="51.0" y="168.0" type="curve" smooth="yes"/>
      <point x="48.0" y="156.0"/>
      <point x="50.0" y="149.0"/>
      <point x="63.0" y="144.0" type="curve" smooth="yes"/>
      <point x="192.0" y="93.0"/>
      <point x="319.0" y="45.0"/>
      <point x="448.0" y="-5.0" type="curve"/>
      <point x="464.0" y="61.0"/>
      <point x="479.0" y="116.0"/>
      <point x="495.0" y="182.0" type="curve" smooth="yes"/>
      <point x="498.0" y="193.0"/>
      <point x="496.0" y="199.0"/>
      <point x="486.0" y="202.0" type="curve"/>
      <point x="406.0" y="228.0"/>
      <point x="325.0" y="255.0"/>
      <point x="245.0" y="281.0" type="curve"/>
      <point x="250.0" y="238.0" type="line"/>
      <point x="277.0" y="346.0" type="line"/>
      <point x="251.0" y="292.0" type="line"/>
      <point x="350.0" y="322.0"/>
      <point x="448.0" y="352.0"/>
      <point x="547.0" y="382.0" type="curve"/>
      <point x="563.0" y="448.0"/>
      <point x="583.0" y="525.0"/>
      <point x="599.0" y="591.0" type="curve"/>
      <point x="601.0" y="598.0"/>
      <point x="598.0" y="603.0"/>
      <point x="591.0" y="603.0" type="curve" smooth="yes"/>
      <point x="587.0" y="603.0"/>
      <point x="581.0" y="601.0"/>
      <point x="562.0" y="595.0" type="curve" smooth="yes"/>
      <point x="504.0" y="576.0"/>
      <point x="277.0" y="499.0"/>
    </contour>
  </outline>
</glyph>
<glyph name="equal" format="2">
  <advance width="600.0"/>
  <unicode hex="003D"/>
  <outline>
    <contour>
      <point x="115.0" y="531.0" type="line"/>
      <point x="98.0" y="465.0"/>
      <point x="87.0" y="419.0"/>
      <point x="70.0" y="353.0" type="curve" smooth="yes"/>
      <point x="69.0" y="346.0"/>
      <point x="71.0" y="342.0"/>
      <point x="79.0" y="342.0" type="curve" smooth="yes"/>
      <point x="567.0" y="342.0" type="line"/>
      <point x="583.0" y="408.0"/>
      <point x="595.0" y="454.0"/>
      <point x="611.0" y="520.0" type="curve" smooth="yes"/>
      <point x="613.0" y="527.0"/>
      <point x="611.0" y="531.0"/>
      <point x="603.0" y="531.0" type="curve" smooth="yes"/>
    </contour>
    <contour>
      <point x="48.0" y="265.0" type="line"/>
      <point x="31.0" y="198.0"/>
      <point x="20.0" y="153.0"/>
      <point x="3.0" y="86.0" type="curve" smooth="yes"/>
      <point x="2.0" y="80.0"/>
      <point x="4.0" y="76.0"/>
      <point x="12.0" y="76.0" type="curve" smooth="yes"/>
      <point x="500.0" y="76.0" type="line"/>
      <point x="516.0" y="142.0"/>
      <point x="528.0" y="187.0"/>
      <point x="544.0" y="254.0" type="curve" smooth="yes"/>
      <point x="546.0" y="261.0"/>
      <point x="544.0" y="265.0"/>
      <point x="536.0" y="265.0" type="curve" smooth="yes"/>
    </contour>
  </outline>
</glyph>
<glyph name="question" format="2">
  <advance width="600.0"/>
  <unicode hex="003F"/>
  <outline>
    <contour>
      <point x="318.0" y="-13.0" type="curve"/>
      <point x="374.0" y="210.0" type="line" smooth="yes"/>
      <point x="375.0" y="216.0"/>
      <point x="372.0" y="221.0"/>
      <point x="366.0" y="221.0" type="curve" smooth="yes"/>
      <point x="283.0" y="221.0"/>
      <point x="213.0" y="221.0"/>
      <point x="130.0" y="221.0" type="curve"/>
      <point x="74.0" y="-2.0" type="line" smooth="yes"/>
      <point x="72.0" y="-8.0"/>
      <point x="76.0" y="-13.0"/>
      <point x="82.0" y="-13.0" type="curve" smooth="yes"/>
      <point x="165.0" y="-13.0"/>
      <point x="235.0" y="-13.0"/>
    </contour>
    <contour>
      <point x="371.0" y="720.0" type="curve" smooth="yes"/>
      <point x="253.0" y="720.0"/>
      <point x="184.0" y="699.0"/>
      <point x="174.0" y="690.0" type="curve" smooth="yes"/>
      <point x="170.0" y="687.0"/>
      <point x="168.0" y="683.0"/>
      <point x="167.0" y="678.0" type="curve" smooth="yes"/>
      <point x="152.0" y="616.0"/>
      <point x="136.0" y="553.0"/>
      <point x="120.0" y="491.0" type="curve"/>
      <point x="140.0" y="491.0" type="line"/>
      <point x="187.0" y="508.0"/>
      <point x="238.0" y="518.0"/>
      <point x="310.0" y="518.0" type="curve" smooth="yes"/>
      <point x="361.0" y="518.0"/>
      <point x="380.0" y="514.0"/>
      <point x="380.0" y="502.0" type="curve"/>
      <point x="380.0" y="500.0"/>
      <point x="380.0" y="499.0"/>
      <point x="380.0" y="497.0" type="curve" smooth="yes"/>
      <point x="380.0" y="490.0"/>
      <point x="372.0" y="479.0"/>
      <point x="335.0" y="458.0" type="curve" smooth="yes"/>
      <point x="268.0" y="422.0" type="line" smooth="yes"/>
      <point x="202.0" y="384.0"/>
      <point x="182.0" y="354.0"/>
      <point x="169.0" y="303.0" type="curve" smooth="yes"/>
      <point x="162.0" y="273.0" type="line" smooth="yes"/>
      <point x="159.0" y="263.0"/>
      <point x="162.0" y="262.0"/>
      <point x="170.0" y="262.0" type="curve" smooth="yes"/>
      <point x="375.0" y="262.0" type="line"/>
      <point x="376.0" y="266.0" type="line" smooth="yes"/>
      <point x="383.0" y="296.0"/>
      <point x="395.0" y="309.0"/>
      <point x="423.0" y="324.0" type="curve" smooth="yes"/>
      <point x="465.0" y="347.0" type="line" smooth="yes"/>
      <point x="542.0" y="388.0"/>
      <point x="571.0" y="413.0"/>
      <point x="590.0" y="491.0" type="curve" smooth="yes"/>
      <point x="600.0" y="532.0" type="line" smooth="yes"/>
      <point x="624.0" y="632.0"/>
      <point x="555.0" y="720.0"/>
    </contour>
  </outline>
</glyph>
<glyph name="at" format="2">
  <advance width="600.0"/>
  <unicode hex="0040"/>
  <outline>
    <contour>
      <point x="411.0" y="719.0" type="curve" smooth="yes"/>
      <point x="596.0" y="719.0"/>
      <point x="657.0" y="665.0"/>
      <point x="618.0" y="508.0" type="curve" smooth="yes"/>
      <point x="530.0" y="157.0" type="line" smooth="yes"/>
      <point x="514.0" y="92.0"/>
      <point x="465.0" y="54.0"/>
      <point x="382.0" y="54.0" type="curve" smooth="yes"/>
      <point x="348.0" y="54.0" type="line" smooth="yes"/>
      <point x="271.0" y="54.0"/>
      <point x="252.0" y="83.0"/>
      <point x="265.0" y="133.0" type="curve" smooth="yes"/>
      <point x="287.0" y="222.0"/>
      <point x="310.0" y="313.0"/>
      <point x="332.0" y="401.0" type="curve" smooth="yes"/>
      <point x="332.0" y="402.0"/>
      <point x="356.0" y="452.0"/>
      <point x="372.0" y="486.0" type="curve"/>
      <point x="459.0" y="486.0" type="line" smooth="yes"/>
      <point x="466.0" y="486.0"/>
      <point x="469.0" y="482.0"/>
      <point x="468.0" y="475.0" type="curve" smooth="yes"/>
      <point x="447.0" y="392.0"/>
      <point x="409.0" y="241.0"/>
      <point x="388.0" y="156.0" type="curve" smooth="yes"/>
      <point x="384.0" y="139.0"/>
      <point x="389.0" y="129.0"/>
      <point x="405.0" y="129.0" type="curve"/>
      <point x="411.0" y="129.0" type="line"/>
      <point x="427.0" y="129.0"/>
      <point x="438.0" y="139.0"/>
      <point x="442.0" y="156.0" type="curve" smooth="yes"/>
      <point x="519.0" y="465.0" type="line" smooth="yes"/>
      <point x="524.0" y="485.0"/>
      <point x="522.0" y="501.0"/>
      <point x="512.0" y="514.0" type="curve" smooth="yes"/>
      <point x="494.0" y="539.0"/>
      <point x="445.0" y="550.0"/>
      <point x="368.0" y="550.0" type="curve"/>
      <point x="218.0" y="550.0"/>
      <point x="188.0" y="518.0"/>
      <point x="165.0" y="425.0" type="curve" smooth="yes"/>
      <point x="87.0" y="115.0" type="line" smooth="yes"/>
      <point x="79.0" y="80.0"/>
      <point x="76.0" y="54.0"/>
      <point x="90.0" y="35.0" type="curve" smooth="yes"/>
      <point x="108.0" y="11.0"/>
      <point x="149.0" y="0.0"/>
      <point x="231.0" y="0.0" type="curve"/>
      <point x="302.0" y="0.0"/>
      <point x="381.0" y="9.0"/>
      <point x="434.0" y="23.0" type="curve"/>
      <point x="454.0" y="23.0" type="line"/>
      <point x="418.0" y="-122.0" type="line" smooth="yes"/>
      <point x="416.0" y="-129.0"/>
      <point x="415.0" y="-131.0"/>
      <point x="411.0" y="-134.0" type="curve" smooth="yes"/>
      <point x="390.0" y="-151.0"/>
      <point x="312.0" y="-174.0"/>
      <point x="187.0" y="-174.0" type="curve"/>
      <point x="2.0" y="-174.0"/>
      <point x="-59.0" y="-120.0"/>
      <point x="-20.0" y="37.0" type="curve" smooth="yes"/>
      <point x="98.0" y="508.0" type="line" smooth="yes"/>
      <point x="137.0" y="665.0"/>
      <point x="226.0" y="719.0"/>
    </contour>
    <contour>
      <point x="180.0" y="54.0" type="curve" smooth="yes"/>
      <point x="151.0" y="54.0"/>
      <point x="131.0" y="73.0"/>
      <point x="143.0" y="122.0" type="curve" smooth="yes"/>
      <point x="218.0" y="422.0" type="line" smooth="yes"/>
      <point x="231.0" y="472.0"/>
      <point x="261.0" y="491.0"/>
      <point x="290.0" y="491.0" type="curve" smooth="yes"/>
      <point x="316.0" y="491.0"/>
      <point x="328.0" y="471.0"/>
      <point x="334.0" y="433.0" type="curve"/>
      <point x="401.0" y="433.0" type="line"/>
      <point x="384.0" y="363.0" type="line"/>
      <point x="361.0" y="363.0"/>
      <point x="341.0" y="363.0"/>
      <point x="327.0" y="363.0" type="curve" smooth="yes"/>
      <point x="326.0" y="363.0"/>
      <point x="324.0" y="362.0"/>
      <point x="324.0" y="361.0" type="curve" smooth="yes"/>
      <point x="277.0" y="174.0" type="line" smooth="yes"/>
      <point x="277.0" y="173.0"/>
      <point x="278.0" y="172.0"/>
      <point x="279.0" y="172.0" type="curve"/>
      <point x="292.0" y="172.0"/>
      <point x="308.0" y="172.0"/>
      <point x="336.0" y="172.0" type="curve"/>
      <point x="318.0" y="102.0" type="line"/>
      <point x="251.0" y="102.0" type="line"/>
      <point x="229.0" y="69.0"/>
      <point x="206.0" y="54.0"/>
    </contour>
  </outline>
</glyph>
<glyph name="A" format="2">
  <advance width="600.0"/>
  <unicode hex="0041"/>
  <anchor x="409.7995302052" y="711.0" name="top"/>
  <anchor x="407.0487639151" y="700.0" name="ring"/>
  <anchor x="519.0" y="0.0" name="ogonek"/>
  <anchor x="231.7499303373" y="-1.0" name="bottom"/>
  <outline>
    <contour>
      <point x="162.0" y="282.0" type="line"/>
      <point x="131.0" y="108.0" type="line" smooth="yes"/>
      <point x="130.0" y="103.0"/>
      <point x="132.0" y="97.0"/>
      <point x="139.0" y="97.0" type="curve"/>
      <point x="379.0" y="97.0" type="line"/>
      <point x="379.0" y="295.0" type="line"/>
      <point x="344.0" y="282.0" type="line"/>
      <point x="323.0" y="282.0"/>
      <point x="302.0" y="282.0"/>
      <point x="281.0" y="282.0" type="curve"/>
    </contour>
    <contour>
      <point x="140.0" y="0.0" type="curve"/>
      <point x="211.0" y="171.0"/>
      <point x="283.0" y="342.0"/>
      <point x="363.0" y="546.0" type="curve"/>
      <point x="311.0" y="518.0" type="line"/>
      <point x="405.0" y="518.0" type="line"/>
      <point x="374.0" y="548.0" type="line"/>
      <point x="348.0" y="348.0"/>
      <point x="331.0" y="180.0"/>
      <point x="314.0" y="13.0" type="curve"/>
      <point x="314.0" y="4.0"/>
      <point x="319.0" y="0.0"/>
      <point x="326.0" y="0.0" type="curve"/>
      <point x="392.0" y="0.0"/>
      <point x="453.0" y="0.0"/>
      <point x="518.0" y="0.0" type="curve"/>
      <point x="521.0" y="52.0"/>
      <point x="524.0" y="102.0"/>
      <point x="526.0" y="150.0" type="curve" smooth="yes"/>
      <point x="536.0" y="329.0"/>
      <point x="547.0" y="510.0"/>
      <point x="557.0" y="689.0" type="curve"/>
      <point x="557.0" y="698.0"/>
      <point x="553.0" y="700.0"/>
      <point x="546.0" y="700.0" type="curve"/>
      <point x="445.0" y="700.0"/>
      <point x="346.6666666667" y="700.0"/>
      <point x="246.0" y="700.0" type="curve"/>
      <point x="200.0" y="596.0"/>
      <point x="-18.0" y="103.0"/>
      <point x="-57.0" y="15.0" type="curve" smooth="yes"/>
      <point x="-61.0" y="5.0"/>
      <point x="-56.0" y="0.0"/>
      <point x="-48.0" y="0.0" type="curve"/>
      <point x="11.085714285699993" y="0.0"/>
      <point x="76.0" y="0.0"/>
    </contour>
  </outline>
</glyph>
<glyph name="B" format="2">
  <advance width="600"/>
  <unicode hex="0042"/>
  <outline>
    <contour>
      <point x="299" y="0" type="curve" smooth="yes"/>
      <point x="441" y="0"/>
      <point x="539" y="44"/>
      <point x="565" y="152" type="curve" smooth="yes"/>
      <point x="576" y="197" type="line" smooth="yes"/>
      <point x="593" y="266"/>
      <point x="564" y="322"/>
      <point x="478" y="339" type="curve"/>
      <point x="487" y="376" type="line"/>
      <point x="176" y="376" type="line"/>
      <point x="150" y="284" type="line"/>
      <point x="298" y="284" type="line"/>
      <point x="359" y="284"/>
      <point x="367" y="268"/>
      <point x="358" y="233" type="curve" smooth="yes"/>
      <point x="356" y="225" type="line" smooth="yes"/>
      <point x="349" y="197"/>
      <point x="331" y="180"/>
      <point x="276" y="180" type="curve" smooth="yes"/>
      <point x="270" y="180"/>
      <point x="263" y="180"/>
      <point x="257" y="180" type="curve"/>
      <point x="276" y="256"/>
      <point x="306" y="376"/>
      <point x="335" y="489" type="curve" smooth="yes"/>
      <point x="343" y="522"/>
      <point x="353" y="562"/>
      <point x="360" y="592" type="curve"/>
      <point x="371" y="610" type="line"/>
      <point x="139" y="607" type="line"/>
      <point x="90" y="411"/>
      <point x="39" y="208"/>
      <point x="-10" y="12" type="curve"/>
      <point x="-12" y="4"/>
      <point x="-9" y="0"/>
      <point x="-2" y="0" type="curve" smooth="yes"/>
      <point x="18" y="0"/>
      <point x="202" y="0"/>
    </contour>
    <contour>
      <point x="117" y="700" type="curve"/>
      <point x="106" y="653"/>
      <point x="91" y="593"/>
      <point x="75" y="531" type="curve"/>
      <point x="73" y="526"/>
      <point x="76" y="520"/>
      <point x="83" y="520" type="curve"/>
      <point x="173" y="520"/>
      <point x="262" y="520"/>
      <point x="352" y="520" type="curve"/>
      <point x="380.52" y="520"/>
      <point x="402.7153800231" y="521.2846199769"/>
      <point x="414" y="510" type="curve" smooth="yes"/>
      <point x="424.5623556387" y="499.4376443613"/>
      <point x="425" y="486"/>
      <point x="421" y="473" type="curve" smooth="yes"/>
      <point x="419" y="466" type="line" smooth="yes"/>
      <point x="409" y="431"/>
      <point x="393" y="424"/>
      <point x="329" y="424" type="curve" smooth="yes"/>
      <point x="279" y="424"/>
      <point x="224" y="424"/>
      <point x="179" y="424" type="curve"/>
      <point x="159" y="337" type="line"/>
      <point x="184" y="352" type="line"/>
      <point x="251.036809816" y="352"/>
      <point x="340" y="352"/>
      <point x="407" y="352" type="curve" smooth="yes"/>
      <point x="537" y="352"/>
      <point x="612" y="397"/>
      <point x="634" y="484" type="curve" smooth="yes"/>
      <point x="641" y="512" type="line" smooth="yes"/>
      <point x="662" y="597"/>
      <point x="628.34375" y="700"/>
      <point x="425" y="700" type="curve" smooth="yes"/>
      <point x="322.7164179104" y="700"/>
      <point x="219.2835820896" y="700"/>
    </contour>
  </outline>
</glyph>
<glyph name="D" format="2">
  <advance width="600"/>
  <unicode hex="0044"/>
  <anchor x="399.7995302052" y="711" name="top"/>
  <outline>
    <contour>
      <point x="577" y="226" type="curve" smooth="yes"/>
      <point x="632" y="441" type="line" smooth="yes"/>
      <point x="674" y="605"/>
      <point x="595" y="700"/>
      <point x="395" y="700" type="curve"/>
      <point x="304" y="700"/>
      <point x="200" y="700"/>
      <point x="109" y="700" type="curve"/>
      <point x="92" y="634"/>
      <point x="78" y="577"/>
      <point x="62" y="511" type="curve"/>
      <point x="60" y="506"/>
      <point x="63" y="500"/>
      <point x="70" y="500" type="curve" smooth="yes"/>
      <point x="159" y="500"/>
      <point x="257" y="500"/>
      <point x="346" y="500" type="curve" smooth="yes"/>
      <point x="369" y="500"/>
      <point x="384" y="497"/>
      <point x="393" y="488" type="curve" smooth="yes"/>
      <point x="404" y="477"/>
      <point x="404" y="457"/>
      <point x="396" y="424" type="curve" smooth="yes"/>
      <point x="358" y="270" type="line" smooth="yes"/>
      <point x="343" y="209"/>
      <point x="318" y="200"/>
      <point x="274" y="200" type="curve" smooth="yes"/>
      <point x="269" y="200"/>
      <point x="259" y="200"/>
      <point x="254" y="200" type="curve"/>
      <point x="273" y="278"/>
      <point x="292" y="355"/>
      <point x="312" y="433" type="curve" smooth="yes"/>
      <point x="318" y="458"/>
      <point x="326" y="489"/>
      <point x="331" y="508" type="curve"/>
      <point x="348" y="527" type="line"/>
      <point x="112" y="530" type="line"/>
      <point x="66" y="348"/>
      <point x="20" y="167"/>
      <point x="-18" y="11" type="curve"/>
      <point x="-20" y="3"/>
      <point x="-16" y="0"/>
      <point x="-10" y="0" type="curve" smooth="yes"/>
      <point x="6" y="0"/>
      <point x="152" y="0"/>
      <point x="234" y="0" type="curve" smooth="yes"/>
      <point x="431" y="0"/>
      <point x="537" y="70"/>
    </contour>
  </outline>
</glyph>
<glyph name="E" format="2">
  <advance width="600.0"/>
  <unicode hex="0045"/>
  <anchor x="409.7995302052" y="711.0" name="top"/>
  <anchor x="493.0" y="0.0" name="ogonek"/>
  <anchor x="251.7499303373" y="-1.0" name="bottom"/>
  <outline>
    <contour>
      <point x="137.0" y="700.0" type="line"/>
      <point x="120.7138092452" y="634.8552369809"/>
      <point x="108.7482663123" y="585.8995319603"/>
      <point x="92.0" y="521.0" type="curve" smooth="yes"/>
      <point x="90.0" y="516.0"/>
      <point x="93.0" y="510.0"/>
      <point x="100.0" y="510.0" type="curve" smooth="yes"/>
      <point x="619.0" y="510.0" type="line"/>
      <point x="636.0" y="575.0"/>
      <point x="648.0" y="624.0"/>
      <point x="664.0" y="689.0" type="curve" smooth="yes"/>
      <point x="666.0" y="694.0"/>
      <point x="663.0" y="700.0"/>
      <point x="656.0" y="700.0" type="curve" smooth="yes"/>
    </contour>
    <contour>
      <point x="217.0" y="435.0" type="line"/>
      <point x="178.0" y="265.0" type="line"/>
      <point x="504.0" y="265.0" type="line"/>
      <point x="516.0" y="318.0"/>
      <point x="529.0" y="371.0"/>
      <point x="541.0" y="424.0" type="curve" smooth="yes"/>
      <point x="542.0" y="429.0"/>
      <point x="540.0" y="435.0"/>
      <point x="533.0" y="435.0" type="curve" smooth="yes"/>
    </contour>
    <contour>
      <point x="18.0" y="0.0" type="curve" smooth="yes"/>
      <point x="492.0" y="0.0" type="line"/>
      <point x="507.0" y="60.0"/>
      <point x="521.0" y="119.0"/>
      <point x="536.0" y="179.0" type="curve" smooth="yes"/>
      <point x="538.0" y="185.0"/>
      <point x="533.0" y="190.0"/>
      <point x="527.0" y="190.0" type="curve" smooth="yes"/>
      <point x="281.0" y="190.0" type="line"/>
      <point x="306.3333333333" y="290.358974359"/>
      <point x="331.7983751893" y="393.1935007571"/>
      <point x="357.0" y="494.0" type="curve" smooth="yes"/>
      <point x="366.0" y="527.0"/>
      <point x="374.0" y="560.0"/>
      <point x="382.0" y="593.0" type="curve"/>
      <point x="399.0" y="612.0" type="line"/>
      <point x="160.0" y="608.0" type="line"/>
      <point x="110.0" y="409.0"/>
      <point x="60.0" y="210.0"/>
      <point x="10.0" y="11.0" type="curve" smooth="yes"/>
      <point x="9.0" y="5.0"/>
      <point x="12.0" y="0.0"/>
    </contour>
  </outline>
</glyph>
<glyph name="F" format="2">
  <advance width="600.0"/>
  <unicode hex="0046"/>
  <outline>
    <contour>
      <point x="242.0" y="0.0" type="curve"/>
      <point x="249.0" y="28.0"/>
      <point x="258.0" y="62.0"/>
      <point x="267.0" y="98.0" type="curve"/>
      <point x="299.0" y="224.0"/>
      <point x="329.0" y="350.0"/>
      <point x="361.0" y="476.0" type="curve" smooth="yes"/>
      <point x="370.0" y="514.0"/>
      <point x="380.0" y="552.0"/>
      <point x="389.0" y="590.0" type="curve"/>
      <point x="401.0" y="610.0" type="line"/>
      <point x="170.0" y="612.0" type="line"/>
      <point x="121.0" y="412.0"/>
      <point x="69.0" y="211.0"/>
      <point x="20.0" y="11.0" type="curve"/>
      <point x="18.0" y="5.0"/>
      <point x="22.0" y="0.0"/>
      <point x="28.0" y="0.0" type="curve" smooth="yes"/>
      <point x="100.0" y="0.0"/>
      <point x="170.0" y="0.0"/>
    </contour>
    <contour>
      <point x="137.0" y="700.0" type="line"/>
      <point x="120.0" y="631.0"/>
      <point x="105.0" y="570.0"/>
      <point x="88.0" y="501.0" type="curve" smooth="yes"/>
      <point x="86.0" y="496.0"/>
      <point x="89.0" y="490.0"/>
      <point x="96.0" y="490.0" type="curve"/>
      <point x="605.0" y="490.0" type="line"/>
      <point x="622.0" y="559.0"/>
      <point x="637.0" y="620.0"/>
      <point x="654.0" y="689.0" type="curve"/>
      <point x="656.0" y="694.0"/>
      <point x="653.0" y="700.0"/>
      <point x="646.0" y="700.0" type="curve"/>
    </contour>
    <contour>
      <point x="201.0" y="400.0" type="line"/>
      <point x="151.0" y="200.0" type="line"/>
      <point x="495.0" y="200.0" type="line"/>
      <point x="512.0" y="267.0"/>
      <point x="525.0" y="322.0"/>
      <point x="542.0" y="389.0" type="curve" smooth="yes"/>
      <point x="544.0" y="396.0"/>
      <point x="539.0" y="400.0"/>
      <point x="534.0" y="400.0" type="curve"/>
    </contour>
  </outline>
</glyph>
<glyph name="G" format="2">
  <advance width="600"/>
  <unicode hex="0047"/>
  <anchor x="415.0" y="711" name="top"/>
  <anchor x="237.0" y="-1" name="bottom"/>
  <outline>
    <contour>
      <point x="333" y="410" type="line"/>
      <point x="320" y="357"/>
      <point x="306" y="304"/>
      <point x="293" y="251" type="curve" smooth="yes"/>
      <point x="291.0" y="244.0"/>
      <point x="294" y="240"/>
      <point x="302" y="240" type="curve"/>
      <point x="586" y="240" type="line"/>
      <point x="625" y="399" type="line" smooth="yes"/>
      <point x="627" y="407"/>
      <point x="623" y="410"/>
      <point x="617" y="410" type="curve" smooth="yes"/>
    </contour>
    <contour>
      <point x="397" y="720" type="curve" smooth="yes"/>
      <point x="221" y="720"/>
      <point x="100" y="635"/>
      <point x="62" y="479" type="curve" smooth="yes"/>
      <point x="17" y="294" type="line" smooth="yes"/>
      <point x="-34" y="86"/>
      <point x="67" y="-20"/>
      <point x="276" y="-20" type="curve" smooth="yes"/>
      <point x="386" y="-20"/>
      <point x="473" y="13"/>
      <point x="496" y="36" type="curve" smooth="yes"/>
      <point x="498" y="38"/>
      <point x="500" y="41"/>
      <point x="501" y="44" type="curve" smooth="yes"/>
      <point x="519" y="116"/>
      <point x="542" y="205"/>
      <point x="560" y="277" type="curve"/>
      <point x="574" y="304" type="line"/>
      <point x="366" y="304" type="line"/>
      <point x="357" y="267"/>
      <point x="344" y="213"/>
      <point x="340" y="197" type="curve"/>
      <point x="340" y="196"/>
      <point x="322" y="190"/>
      <point x="302" y="190" type="curve" smooth="yes"/>
      <point x="277" y="190"/>
      <point x="259" y="194"/>
      <point x="248" y="205" type="curve" smooth="yes"/>
      <point x="234" y="219"/>
      <point x="232" y="245"/>
      <point x="244" y="286" type="curve" smooth="yes"/>
      <point x="285" y="438" type="line" smooth="yes"/>
      <point x="301" y="496"/>
      <point x="326" y="520"/>
      <point x="373" y="520" type="curve" smooth="yes"/>
      <point x="408" y="520"/>
      <point x="426" y="516"/>
      <point x="447" y="503" type="curve"/>
      <point x="426" y="545" type="line"/>
      <point x="415" y="500"/>
      <point x="411" y="485"/>
      <point x="408" y="469" type="curve" smooth="yes"/>
      <point x="406" y="462"/>
      <point x="409" y="458"/>
      <point x="416" y="458" type="curve" smooth="yes"/>
      <point x="479" y="458"/>
      <point x="542" y="458"/>
      <point x="605" y="458" type="curve"/>
      <point x="620" y="515"/>
      <point x="637" y="585"/>
      <point x="650" y="635" type="curve" smooth="yes"/>
      <point x="652" y="644"/>
      <point x="651" y="648"/>
      <point x="646" y="653" type="curve" smooth="yes"/>
      <point x="615" y="684"/>
      <point x="516" y="720"/>
    </contour>
  </outline>
</glyph>
<glyph name="H" format="2">
  <advance width="600"/>
  <unicode hex="0048"/>
  <anchor x="409.7995302052" y="711" name="top"/>
  <outline>
    <contour>
      <point x="137" y="700" type="curve"/>
      <point x="128" y="664"/>
      <point x="119" y="629"/>
      <point x="110" y="593" type="curve" smooth="yes"/>
      <point x="62" y="399"/>
      <point x="13" y="205"/>
      <point x="-35" y="11" type="curve" smooth="yes"/>
      <point x="-37" y="5"/>
      <point x="-33" y="0"/>
      <point x="-27" y="0" type="curve" smooth="yes"/>
      <point x="45" y="0"/>
      <point x="116" y="0"/>
      <point x="188" y="0" type="curve"/>
      <point x="245" y="229"/>
      <point x="303" y="460"/>
      <point x="360" y="689" type="curve" smooth="yes"/>
      <point x="362.0" y="694.0"/>
      <point x="360.0" y="700"/>
      <point x="352" y="700" type="curve" smooth="yes"/>
      <point x="280" y="700"/>
      <point x="209" y="700"/>
    </contour>
    <contour>
      <point x="172" y="458" type="line"/>
      <point x="141" y="262" type="line" smooth="yes"/>
      <point x="140" y="257"/>
      <point x="141" y="251"/>
      <point x="149" y="251" type="curve"/>
      <point x="463" y="251" type="line"/>
      <point x="486" y="458" type="line"/>
      <point x="454" y="458" type="line"/>
      <point x="428" y="458"/>
      <point x="402" y="458"/>
      <point x="376" y="458" type="curve"/>
    </contour>
    <contour>
      <point x="502" y="0" type="curve"/>
      <point x="510" y="32"/>
      <point x="520" y="70"/>
      <point x="530" y="110" type="curve" smooth="yes"/>
      <point x="578" y="303"/>
      <point x="626" y="496"/>
      <point x="674" y="689" type="curve" smooth="yes"/>
      <point x="676" y="695"/>
      <point x="672" y="700"/>
      <point x="666" y="700" type="curve" smooth="yes"/>
      <point x="594" y="700"/>
      <point x="523" y="700"/>
      <point x="452" y="700" type="curve"/>
      <point x="395" y="471"/>
      <point x="337" y="240"/>
      <point x="280" y="11" type="curve" smooth="yes"/>
      <point x="278.209430585" y="5.6282917549"/>
      <point x="281.2052668078" y="0"/>
      <point x="288" y="0" type="curve" smooth="yes"/>
      <point x="359" y="0"/>
      <point x="430" y="0"/>
    </contour>
  </outline>
</glyph>
<glyph name="J" format="2">
  <advance width="600"/>
  <unicode hex="004A"/>
  <anchor x="404.7995302052" y="711" name="top"/>
  <outline>
    <contour>
      <point x="214" y="195" type="curve" smooth="yes"/>
      <point x="150" y="195"/>
      <point x="99" y="215"/>
      <point x="45" y="239" type="curve"/>
      <point x="25" y="239" type="line"/>
      <point x="9" y="176"/>
      <point x="-8" y="113"/>
      <point x="-24" y="50" type="curve"/>
      <point x="-25" y="46"/>
      <point x="-25" y="42"/>
      <point x="-21" y="38" type="curve"/>
      <point x="0" y="17"/>
      <point x="96" y="-20"/>
      <point x="220" y="-20" type="curve"/>
      <point x="423" y="-20"/>
      <point x="509" y="77"/>
      <point x="545" y="226" type="curve"/>
      <point x="585" y="387"/>
      <point x="622" y="532"/>
      <point x="662" y="689" type="curve" smooth="yes"/>
      <point x="664" y="697"/>
      <point x="660" y="700"/>
      <point x="654" y="700" type="curve" smooth="yes"/>
      <point x="496" y="700"/>
      <point x="337" y="700"/>
      <point x="179" y="700" type="curve"/>
      <point x="162" y="635"/>
      <point x="144" y="569"/>
      <point x="127" y="504" type="curve" smooth="yes"/>
      <point x="125" y="497"/>
      <point x="130" y="493"/>
      <point x="135" y="493" type="curve"/>
      <point x="226" y="493"/>
      <point x="318" y="493"/>
      <point x="409" y="493" type="curve"/>
      <point x="371" y="504" type="line"/>
      <point x="396" y="480" type="line"/>
      <point x="386" y="522" type="line"/>
      <point x="368" y="450"/>
      <point x="350" y="378"/>
      <point x="332" y="306" type="curve"/>
      <point x="321" y="263"/>
      <point x="308" y="237"/>
      <point x="291" y="220" type="curve" smooth="yes"/>
      <point x="273" y="202"/>
      <point x="249" y="195"/>
    </contour>
  </outline>
</glyph>
<glyph name="K" format="2">
  <advance width="600.0"/>
  <unicode hex="004B"/>
  <anchor x="251.7499303373" y="-1.0" name="bottom"/>
  <outline>
    <contour>
      <point x="363.0" y="482.0" type="curve"/>
      <point x="231.0" y="204.0" type="line"/>
      <point x="273.0" y="204.0" type="line"/>
      <point x="268.0" y="149.0"/>
      <point x="274.0" y="105.0"/>
      <point x="292.0" y="65.0" type="curve" smooth="yes"/>
      <point x="315.0" y="16.0"/>
      <point x="354.0" y="-10.0"/>
      <point x="403.0" y="-10.0" type="curve" smooth="yes"/>
      <point x="432.0" y="-10.0"/>
      <point x="480.0" y="-10.0"/>
      <point x="488.0" y="-10.0" type="curve" smooth="yes"/>
      <point x="495.0" y="-10.0"/>
      <point x="500.0" y="-6.0"/>
      <point x="502.0" y="1.0" type="curve" smooth="yes"/>
      <point x="504.0" y="9.0"/>
      <point x="537.0" y="135.0"/>
      <point x="553.0" y="201.0" type="curve"/>
      <point x="548.0" y="201.0" type="line"/>
      <point x="529.6666666667" y="201.0"/>
      <point x="522.3333333333" y="201.0"/>
      <point x="504.0" y="201.0" type="curve"/>
      <point x="471.0" y="201.0"/>
      <point x="464.0" y="205.0"/>
      <point x="455.0" y="230.0" type="curve" smooth="yes"/>
      <point x="424.0" y="314.0"/>
      <point x="394.0" y="398.0"/>
    </contour>
    <contour>
      <point x="692.0" y="699.0" type="curve"/>
      <point x="442.0" y="699.0" type="line"/>
      <point x="409.0" y="651.0"/>
      <point x="383.0" y="613.0"/>
      <point x="363.0" y="580.0" type="curve" smooth="yes"/>
      <point x="323.0" y="514.0"/>
      <point x="305.0" y="469.0"/>
      <point x="291.0" y="415.0" type="curve"/>
      <point x="236.0" y="415.0" type="line"/>
      <point x="161.0" y="106.0" type="line"/>
      <point x="323.0" y="280.0"/>
      <point x="485.0" y="455.0"/>
      <point x="647.0" y="629.0" type="curve" smooth="yes"/>
      <point x="696.0" y="683.0"/>
      <point x="698.0" y="686.0"/>
      <point x="699.0" y="691.0" type="curve" smooth="yes"/>
      <point x="700.0" y="695.0"/>
      <point x="697.0" y="699.0"/>
    </contour>
    <contour>
      <point x="122.0" y="700.0" type="curve"/>
      <point x="113.0" y="664.0"/>
      <point x="104.0" y="629.0"/>
      <point x="95.0" y="593.0" type="curve" smooth="yes"/>
      <point x="47.0" y="399.0"/>
      <point x="-2.0" y="205.0"/>
      <point x="-50.0" y="11.0" type="curve" smooth="yes"/>
      <point x="-52.0" y="5.0"/>
      <point x="-48.0" y="0.0"/>
      <point x="-42.0" y="0.0" type="curve"/>
      <point x="28.0" y="0.0"/>
      <point x="97.0" y="0.0"/>
      <point x="168.0" y="0.0" type="curve"/>
      <point x="225.0" y="229.0"/>
      <point x="283.0" y="460.0"/>
      <point x="340.0" y="689.0" type="curve" smooth="yes"/>
      <point x="342.0" y="694.0"/>
      <point x="340.0" y="700.0"/>
      <point x="332.0" y="700.0" type="curve"/>
      <point x="261.0" y="700.0"/>
      <point x="192.0" y="700.0"/>
    </contour>
  </outline>
</glyph>
<glyph name="L" format="2">
  <advance width="600"/>
  <unicode hex="004C"/>
  <anchor x="260" y="711" name="top"/>
  <anchor x="237" y="-1" name="bottom"/>
  <anchor x="452" y="400" name="dot"/>
  <anchor x="515" y="550" name="caronslovak"/>
  <outline>
    <contour>
      <point x="-21" y="0" type="curve" smooth="yes"/>
      <point x="501" y="0" type="line"/>
      <point x="534.560338004" y="132.2672144863"/>
      <point x="489" y="207"/>
      <point x="373" y="207" type="curve" smooth="yes"/>
      <point x="254" y="207" type="line"/>
      <point x="294" y="368"/>
      <point x="333" y="528"/>
      <point x="374" y="689" type="curve" smooth="yes"/>
      <point x="375" y="694"/>
      <point x="373" y="700"/>
      <point x="366" y="700" type="curve" smooth="yes"/>
      <point x="291" y="700"/>
      <point x="217" y="700"/>
      <point x="142" y="700" type="curve"/>
      <point x="134" y="667"/>
      <point x="125" y="633"/>
      <point x="117" y="600" type="curve" smooth="yes"/>
      <point x="68" y="404"/>
      <point x="19" y="207"/>
      <point x="-30" y="11" type="curve" smooth="yes"/>
      <point x="-32" y="5"/>
      <point x="-28" y="0"/>
    </contour>
    <contour>
      <point x="385" y="290" type="curve"/>
      <point x="379" y="267"/>
      <point x="369" y="229"/>
      <point x="363" y="206" type="curve" smooth="yes"/>
      <point x="329" y="74"/>
      <point x="378" y="0"/>
      <point x="501" y="0" type="curve"/>
      <point x="523" y="88"/>
      <point x="550" y="191"/>
      <point x="573" y="279" type="curve" smooth="yes"/>
      <point x="575" y="285"/>
      <point x="571" y="290"/>
      <point x="565" y="290" type="curve" smooth="yes"/>
      <point x="505" y="290"/>
      <point x="445" y="290"/>
    </contour>
  </outline>
</glyph>
<glyph name="M" format="2">
  <advance width="600"/>
  <unicode hex="004D"/>
  <outline>
    <contour>
      <point x="154" y="0" type="curve"/>
      <point x="159" y="19"/>
      <point x="164" y="35"/>
      <point x="171" y="59" type="curve"/>
      <point x="192" y="132"/>
      <point x="188" y="108"/>
      <point x="193" y="518" type="curve"/>
      <point x="188" y="491" type="line"/>
      <point x="221" y="491" type="line"/>
      <point x="212" y="516" type="line"/>
      <point x="227" y="367"/>
      <point x="239" y="250"/>
      <point x="250" y="132" type="curve" smooth="yes"/>
      <point x="251" y="125"/>
      <point x="255" y="124"/>
      <point x="260" y="124" type="curve" smooth="yes"/>
      <point x="264" y="124"/>
      <point x="267" y="124"/>
      <point x="271" y="124" type="curve"/>
      <point x="342" y="241"/>
      <point x="413" y="357"/>
      <point x="500" y="504" type="curve"/>
      <point x="482" y="491" type="line"/>
      <point x="524" y="491" type="line"/>
      <point x="521" y="506" type="line"/>
      <point x="331" y="106"/>
      <point x="341" y="134"/>
      <point x="320" y="61" type="curve"/>
      <point x="313" y="38"/>
      <point x="311" y="28"/>
      <point x="307" y="11" type="curve"/>
      <point x="305" y="3"/>
      <point x="309" y="0"/>
      <point x="316" y="0" type="curve"/>
      <point x="378" y="0"/>
      <point x="442" y="0"/>
      <point x="504" y="0" type="curve"/>
      <point x="513" y="33"/>
      <point x="521" y="65"/>
      <point x="529" y="98" type="curve" smooth="yes"/>
      <point x="578" y="295"/>
      <point x="628" y="492"/>
      <point x="677" y="689" type="curve"/>
      <point x="679" y="696"/>
      <point x="676" y="700"/>
      <point x="669" y="700" type="curve" smooth="yes"/>
      <point x="604" y="700"/>
      <point x="540" y="700"/>
      <point x="475" y="700" type="curve"/>
      <point x="391" y="564"/>
      <point x="403" y="583"/>
      <point x="332" y="395" type="curve"/>
      <point x="383" y="470" type="line"/>
      <point x="310" y="470" type="line"/>
      <point x="329" y="395" type="line"/>
      <point x="345" y="584"/>
      <point x="346" y="565"/>
      <point x="337" y="688" type="curve"/>
      <point x="336" y="699"/>
      <point x="332" y="700"/>
      <point x="322" y="700" type="curve"/>
      <point x="244" y="700"/>
      <point x="197" y="700"/>
      <point x="132" y="700" type="curve"/>
      <point x="122" y="663"/>
      <point x="114" y="632"/>
      <point x="107" y="602" type="curve" smooth="yes"/>
      <point x="58" y="405"/>
      <point x="8" y="208"/>
      <point x="-41" y="11" type="curve" smooth="yes"/>
      <point x="-42.0" y="5.0"/>
      <point x="-40" y="0"/>
      <point x="-33" y="0" type="curve"/>
      <point x="29" y="0"/>
      <point x="92" y="0"/>
    </contour>
  </outline>
</glyph>
<glyph name="N" format="2">
  <advance width="600"/>
  <unicode hex="004E"/>
  <anchor x="409.5494605425" y="710" name="top"/>
  <anchor x="231.7499303373" y="-1" name="bottom"/>
  <outline>
    <contour>
      <point x="179" y="0" type="curve"/>
      <point x="185" y="23"/>
      <point x="189" y="41"/>
      <point x="198" y="75" type="curve"/>
      <point x="218" y="162"/>
      <point x="214" y="131"/>
      <point x="214" y="394" type="curve"/>
      <point x="199" y="386" type="line"/>
      <point x="257" y="386" type="line"/>
      <point x="233" y="394" type="line"/>
      <point x="259" y="257"/>
      <point x="283" y="132"/>
      <point x="306" y="8" type="curve"/>
      <point x="308" y="1"/>
      <point x="310" y="0"/>
      <point x="317" y="0" type="curve" smooth="yes"/>
      <point x="377" y="0"/>
      <point x="435" y="0"/>
      <point x="495" y="0" type="curve"/>
      <point x="503" y="32"/>
      <point x="511" y="63"/>
      <point x="519" y="95" type="curve"/>
      <point x="569" y="293"/>
      <point x="618" y="491"/>
      <point x="668" y="689" type="curve" smooth="yes"/>
      <point x="669" y="695"/>
      <point x="666" y="700"/>
      <point x="660" y="700" type="curve"/>
      <point x="594" y="700"/>
      <point x="522" y="700"/>
      <point x="459" y="700" type="curve"/>
      <point x="453" y="678"/>
      <point x="447" y="655"/>
      <point x="440" y="628" type="curve"/>
      <point x="419" y="543"/>
      <point x="423" y="569"/>
      <point x="423" y="297" type="curve"/>
      <point x="435" y="314" type="line"/>
      <point x="383" y="314" type="line"/>
      <point x="405" y="298" type="line"/>
      <point x="378" y="443"/>
      <point x="354" y="568"/>
      <point x="331" y="692" type="curve"/>
      <point x="329" y="698"/>
      <point x="327" y="700"/>
      <point x="314" y="700" type="curve"/>
      <point x="252" y="700"/>
      <point x="199.6741573034" y="700"/>
      <point x="142" y="700" type="curve"/>
      <point x="130" y="653"/>
      <point x="118" y="607"/>
      <point x="107" y="560" type="curve" smooth="yes"/>
      <point x="61" y="377"/>
      <point x="15" y="194"/>
      <point x="-31" y="11" type="curve"/>
      <point x="-32" y="5"/>
      <point x="-29" y="0"/>
      <point x="-23" y="0" type="curve"/>
      <point x="42.6732673267" y="0"/>
      <point x="113" y="0"/>
    </contour>
  </outline>
</glyph>
<glyph name="O" format="2">
  <advance width="600.0"/>
  <unicode hex="004F"/>
  <anchor x="410.0" y="711.0" name="top"/>
  <anchor x="231.7499303373" y="-1.0" name="bottom"/>
  <anchor x="336.0" y="0.0" name="ogonek"/>
  <outline>
    <contour>
      <point x="391.0" y="720.0" type="curve"/>
      <point x="231.0" y="720.0"/>
      <point x="128.0" y="659.0"/>
      <point x="88.0" y="500.0" type="curve" smooth="yes"/>
      <point x="22.0" y="240.0" type="line" smooth="yes"/>
      <point x="-18.0" y="81.0"/>
      <point x="53.0" y="-20.0"/>
      <point x="244.0" y="-20.0" type="curve"/>
      <point x="403.0" y="-20.0"/>
      <point x="510.0" y="42.0"/>
      <point x="550.0" y="201.0" type="curve" smooth="yes"/>
      <point x="616.0" y="461.0" type="line" smooth="yes"/>
      <point x="656.0" y="620.0"/>
      <point x="581.0" y="720.0"/>
    </contour>
    <contour>
      <point x="243.0" y="235.0" type="curve" smooth="yes"/>
      <point x="302.0" y="468.0" type="line" smooth="yes"/>
      <point x="311.0" y="505.0"/>
      <point x="329.0" y="520.0"/>
      <point x="361.0" y="520.0" type="curve" smooth="yes"/>
      <point x="374.0" y="520.0"/>
      <point x="382.0" y="517.0"/>
      <point x="388.0" y="511.0" type="curve" smooth="yes"/>
      <point x="397.0" y="502.0"/>
      <point x="398.0" y="487.0"/>
      <point x="393.0" y="465.0" type="curve" smooth="yes"/>
      <point x="334.0" y="232.0" type="line" smooth="yes"/>
      <point x="325.0" y="195.0"/>
      <point x="307.0" y="180.0"/>
      <point x="275.0" y="180.0" type="curve" smooth="yes"/>
      <point x="262.0" y="180.0"/>
      <point x="253.0" y="183.0"/>
      <point x="247.0" y="189.0" type="curve" smooth="yes"/>
      <point x="239.0" y="197.0"/>
      <point x="238.0" y="213.0"/>
    </contour>
  </outline>
</glyph>
<glyph name="P" format="2">
  <advance width="600"/>
  <unicode hex="0050"/>
  <outline>
    <contour>
      <point x="213" y="0" type="curve"/>
      <point x="220" y="28"/>
      <point x="229" y="62"/>
      <point x="238" y="98" type="curve" smooth="yes"/>
      <point x="264.580265273" y="202.6597945125"/>
      <point x="289.419734727" y="307.3402054875"/>
      <point x="316" y="412" type="curve" smooth="yes"/>
      <point x="325" y="450"/>
      <point x="335" y="488"/>
      <point x="344" y="526" type="curve"/>
      <point x="356" y="546" type="line"/>
      <point x="124" y="548" type="line"/>
      <point x="80.2184624586" y="369.2998467698"/>
      <point x="34" y="190"/>
      <point x="-10" y="11" type="curve"/>
      <point x="-12.0" y="5.0"/>
      <point x="-8" y="0"/>
      <point x="-2" y="0" type="curve" smooth="yes"/>
      <point x="70" y="0"/>
      <point x="140.9329608939" y="0"/>
    </contour>
    <contour>
      <point x="117" y="700" type="curve"/>
      <point x="100" y="634"/>
      <point x="87" y="576"/>
      <point x="70" y="510" type="curve"/>
      <point x="68" y="505"/>
      <point x="71" y="499"/>
      <point x="78" y="499" type="curve" smooth="yes"/>
      <point x="164" y="499"/>
      <point x="253" y="499"/>
      <point x="339" y="499" type="curve" smooth="yes"/>
      <point x="365" y="499"/>
      <point x="377" y="496"/>
      <point x="386" y="488" type="curve" smooth="yes"/>
      <point x="395" y="480"/>
      <point x="397" y="469"/>
      <point x="391" y="445" type="curve" smooth="yes"/>
      <point x="382" y="408" type="line" smooth="yes"/>
      <point x="371" y="361"/>
      <point x="357" y="347"/>
      <point x="326" y="347" type="curve" smooth="yes"/>
      <point x="297" y="347"/>
      <point x="269" y="347"/>
      <point x="240" y="347" type="curve"/>
      <point x="190" y="151" type="line"/>
      <point x="206" y="157" type="line"/>
      <point x="247" y="157"/>
      <point x="293" y="157"/>
      <point x="336" y="157" type="curve" smooth="yes"/>
      <point x="478" y="157"/>
      <point x="566" y="228"/>
      <point x="600" y="369" type="curve" smooth="yes"/>
      <point x="620" y="451" type="line" smooth="yes"/>
      <point x="658" y="606"/>
      <point x="587" y="700"/>
      <point x="430" y="700" type="curve"/>
      <point x="323" y="700"/>
      <point x="225" y="700"/>
    </contour>
  </outline>
</glyph>
<glyph name="Q" format="2">
  <advance width="600"/>
  <unicode hex="0051"/>
  <outline>
    <contour>
      <point x="408" y="134" type="curve"/>
      <point x="216" y="29" type="line"/>
      <point x="231" y="-12"/>
      <point x="245" y="-53"/>
      <point x="260" y="-94" type="curve" smooth="yes"/>
      <point x="283" y="-158"/>
      <point x="315" y="-177"/>
      <point x="399" y="-177" type="curve" smooth="yes"/>
      <point x="417" y="-177"/>
      <point x="435" y="-177"/>
      <point x="453" y="-177" type="curve" smooth="yes"/>
      <point x="460" y="-177"/>
      <point x="465" y="-173"/>
      <point x="467" y="-166" type="curve" smooth="yes"/>
      <point x="481" y="-108"/>
      <point x="496" y="-51"/>
      <point x="510" y="7" type="curve"/>
      <point x="505" y="7" type="line"/>
      <point x="499.0" y="7"/>
      <point x="496" y="7"/>
      <point x="490" y="7" type="curve" smooth="yes"/>
      <point x="456" y="7"/>
      <point x="446" y="12"/>
      <point x="439" y="34" type="curve"/>
      <point x="429" y="67"/>
      <point x="418.0" y="101.0"/>
    </contour>
    <component base="O"/>
  </outline>
</glyph>
<glyph name="T" format="2">
  <advance width="600"/>
  <unicode hex="0054"/>
  <anchor x="409.7995302052" y="711" name="top"/>
  <anchor x="242" y="-1" name="bottom"/>
  <outline>
    <contour>
      <point x="126" y="700" type="line"/>
      <point x="109" y="635"/>
      <point x="92" y="569"/>
      <point x="75" y="504" type="curve"/>
      <point x="73.0" y="499.0"/>
      <point x="76" y="493"/>
      <point x="83" y="493" type="curve" smooth="yes"/>
      <point x="632" y="493" type="line"/>
      <point x="649" y="558"/>
      <point x="666" y="624"/>
      <point x="683" y="689" type="curve" smooth="yes"/>
      <point x="685" y="695"/>
      <point x="681" y="700"/>
      <point x="675" y="700" type="curve" smooth="yes"/>
    </contour>
    <contour>
      <point x="344" y="0" type="curve"/>
      <point x="352" y="33"/>
      <point x="361" y="67"/>
      <point x="369" y="100" type="curve"/>
      <point x="393" y="194"/>
      <point x="416" y="288"/>
      <point x="440" y="382" type="curve"/>
      <point x="460" y="458"/>
      <point x="482.688" y="553.419"/>
      <point x="504" y="639" type="curve" smooth="yes"/>
      <point x="518" y="650" type="line"/>
      <point x="280" y="650" type="line"/>
      <point x="227" y="437"/>
      <point x="173" y="224"/>
      <point x="120" y="11" type="curve"/>
      <point x="118" y="6"/>
      <point x="120" y="0"/>
      <point x="128" y="0" type="curve" smooth="yes"/>
      <point x="200" y="0"/>
      <point x="272" y="0"/>
    </contour>
  </outline>
</glyph>
<glyph name="U" format="2">
  <advance width="600.0"/>
  <unicode hex="0055"/>
  <anchor x="409.7995302052" y="711.0" name="top"/>
  <anchor x="496.0" y="0.0" name="ogonek"/>
  <anchor x="231.7499303373" y="-1.0" name="bottom"/>
  <anchor x="409.7995302052" y="711.0" name="ring"/>
  <outline>
    <contour>
      <point x="495.0" y="0.0" type="curve"/>
      <point x="503.0" y="32.0"/>
      <point x="513.0" y="70.0"/>
      <point x="523.0" y="110.0" type="curve"/>
      <point x="571.0" y="303.0"/>
      <point x="619.0" y="496.0"/>
      <point x="667.0" y="689.0" type="curve"/>
      <point x="669.0" y="695.0"/>
      <point x="665.0" y="700.0"/>
      <point x="659.0" y="700.0" type="curve"/>
      <point x="587.1879194631" y="700.0"/>
      <point x="517.0" y="700.0"/>
      <point x="445.0" y="700.0" type="curve"/>
      <point x="388.0" y="471.0"/>
      <point x="330.0" y="240.0"/>
      <point x="273.0" y="11.0" type="curve" smooth="yes"/>
      <point x="271.209430585" y="5.6282917549"/>
      <point x="274.0" y="0.0"/>
      <point x="281.0" y="0.0" type="curve" smooth="yes"/>
      <point x="353.0" y="0.0"/>
      <point x="423.0" y="0.0"/>
    </contour>
    <contour>
      <point x="119.0" y="-10.0" type="curve" smooth="yes"/>
      <point x="175.0" y="-10.0"/>
      <point x="221.0" y="17.0"/>
      <point x="269.0" y="78.0" type="curve"/>
      <point x="349.0" y="78.0" type="line"/>
      <point x="405.0" y="286.0" type="line"/>
      <point x="360.0" y="233.0"/>
      <point x="310.0" y="200.0"/>
      <point x="283.0" y="200.0" type="curve" smooth="yes"/>
      <point x="258.0" y="200.0"/>
      <point x="245.0" y="212.0"/>
      <point x="255.0" y="245.0" type="curve" smooth="yes"/>
      <point x="290.0" y="393.0"/>
      <point x="326.0" y="541.0"/>
      <point x="361.0" y="689.0" type="curve" smooth="yes"/>
      <point x="362.0" y="695.0"/>
      <point x="359.0" y="700.0"/>
      <point x="353.0" y="700.0" type="curve" smooth="yes"/>
      <point x="282.0" y="700.0"/>
      <point x="212.0" y="700.0"/>
      <point x="141.0" y="700.0" type="curve"/>
      <point x="133.0" y="667.0"/>
      <point x="124.0" y="633.0"/>
      <point x="116.0" y="600.0" type="curve" smooth="yes"/>
      <point x="79.0" y="453.0"/>
      <point x="43.0" y="305.0"/>
      <point x="6.0" y="158.0" type="curve" smooth="yes"/>
      <point x="-19.0" y="62.0"/>
      <point x="23.0" y="-10.0"/>
    </contour>
  </outline>
</glyph>
<glyph name="V" format="2">
  <advance width="600.0"/>
  <unicode hex="0056"/>
  <outline>
    <contour>
      <point x="323.0" y="700.0" type="curve"/>
      <point x="254.0" y="700.0"/>
      <point x="186.0" y="700.0"/>
      <point x="117.0" y="700.0" type="curve"/>
      <point x="114.0" y="653.0"/>
      <point x="112.0" y="606.0"/>
      <point x="109.0" y="559.0" type="curve" smooth="yes"/>
      <point x="99.0" y="378.0"/>
      <point x="88.0" y="196.0"/>
      <point x="78.0" y="15.0" type="curve"/>
      <point x="77.0" y="5.0"/>
      <point x="85.0" y="0.0"/>
      <point x="95.0" y="0.0" type="curve"/>
      <point x="194.0" y="0.0"/>
      <point x="294.0" y="0.0"/>
      <point x="393.0" y="0.0" type="curve"/>
      <point x="490.0" y="227.0"/>
      <point x="587.0" y="454.0"/>
      <point x="684.0" y="681.0" type="curve" smooth="yes"/>
      <point x="689.0" y="691.0"/>
      <point x="687.0" y="700.0"/>
      <point x="676.0" y="700.0" type="curve"/>
      <point x="609.0" y="700.0"/>
      <point x="541.0" y="700.0"/>
      <point x="474.0" y="700.0" type="curve"/>
      <point x="402.0" y="509.0"/>
      <point x="339.0" y="329.0"/>
      <point x="293.0" y="164.0" type="curve"/>
      <point x="330.0" y="186.0" type="line"/>
      <point x="261.0" y="186.0" type="line"/>
      <point x="277.0" y="164.0" type="line"/>
      <point x="303.0" y="341.0"/>
      <point x="319.0" y="514.0"/>
      <point x="336.0" y="683.0" type="curve"/>
      <point x="337.0" y="694.0"/>
      <point x="332.0" y="700.0"/>
    </contour>
  </outline>
</glyph>
<glyph name="W" format="2">
  <advance width="600"/>
  <unicode hex="0057"/>
  <anchor x="408.7995302052" y="711" name="top"/>
  <outline>
    <contour>
      <point x="123" y="700" type="curve"/>
      <point x="118" y="675"/>
      <point x="114" y="650"/>
      <point x="109" y="625" type="curve" smooth="yes"/>
      <point x="72" y="420"/>
      <point x="33" y="217"/>
      <point x="-3" y="15" type="curve"/>
      <point x="-5" y="5"/>
      <point x="4" y="0"/>
      <point x="14" y="0" type="curve"/>
      <point x="75" y="0"/>
      <point x="135" y="0"/>
      <point x="196" y="0" type="curve"/>
      <point x="241" y="125"/>
      <point x="240" y="118"/>
      <point x="321" y="375" type="curve"/>
      <point x="270" y="301" type="line"/>
      <point x="338" y="301" type="line"/>
      <point x="329" y="374" type="line"/>
      <point x="282" y="119"/>
      <point x="283" y="127"/>
      <point x="270" y="15" type="curve"/>
      <point x="269" y="5"/>
      <point x="277" y="0"/>
      <point x="287" y="0" type="curve"/>
      <point x="347" y="0"/>
      <point x="408" y="0"/>
      <point x="468" y="0" type="curve"/>
      <point x="541" y="229"/>
      <point x="615" y="460"/>
      <point x="688" y="687" type="curve"/>
      <point x="690" y="692"/>
      <point x="691" y="700"/>
      <point x="682" y="700" type="curve"/>
      <point x="627" y="700"/>
      <point x="573" y="700"/>
      <point x="518" y="700" type="curve"/>
      <point x="483" y="565"/>
      <point x="443" y="393"/>
      <point x="387" y="131" type="curve"/>
      <point x="423" y="187" type="line"/>
      <point x="365" y="187" type="line"/>
      <point x="370" y="129" type="line"/>
      <point x="393" y="282"/>
      <point x="413" y="419"/>
      <point x="431" y="600" type="curve"/>
      <point x="432" y="607"/>
      <point x="428" y="611"/>
      <point x="422" y="611" type="curve"/>
      <point x="337" y="611" type="line"/>
      <point x="267" y="429"/>
      <point x="208" y="271"/>
      <point x="177" y="165" type="curve"/>
      <point x="213" y="187" type="line"/>
      <point x="147" y="187" type="line"/>
      <point x="156" y="164" type="line"/>
      <point x="214" y="349"/>
      <point x="256" y="526"/>
      <point x="293" y="682" type="curve"/>
      <point x="296" y="698"/>
      <point x="292" y="700"/>
      <point x="284" y="700" type="curve"/>
      <point x="230" y="700"/>
      <point x="177" y="700"/>
    </contour>
  </outline>
</glyph>
<glyph name="X" format="2">
  <advance width="600.0"/>
  <unicode hex="0058"/>
  <outline>
    <contour>
      <point x="317.0" y="0.0" type="curve" smooth="yes"/>
      <point x="393.0" y="0.0"/>
      <point x="443.3684210526" y="0.0"/>
      <point x="520.0" y="0.0" type="curve"/>
      <point x="491.0" y="128.0"/>
      <point x="462.0" y="257.0"/>
      <point x="433.0" y="385.0" type="curve"/>
      <point x="365.0" y="446.0" type="line"/>
      <point x="353.074040117" y="527.4940592004"/>
      <point x="341.1180378724" y="613.2524268079"/>
      <point x="329.0" y="690.0" type="curve"/>
      <point x="328.0" y="697.0"/>
      <point x="321.0" y="700.0"/>
      <point x="312.0" y="700.0" type="curve" smooth="yes"/>
      <point x="246.6666666667" y="700.0"/>
      <point x="181.3333333333" y="700.0"/>
      <point x="116.0" y="700.0" type="curve"/>
      <point x="145.0" y="573.0"/>
      <point x="173.0" y="446.0"/>
      <point x="202.0" y="319.0" type="curve"/>
      <point x="267.0" y="254.0" type="line"/>
      <point x="278.0" y="173.0"/>
      <point x="290.0" y="91.0"/>
      <point x="301.0" y="10.0" type="curve" smooth="yes"/>
      <point x="303.0" y="2.0"/>
      <point x="309.0" y="0.0"/>
    </contour>
    <contour>
      <point x="685.0" y="700.0" type="curve"/>
      <point x="609.3009708738" y="700.0"/>
      <point x="534.6990291262" y="700.0"/>
      <point x="459.0" y="700.0" type="curve"/>
      <point x="398.0" y="575.0"/>
      <point x="396.0" y="559.0"/>
      <point x="382.0" y="463.0" type="curve"/>
      <point x="334.0" y="463.0" type="line"/>
      <point x="394.0" y="305.0" type="line"/>
      <point x="492.0" y="430.0"/>
      <point x="591.0" y="556.0"/>
      <point x="689.0" y="681.0" type="curve" smooth="yes"/>
      <point x="698.3852900965" y="692.2623481158"/>
      <point x="695.0" y="700.0"/>
    </contour>
    <contour>
      <point x="-52.0" y="0.0" type="curve" smooth="yes"/>
      <point x="28.69683257919999" y="0.0"/>
      <point x="108.3031674208" y="0.0"/>
      <point x="189.0" y="0.0" type="curve"/>
      <point x="231.0" y="95.0"/>
      <point x="233.0" y="104.0"/>
      <point x="254.0" y="220.0" type="curve"/>
      <point x="308.0" y="220.0" type="line"/>
      <point x="239.0" y="395.0" type="line"/>
      <point x="141.0" y="270.0"/>
      <point x="42.0" y="144.0"/>
      <point x="-56.0" y="19.0" type="curve" smooth="yes"/>
      <point x="-63.2360679775" y="10.316718427"/>
      <point x="-64.0" y="0.0"/>
    </contour>
  </outline>
</glyph>
<glyph name="Y" format="2">
  <advance width="600"/>
  <unicode hex="0059"/>
  <anchor x="409.7995302052" y="711" name="top"/>
  <outline>
    <contour>
      <point x="344" y="0" type="curve"/>
      <point x="352" y="33"/>
      <point x="361" y="67"/>
      <point x="369" y="100" type="curve"/>
      <point x="386" y="167"/>
      <point x="402" y="233"/>
      <point x="419" y="300" type="curve" smooth="yes"/>
      <point x="193" y="300" type="line"/>
      <point x="169" y="204"/>
      <point x="145" y="107"/>
      <point x="121" y="11" type="curve"/>
      <point x="119.209430585" y="5.6282917549"/>
      <point x="121" y="0"/>
      <point x="129" y="0" type="curve" smooth="yes"/>
      <point x="201.4585635359" y="0"/>
      <point x="271.8523489933" y="0"/>
    </contour>
    <contour>
      <point x="112" y="700" type="curve"/>
      <point x="138" y="540"/>
      <point x="164" y="379"/>
      <point x="190" y="219" type="curve"/>
      <point x="191" y="209"/>
      <point x="197" y="205"/>
      <point x="383" y="205" type="curve"/>
      <point x="485" y="364"/>
      <point x="674" y="657"/>
      <point x="690" y="681" type="curve"/>
      <point x="696" y="691"/>
      <point x="693" y="700"/>
      <point x="682" y="700" type="curve"/>
      <point x="607.6509433962" y="700"/>
      <point x="534.3490566038" y="700"/>
      <point x="460" y="700" type="curve"/>
      <point x="411.9306195772" y="594.8482303251"/>
      <point x="376.0285803356" y="504.0896032143"/>
      <point x="339" y="388" type="curve"/>
      <point x="374" y="400" type="line"/>
      <point x="312" y="400" type="line"/>
      <point x="321" y="388" type="line"/>
      <point x="335" y="502"/>
      <point x="342" y="582"/>
      <point x="348" y="683" type="curve"/>
      <point x="348" y="694"/>
      <point x="344" y="700"/>
      <point x="335" y="700" type="curve" smooth="yes"/>
      <point x="261.30472103" y="700"/>
      <point x="186" y="700"/>
    </contour>
  </outline>
</glyph>
<glyph name="Z" format="2">
  <advance width="600"/>
  <unicode hex="005A"/>
  <anchor x="409.7995302052" y="711" name="top"/>
  <outline>
    <contour>
      <point x="500" y="0" type="line"/>
      <point x="518" y="71"/>
      <point x="533" y="133"/>
      <point x="551" y="204" type="curve"/>
      <point x="553" y="211"/>
      <point x="548" y="215"/>
      <point x="543" y="215" type="curve" smooth="yes"/>
      <point x="463" y="215" type="line"/>
      <point x="345" y="215"/>
      <point x="301" y="210"/>
      <point x="215" y="194" type="curve"/>
      <point x="240" y="159" type="line"/>
      <point x="264" y="255" type="line"/>
      <point x="203" y="191" type="line"/>
      <point x="333" y="264"/>
      <point x="342" y="269"/>
      <point x="428" y="334" type="curve" smooth="yes"/>
      <point x="494" y="384"/>
      <point x="545" y="424"/>
      <point x="614" y="477" type="curve"/>
      <point x="668" y="688" type="line" smooth="yes"/>
      <point x="670" y="695"/>
      <point x="665" y="700"/>
      <point x="659" y="700" type="curve" smooth="yes"/>
      <point x="132" y="700" type="line"/>
      <point x="106" y="597"/>
      <point x="153" y="500"/>
      <point x="269" y="500" type="curve" smooth="yes"/>
      <point x="291" y="500" type="line"/>
      <point x="338" y="500"/>
      <point x="368" y="503"/>
      <point x="435" y="514" type="curve"/>
      <point x="417" y="534" type="line"/>
      <point x="396" y="449" type="line"/>
      <point x="450" y="513" type="line"/>
      <point x="305" y="436"/>
      <point x="297" y="432"/>
      <point x="221" y="373" type="curve" smooth="yes"/>
      <point x="151" y="318"/>
      <point x="101" y="281"/>
      <point x="23" y="223" type="curve"/>
      <point x="-30" y="11" type="line" smooth="yes"/>
      <point x="-31" y="5"/>
      <point x="-28" y="0"/>
      <point x="-22" y="0" type="curve" smooth="yes"/>
    </contour>
    <contour>
      <point x="261" y="455" type="curve"/>
      <point x="265" y="471"/>
      <point x="269" y="484"/>
      <point x="273" y="501" type="curve"/>
      <point x="305" y="631"/>
      <point x="256" y="700"/>
      <point x="132" y="700" type="curve"/>
      <point x="101" y="577"/>
      <point x="94" y="550"/>
      <point x="73" y="466" type="curve"/>
      <point x="71" y="460"/>
      <point x="75" y="455"/>
      <point x="81" y="455" type="curve" smooth="yes"/>
      <point x="141" y="455"/>
      <point x="201" y="455"/>
    </contour>
  </outline>
</glyph>
<glyph name="bracketleft" format="2">
  <advance width="600.0"/>
  <unicode hex="005B"/>
  <outline>
    <contour>
      <point x="373.0" y="-111.0" type="line"/>
      <point x="389.0" y="-45.0"/>
      <point x="405.0" y="16.0"/>
      <point x="421.0" y="82.0" type="curve" smooth="yes"/>
      <point x="423.0" y="88.0"/>
      <point x="419.0" y="93.0"/>
      <point x="413.0" y="93.0" type="curve" smooth="yes"/>
      <point x="324.0" y="93.0" type="line"/>
      <point x="361.0" y="242.0"/>
      <point x="399.0" y="391.0"/>
      <point x="436.0" y="540.0" type="curve"/>
      <point x="536.0" y="540.0" type="line"/>
      <point x="552.0" y="606.0"/>
      <point x="568.0" y="667.0"/>
      <point x="584.0" y="733.0" type="curve" smooth="yes"/>
      <point x="586.0" y="740.0"/>
      <point x="583.0" y="744.0"/>
      <point x="576.0" y="744.0" type="curve" smooth="yes"/>
      <point x="324.0" y="744.0" type="line" smooth="yes"/>
      <point x="307.0" y="744.0"/>
      <point x="289.0" y="744.0"/>
      <point x="272.0" y="744.0" type="curve"/>
      <point x="261.0" y="700.0"/>
      <point x="250.0" y="656.0"/>
      <point x="239.0" y="612.0" type="curve" smooth="yes"/>
      <point x="180.0" y="375.0"/>
      <point x="120.0" y="137.0"/>
      <point x="61.0" y="-100.0" type="curve" smooth="yes"/>
      <point x="59.0" y="-107.0"/>
      <point x="62.0" y="-111.0"/>
      <point x="69.0" y="-111.0" type="curve" smooth="yes"/>
    </contour>
  </outline>
</glyph>
<glyph name="backslash" format="2">
  <advance width="600"/>
  <unicode hex="005C"/>
  <outline>
    <contour>
      <point x="158.5522470519" y="750" type="curve"/>
      <point x="194.2821145212" y="461"/>
      <point x="226.5118426651" y="170"/>
      <point x="261.2417101344" y="-119" type="curve" smooth="yes"/>
      <point x="263.2411528325" y="-127"/>
      <point x="268.4909438443" y="-130"/>
      <point x="274.4909438443" y="-130" type="curve" smooth="yes"/>
      <point x="344.4909438443" y="-130"/>
      <point x="398.0" y="-130"/>
      <point x="468.0" y="-130" type="curve"/>
      <point x="463.0" y="-94"/>
      <point x="460.0" y="-57"/>
      <point x="455.0" y="-21" type="curve"/>
      <point x="425.0" y="233"/>
      <point x="394.0" y="489"/>
      <point x="365.0" y="743" type="curve"/>
      <point x="364.0" y="748"/>
      <point x="361.0" y="750"/>
      <point x="355.0" y="750" type="curve" smooth="yes"/>
      <point x="284.0" y="750"/>
      <point x="229.5522470519" y="750"/>
    </contour>
  </outline>
</glyph>
<glyph name="asciicircum" format="2">
  <advance width="600.0"/>
  <unicode hex="005E"/>
  <outline>
    <contour>
      <point x="269.0" y="750.0" type="curve"/>
      <point x="180.0" y="607.0"/>
      <point x="62.0" y="417.0"/>
      <point x="31.0" y="370.0" type="curve" smooth="yes"/>
      <point x="22.0" y="354.0"/>
      <point x="20.0" y="349.0"/>
      <point x="19.0" y="345.0" type="curve" smooth="yes"/>
      <point x="17.0" y="338.0"/>
      <point x="21.0" y="334.0"/>
      <point x="28.0" y="334.0" type="curve" smooth="yes"/>
      <point x="229.0" y="334.0" type="line"/>
      <point x="273.0" y="411.0"/>
      <point x="309.0" y="473.0"/>
      <point x="366.0" y="573.0" type="curve"/>
      <point x="320.0" y="544.0" type="line"/>
      <point x="415.0" y="544.0" type="line" smooth="yes"/>
      <point x="392.0" y="564.0" type="line"/>
      <point x="393.0" y="488.0"/>
      <point x="394.7865629278" y="426.8734096919"/>
      <point x="396.0" y="348.0" type="curve" smooth="yes"/>
      <point x="397.0" y="337.0"/>
      <point x="402.0" y="334.0"/>
      <point x="413.0" y="334.0" type="curve" smooth="yes"/>
      <point x="479.0" y="334.0"/>
      <point x="539.0" y="334.0"/>
      <point x="605.0" y="334.0" type="curve"/>
      <point x="591.0" y="476.0"/>
      <point x="579.0" y="589.0"/>
      <point x="567.0" y="732.0" type="curve" smooth="yes"/>
      <point x="565.0" y="743.0"/>
      <point x="559.0" y="750.0"/>
      <point x="547.0" y="750.0" type="curve" smooth="yes"/>
      <point x="454.0" y="750.0"/>
      <point x="362.0" y="750.0"/>
    </contour>
  </outline>
</glyph>
<glyph name="underscore" format="2">
  <advance width="600"/>
  <unicode hex="005F"/>
  <outline>
    <contour>
      <point x="-40" y="-19" type="line"/>
      <point x="-57" y="-85"/>
      <point x="-73" y="-152"/>
      <point x="-90" y="-218" type="curve" smooth="yes"/>
      <point x="-92" y="-225"/>
      <point x="-89" y="-229"/>
      <point x="-81" y="-229" type="curve" smooth="yes"/>
      <point x="440" y="-229" type="line"/>
      <point x="457" y="-163"/>
      <point x="473" y="-96"/>
      <point x="490" y="-30" type="curve" smooth="yes"/>
      <point x="492" y="-23"/>
      <point x="489" y="-19"/>
      <point x="481" y="-19" type="curve" smooth="yes"/>
    </contour>
  </outline>
</glyph>
<glyph name="grave" format="2">
  <advance width="600.0"/>
  <unicode hex="0060"/>
  <outline>
    <contour>
      <point x="443.0" y="750.0" type="curve"/>
      <point x="369.0" y="750.0"/>
      <point x="299.0" y="750.0"/>
      <point x="227.0" y="750.0" type="curve" smooth="yes"/>
      <point x="219.0" y="750.0"/>
      <point x="214.0" y="741.0"/>
      <point x="216.0" y="734.0" type="curve" smooth="yes"/>
      <point x="232.0" y="673.0"/>
      <point x="273.0" y="549.0"/>
      <point x="299.0" y="469.0" type="curve" smooth="yes"/>
      <point x="300.0" y="464.0"/>
      <point x="307.0" y="462.0"/>
      <point x="318.0" y="462.0" type="curve" smooth="yes"/>
      <point x="369.0" y="462.0"/>
      <point x="430.0" y="462.0"/>
      <point x="477.0" y="462.0" type="curve"/>
      <point x="467.0" y="546.0"/>
      <point x="453.0" y="664.0"/>
    </contour>
  </outline>
</glyph>
<glyph name="a" format="2">
  <advance width="600"/>
  <unicode hex="0061"/>
  <anchor x="330" y="550" name="top"/>
  <anchor x="280" y="-1" name="bottom"/>
  <anchor x="523" y="10" name="ogonek"/>
  <outline>
    <contour>
      <point x="553" y="337" type="curve" smooth="yes"/>
      <point x="588" y="471"/>
      <point x="512" y="565"/>
      <point x="321" y="565" type="curve" smooth="yes"/>
      <point x="216" y="565"/>
      <point x="108" y="548"/>
      <point x="92" y="537" type="curve"/>
      <point x="89" y="535"/>
      <point x="87" y="532"/>
      <point x="86" y="527" type="curve" smooth="yes"/>
      <point x="73" y="474"/>
      <point x="60" y="423"/>
      <point x="47" y="370" type="curve"/>
      <point x="67" y="370" type="line"/>
      <point x="130" y="383"/>
      <point x="184" y="389"/>
      <point x="262" y="389" type="curve" smooth="yes"/>
      <point x="327" y="389"/>
      <point x="346" y="369"/>
      <point x="336" y="333" type="curve" smooth="yes"/>
      <point x="330" y="313"/>
      <point x="326" y="294"/>
      <point x="321" y="274" type="curve" smooth="yes"/>
      <point x="309" y="229"/>
      <point x="299" y="185"/>
      <point x="288" y="142" type="curve" smooth="yes"/>
      <point x="266" y="53"/>
      <point x="355" y="0"/>
      <point x="449" y="0" type="curve"/>
      <point x="470" y="0"/>
      <point x="505" y="0"/>
      <point x="512" y="0" type="curve" smooth="yes"/>
      <point x="518" y="0"/>
      <point x="521" y="4"/>
      <point x="523" y="11" type="curve"/>
      <point x="538" y="70"/>
      <point x="553" y="130"/>
      <point x="568" y="189" type="curve"/>
      <point x="533" y="189" type="line"/>
      <point x="532" y="189"/>
      <point x="531" y="189"/>
      <point x="531" y="189" type="curve"/>
      <point x="530" y="189"/>
      <point x="529" y="189"/>
      <point x="528" y="189" type="curve" smooth="yes"/>
      <point x="518" y="189"/>
      <point x="517" y="196"/>
      <point x="519" y="205" type="curve" smooth="yes"/>
      <point x="532" y="254"/>
      <point x="540" y="288"/>
    </contour>
    <contour>
      <point x="193" y="173" type="curve" smooth="yes"/>
      <point x="196" y="185" type="line" smooth="yes"/>
      <point x="198" y="194"/>
      <point x="202" y="201"/>
      <point x="207" y="206" type="curve" smooth="yes"/>
      <point x="215" y="214"/>
      <point x="225" y="217"/>
      <point x="238" y="217" type="curve" smooth="yes"/>
      <point x="280" y="217"/>
      <point x="324" y="217"/>
      <point x="366" y="217" type="curve"/>
      <point x="375" y="255"/>
      <point x="392" y="316"/>
      <point x="364" y="316" type="curve" smooth="yes"/>
      <point x="327" y="316"/>
      <point x="269" y="316"/>
      <point x="195" y="316" type="curve" smooth="yes"/>
      <point x="85" y="316"/>
      <point x="14" y="269"/>
      <point x="-9" y="180" type="curve" smooth="yes"/>
      <point x="-16" y="153" type="line" smooth="yes"/>
      <point x="-39" y="63"/>
      <point x="22" y="-10"/>
      <point x="103" y="-10" type="curve" smooth="yes"/>
      <point x="184" y="-10"/>
      <point x="233" y="16"/>
      <point x="271" y="82" type="curve"/>
      <point x="304" y="82" type="line"/>
      <point x="313" y="174" type="line"/>
      <point x="281" y="152"/>
      <point x="251" y="140"/>
      <point x="216" y="140" type="curve" smooth="yes"/>
      <point x="195" y="140"/>
      <point x="188" y="152"/>
    </contour>
  </outline>
</glyph>
<glyph name="b" format="2">
  <advance width="600"/>
  <unicode hex="0062"/>
  <outline>
    <contour>
      <point x="68" y="0" type="curve" smooth="yes"/>
      <point x="71" y="0"/>
      <point x="218" y="110"/>
      <point x="219" y="114" type="curve"/>
      <point x="271" y="322"/>
      <point x="323" y="531"/>
      <point x="375" y="739" type="curve"/>
      <point x="377" y="746"/>
      <point x="374" y="750"/>
      <point x="364" y="750" type="curve" smooth="yes"/>
      <point x="316" y="750"/>
      <point x="200" y="750"/>
      <point x="153" y="750" type="curve"/>
      <point x="141" y="701"/>
      <point x="129" y="652"/>
      <point x="116" y="603" type="curve" smooth="yes"/>
      <point x="67" y="405"/>
      <point x="18" y="209"/>
      <point x="-32" y="11" type="curve"/>
      <point x="-34" y="4"/>
      <point x="-31" y="0"/>
      <point x="-21" y="0" type="curve"/>
      <point x="5" y="0"/>
      <point x="50" y="0"/>
    </contour>
    <contour>
      <point x="151" y="80" type="line"/>
      <point x="197" y="80" type="line"/>
      <point x="217" y="32"/>
      <point x="263" y="-10"/>
      <point x="341" y="-10" type="curve" smooth="yes"/>
      <point x="457" y="-10"/>
      <point x="513.3086229086" y="51.9220707585"/>
      <point x="547" y="186" type="curve" smooth="yes"/>
      <point x="596" y="381" type="line" smooth="yes"/>
      <point x="620" y="478"/>
      <point x="576" y="560"/>
      <point x="482" y="560" type="curve" smooth="yes"/>
      <point x="425" y="560"/>
      <point x="367" y="531"/>
      <point x="327" y="466" type="curve"/>
      <point x="272" y="466" type="line"/>
      <point x="238" y="335" type="line"/>
      <point x="270" y="359"/>
      <point x="302" y="369"/>
      <point x="328" y="369" type="curve" smooth="yes"/>
      <point x="342" y="369"/>
      <point x="351" y="365"/>
      <point x="356" y="358" type="curve" smooth="yes"/>
      <point x="364" y="346"/>
      <point x="362" y="335"/>
      <point x="358" y="321" type="curve" smooth="yes"/>
      <point x="329" y="208" type="line" smooth="yes"/>
      <point x="320" y="172"/>
      <point x="302" y="158"/>
      <point x="274" y="158" type="curve" smooth="yes"/>
      <point x="242" y="158"/>
      <point x="211" y="172"/>
      <point x="191" y="198" type="curve"/>
    </contour>
  </outline>
</glyph>
<glyph name="c" format="2">
  <advance width="600.0"/>
  <unicode hex="0063"/>
  <outline>
    <contour>
      <point x="419.0" y="568.0" type="curve" smooth="yes"/>
      <point x="215.0" y="568.0"/>
      <point x="99.0" y="482.0"/>
      <point x="60.0" y="328.0" type="curve" smooth="yes"/>
      <point x="36.0" y="231.0" type="line" smooth="yes"/>
      <point x="-1.0" y="81.0"/>
      <point x="99.0" y="-17.0"/>
      <point x="293.0" y="-17.0" type="curve" smooth="yes"/>
      <point x="364.0" y="-17.0"/>
      <point x="458.0" y="2.0"/>
      <point x="478.0" y="18.0" type="curve" smooth="yes"/>
      <point x="480.0" y="20.0"/>
      <point x="482.0" y="23.0"/>
      <point x="483.0" y="27.0" type="curve" smooth="yes"/>
      <point x="499.0" y="88.0"/>
      <point x="514.0" y="150.0"/>
      <point x="530.0" y="212.0" type="curve"/>
      <point x="510.0" y="212.0" type="line"/>
      <point x="452.0" y="191.0"/>
      <point x="408.0" y="183.0"/>
      <point x="341.0" y="183.0" type="curve" smooth="yes"/>
      <point x="302.0" y="183.0"/>
      <point x="279.0" y="189.0"/>
      <point x="269.0" y="203.0" type="curve" smooth="yes"/>
      <point x="260.0" y="214.0"/>
      <point x="261.0" y="231.0"/>
      <point x="266.0" y="253.0" type="curve" smooth="yes"/>
      <point x="278.0" y="298.0" type="line" smooth="yes"/>
      <point x="293.0" y="359.0"/>
      <point x="347.0" y="368.0"/>
      <point x="387.0" y="368.0" type="curve" smooth="yes"/>
      <point x="389.0" y="368.0"/>
      <point x="390.0" y="368.0"/>
      <point x="392.0" y="368.0" type="curve"/>
      <point x="388.0" y="351.0"/>
      <point x="384.0" y="334.0"/>
      <point x="380.0" y="317.0" type="curve"/>
      <point x="375.0" y="297.0" type="line"/>
      <point x="431.0" y="297.0"/>
      <point x="486.0" y="297.0"/>
      <point x="542.0" y="297.0" type="curve" smooth="yes"/>
      <point x="549.0" y="297.0"/>
      <point x="554.0" y="301.0"/>
      <point x="555.0" y="308.0" type="curve" smooth="yes"/>
      <point x="607.0" y="516.0" type="line" smooth="yes"/>
      <point x="608.0" y="519.0"/>
      <point x="608.0" y="522.0"/>
      <point x="606.0" y="524.0" type="curve" smooth="yes"/>
      <point x="590.0" y="545.0"/>
      <point x="504.0" y="568.0"/>
    </contour>
  </outline>
</glyph>
<glyph name="d" format="2">
  <advance width="600"/>
  <unicode hex="0064"/>
  <anchor x="650.0" y="711" name="caronslovak"/>
  <outline>
    <contour>
      <point x="256" y="560" type="curve" smooth="yes"/>
      <point x="142" y="560"/>
      <point x="75" y="474"/>
      <point x="47" y="360" type="curve" smooth="yes"/>
      <point x="7" y="199" type="line" smooth="yes"/>
      <point x="-25" y="71"/>
      <point x="34" y="-10"/>
      <point x="117" y="-10" type="curve" smooth="yes"/>
      <point x="187" y="-10"/>
      <point x="221" y="20"/>
      <point x="269" y="87" type="curve"/>
      <point x="304" y="87" type="line"/>
      <point x="334" y="201" type="line"/>
      <point x="320" y="192"/>
      <point x="304" y="184"/>
      <point x="270" y="184" type="curve" smooth="yes"/>
      <point x="253" y="184"/>
      <point x="243" y="187"/>
      <point x="238" y="194" type="curve" smooth="yes"/>
      <point x="233" y="200"/>
      <point x="233" y="210"/>
      <point x="236" y="223" type="curve" smooth="yes"/>
      <point x="262" y="326" type="line" smooth="yes"/>
      <point x="272" y="365"/>
      <point x="291" y="380"/>
      <point x="320" y="380" type="curve" smooth="yes"/>
      <point x="340" y="380"/>
      <point x="359" y="377"/>
      <point x="370" y="368" type="curve"/>
      <point x="395" y="475" type="line"/>
      <point x="366" y="475" type="line"/>
      <point x="346" y="521"/>
      <point x="313" y="560"/>
    </contour>
    <contour>
      <point x="669" y="750" type="curve" smooth="yes"/>
      <point x="621" y="750"/>
      <point x="503" y="750"/>
      <point x="455" y="750" type="curve"/>
      <point x="448" y="721"/>
      <point x="440" y="688"/>
      <point x="430" y="649" type="curve" smooth="yes"/>
      <point x="377" y="437"/>
      <point x="323" y="223"/>
      <point x="270" y="11" type="curve" smooth="yes"/>
      <point x="268" y="4"/>
      <point x="271" y="0"/>
      <point x="278" y="0" type="curve" smooth="yes"/>
      <point x="326" y="0"/>
      <point x="444" y="0"/>
      <point x="492" y="0" type="curve"/>
      <point x="501" y="34"/>
      <point x="510" y="69"/>
      <point x="518" y="103" type="curve" smooth="yes"/>
      <point x="571" y="315"/>
      <point x="624" y="527"/>
      <point x="677" y="739" type="curve"/>
      <point x="679" y="746"/>
      <point x="676" y="750"/>
    </contour>
  </outline>
</glyph>
<glyph name="e" format="2">
  <advance width="600"/>
  <unicode hex="0065"/>
  <anchor x="372" y="550" name="top"/>
  <anchor x="486.0" y="23" name="ogonek"/>
  <anchor x="265.0" y="-1" name="bottom"/>
  <outline>
    <contour>
      <point x="373" y="570" type="curve" smooth="yes"/>
      <point x="191" y="570"/>
      <point x="88" y="496"/>
      <point x="43" y="319" type="curve" smooth="yes"/>
      <point x="23" y="240" type="line" smooth="yes"/>
      <point x="-17" y="81"/>
      <point x="85" y="-20"/>
      <point x="264" y="-20" type="curve" smooth="yes"/>
      <point x="363" y="-20"/>
      <point x="465" y="-4"/>
      <point x="484" y="15" type="curve"/>
      <point x="486" y="17"/>
      <point x="488" y="20"/>
      <point x="489" y="24" type="curve" smooth="yes"/>
      <point x="502" y="75"/>
      <point x="515" y="128"/>
      <point x="528" y="181" type="curve"/>
      <point x="508" y="181" type="line"/>
      <point x="441" y="162"/>
      <point x="391" y="155"/>
      <point x="331" y="155" type="curve" smooth="yes"/>
      <point x="270" y="154"/>
      <point x="249" y="161"/>
      <point x="240" y="173" type="curve" smooth="yes"/>
      <point x="232" y="184"/>
      <point x="233" y="201"/>
      <point x="238" y="220" type="curve" smooth="yes"/>
      <point x="268" y="339" type="line" smooth="yes"/>
      <point x="276" y="372"/>
      <point x="305" y="395"/>
      <point x="340" y="395" type="curve" smooth="yes"/>
      <point x="359" y="395"/>
      <point x="372" y="390"/>
      <point x="379" y="380" type="curve" smooth="yes"/>
      <point x="386" y="370"/>
      <point x="387" y="356"/>
      <point x="382" y="335" type="curve" smooth="yes"/>
      <point x="380" y="327"/>
      <point x="379" y="324"/>
      <point x="378" y="320" type="curve"/>
      <point x="213" y="320" type="line"/>
      <point x="188" y="220" type="line"/>
      <point x="252" y="220" type="line"/>
      <point x="272" y="220"/>
      <point x="293" y="220"/>
      <point x="313" y="220" type="curve"/>
      <point x="545" y="220" type="line"/>
      <point x="550" y="220"/>
      <point x="554" y="224"/>
      <point x="556" y="231" type="curve" smooth="yes"/>
      <point x="578" y="317" type="line" smooth="yes"/>
      <point x="617" y="470"/>
      <point x="528" y="570"/>
    </contour>
  </outline>
</glyph>
<glyph name="f" format="2">
  <advance width="600.0"/>
  <unicode hex="0066"/>
  <outline>
    <contour>
      <point x="65.0" y="470.0" type="line"/>
      <point x="51.0" y="415.0"/>
      <point x="32.0" y="339.0"/>
      <point x="18.0" y="284.0" type="curve" smooth="yes"/>
      <point x="16.0" y="277.0"/>
      <point x="19.0" y="273.0"/>
      <point x="26.0" y="273.0" type="curve" smooth="yes"/>
      <point x="565.0" y="273.0" type="line"/>
      <point x="579.0" y="328.0"/>
      <point x="598.0" y="404.0"/>
      <point x="612.0" y="459.0" type="curve"/>
      <point x="614.0" y="466.0"/>
      <point x="611.0" y="470.0"/>
      <point x="604.0" y="470.0" type="curve" smooth="yes"/>
    </contour>
    <contour>
      <point x="524.0" y="770.0" type="curve" smooth="yes"/>
      <point x="317.0" y="770.0"/>
      <point x="235.0" y="714.0"/>
      <point x="189.0" y="527.0" type="curve" smooth="yes"/>
      <point x="137.0" y="323.0"/>
      <point x="86.0" y="117.0"/>
      <point x="34.0" y="-89.0" type="curve" smooth="yes"/>
      <point x="24.0" y="-127.0"/>
      <point x="15.0" y="-164.0"/>
      <point x="6.0" y="-200.0" type="curve"/>
      <point x="79.0" y="-200.0"/>
      <point x="152.0" y="-200.0"/>
      <point x="225.0" y="-200.0" type="curve" smooth="yes"/>
      <point x="233.0" y="-200.0"/>
      <point x="237.0" y="-197.0"/>
      <point x="239.0" y="-189.0" type="curve" smooth="yes"/>
      <point x="293.0" y="35.0"/>
      <point x="361.1303026778" y="298.9666652766"/>
      <point x="422.0" y="539.0" type="curve" smooth="yes"/>
      <point x="425.0" y="552.0"/>
      <point x="431.0" y="562.0"/>
      <point x="440.0" y="569.0" type="curve" smooth="yes"/>
      <point x="448.0" y="575.0"/>
      <point x="458.0" y="579.0"/>
      <point x="472.0" y="579.0" type="curve" smooth="yes"/>
      <point x="476.0" y="579.0"/>
      <point x="480.0" y="579.0"/>
      <point x="484.0" y="579.0" type="curve"/>
      <point x="480.1538004948" y="563.6152019793"/>
      <point x="479.0" y="559.0"/>
      <point x="475.0" y="543.0" type="curve"/>
      <point x="472.0" y="530.0" type="line"/>
      <point x="528.0" y="530.0"/>
      <point x="578.0" y="530.0"/>
      <point x="634.0" y="530.0" type="curve" smooth="yes"/>
      <point x="643.0" y="530.0"/>
      <point x="646.0" y="534.0"/>
      <point x="648.0" y="541.0" type="curve" smooth="yes"/>
      <point x="693.0" y="721.0" type="line"/>
      <point x="694.0" y="726.0"/>
      <point x="693.0" y="728.0"/>
      <point x="690.0" y="731.0" type="curve" smooth="yes"/>
      <point x="674.0" y="747.0"/>
      <point x="594.0" y="770.0"/>
    </contour>
  </outline>
</glyph>
<glyph name="g" format="2">
  <advance width="600.0"/>
  <unicode hex="0067"/>
  <outline>
    <contour>
      <point x="259.0" y="560.0" type="curve" smooth="yes"/>
      <point x="164.0" y="560.0"/>
      <point x="92.0" y="501.0"/>
      <point x="62.0" y="380.0" type="curve" smooth="yes"/>
      <point x="17.0" y="199.0" type="line" smooth="yes"/>
      <point x="-7.0" y="105.0"/>
      <point x="44.0" y="36.0"/>
      <point x="129.0" y="36.0" type="curve" smooth="yes"/>
      <point x="189.0" y="36.0"/>
      <point x="249.0" y="70.0"/>
      <point x="294.0" y="129.0" type="curve"/>
      <point x="344.0" y="129.0" type="line"/>
      <point x="369.0" y="263.0" type="line"/>
      <point x="348.0" y="240.0"/>
      <point x="325.0" y="230.0"/>
      <point x="292.0" y="230.0" type="curve" smooth="yes"/>
      <point x="275.0" y="230.0"/>
      <point x="264.0" y="233.0"/>
      <point x="259.0" y="240.0" type="curve" smooth="yes"/>
      <point x="255.0" y="246.0"/>
      <point x="254.0" y="256.0"/>
      <point x="257.0" y="269.0" type="curve" smooth="yes"/>
      <point x="272.0" y="326.0" type="line" smooth="yes"/>
      <point x="283.0" y="367.0"/>
      <point x="300.0" y="383.0"/>
      <point x="329.0" y="383.0" type="curve" smooth="yes"/>
      <point x="355.0" y="383.0"/>
      <point x="369.0" y="375.0"/>
      <point x="377.0" y="364.0" type="curve"/>
      <point x="425.0" y="466.0" type="line"/>
      <point x="378.0" y="466.0" type="line"/>
      <point x="367.0" y="497.0"/>
      <point x="330.0" y="560.0"/>
    </contour>
    <contour>
      <point x="420.0" y="550.0" type="curve"/>
      <point x="407.0" y="498.0"/>
      <point x="393.0" y="445.0"/>
      <point x="380.0" y="393.0" type="curve" smooth="yes"/>
      <point x="351.0" y="279.0"/>
      <point x="323.0" y="164.0"/>
      <point x="294.0" y="50.0" type="curve" smooth="yes"/>
      <point x="289.0" y="31.0"/>
      <point x="283.0" y="14.0"/>
      <point x="267.0" y="-2.0" type="curve" smooth="yes"/>
      <point x="251.0" y="-18.0"/>
      <point x="219.0" y="-27.0"/>
      <point x="165.0" y="-27.0" type="curve" smooth="yes"/>
      <point x="108.0" y="-27.0"/>
      <point x="58.0" y="-20.0"/>
      <point x="9.0" y="-5.0" type="curve"/>
      <point x="-11.0" y="-5.0" type="line"/>
      <point x="-24.0" y="-56.0"/>
      <point x="-37.0" y="-108.0"/>
      <point x="-50.0" y="-159.0" type="curve" smooth="yes"/>
      <point x="-51.0" y="-163.0"/>
      <point x="-51.0" y="-165.0"/>
      <point x="-49.0" y="-167.0" type="curve" smooth="yes"/>
      <point x="-29.0" y="-187.0"/>
      <point x="50.0" y="-200.0"/>
      <point x="137.0" y="-200.0" type="curve" smooth="yes"/>
      <point x="365.0" y="-200.0"/>
      <point x="467.0" y="-140.0"/>
      <point x="516.0" y="57.0" type="curve" smooth="yes"/>
      <point x="553.0" y="206.0"/>
      <point x="597.0" y="379.0"/>
      <point x="637.0" y="539.0" type="curve" smooth="yes"/>
      <point x="639.0" y="546.0"/>
      <point x="636.0" y="550.0"/>
      <point x="629.0" y="550.0" type="curve" smooth="yes"/>
      <point x="559.0" y="550.0"/>
      <point x="490.0" y="550.0"/>
    </contour>
  </outline>
</glyph>
<glyph name="h" format="2">
  <advance width="600.0"/>
  <unicode hex="0068"/>
  <outline>
    <contour>
      <point x="142.0" y="750.0" type="curve"/>
      <point x="135.0" y="722.0"/>
      <point x="127.0" y="688.0"/>
      <point x="118.0" y="652.0" type="curve" smooth="yes"/>
      <point x="65.0" y="439.0"/>
      <point x="11.0" y="224.0"/>
      <point x="-42.0" y="11.0" type="curve" smooth="yes"/>
      <point x="-44.0" y="4.0"/>
      <point x="-41.0" y="0.0"/>
      <point x="-34.0" y="0.0" type="curve" smooth="yes"/>
      <point x="19.0" y="0.0"/>
      <point x="127.0" y="0.0"/>
      <point x="181.0" y="0.0" type="curve"/>
      <point x="242.0" y="246.0"/>
      <point x="304.0" y="494.0"/>
      <point x="365.0" y="739.0" type="curve" smooth="yes"/>
      <point x="367.0" y="746.0"/>
      <point x="364.0" y="750.0"/>
      <point x="357.0" y="750.0" type="curve" smooth="yes"/>
      <point x="308.0" y="750.0"/>
      <point x="201.0" y="750.0"/>
    </contour>
    <contour>
      <point x="492.0" y="560.0" type="curve" smooth="yes"/>
      <point x="423.0" y="560.0"/>
      <point x="370.0" y="530.0"/>
      <point x="316.0" y="463.0" type="curve"/>
      <point x="252.0" y="463.0" type="line"/>
      <point x="240.0" y="334.0" type="line"/>
      <point x="282.0" y="362.0"/>
      <point x="305.0" y="370.0"/>
      <point x="328.0" y="370.0" type="curve" smooth="yes"/>
      <point x="346.0" y="370.0"/>
      <point x="351.0" y="360.0"/>
      <point x="346.0" y="342.0" type="curve" smooth="yes"/>
      <point x="329.0" y="276.0"/>
      <point x="313.0" y="211.0"/>
      <point x="299.0" y="154.0" type="curve" smooth="yes"/>
      <point x="277.0" y="66.0"/>
      <point x="332.0" y="-5.0"/>
      <point x="424.0" y="-5.0" type="curve" smooth="yes"/>
      <point x="453.0" y="-5.0"/>
      <point x="485.0" y="-5.0"/>
      <point x="513.0" y="-5.0" type="curve" smooth="yes"/>
      <point x="520.0" y="-5.0"/>
      <point x="525.0" y="-1.0"/>
      <point x="527.0" y="6.0" type="curve" smooth="yes"/>
      <point x="542.0" y="65.0"/>
      <point x="556.0" y="125.0"/>
      <point x="571.0" y="184.0" type="curve"/>
      <point x="547.0" y="184.0" type="line"/>
      <point x="545.0" y="184.0"/>
      <point x="544.0" y="184.0"/>
      <point x="542.0" y="184.0" type="curve" smooth="yes"/>
      <point x="538.0" y="184.0"/>
      <point x="536.0" y="185.0"/>
      <point x="535.0" y="187.0" type="curve" smooth="yes"/>
      <point x="533.0" y="189.0"/>
      <point x="533.0" y="192.0"/>
      <point x="534.0" y="196.0" type="curve" smooth="yes"/>
      <point x="550.0" y="261.0"/>
      <point x="568.0" y="327.0"/>
      <point x="584.0" y="392.0" type="curve" smooth="yes"/>
      <point x="611.0" y="500.0"/>
      <point x="578.0" y="560.0"/>
    </contour>
  </outline>
</glyph>
<glyph name="k" format="2">
  <advance width="600.0"/>
  <unicode hex="006B"/>
  <outline>
    <contour>
      <point x="145.0" y="750.0" type="curve"/>
      <point x="138.0" y="722.0"/>
      <point x="129.0" y="688.0"/>
      <point x="120.0" y="652.0" type="curve" smooth="yes"/>
      <point x="67.0" y="439.0"/>
      <point x="13.0" y="224.0"/>
      <point x="-40.0" y="11.0" type="curve" smooth="yes"/>
      <point x="-42.0" y="4.0"/>
      <point x="-39.0" y="0.0"/>
      <point x="-32.0" y="0.0" type="curve" smooth="yes"/>
      <point x="16.0" y="0.0"/>
      <point x="113.0" y="0.0"/>
      <point x="162.0" y="0.0" type="curve"/>
      <point x="224.0" y="246.0"/>
      <point x="277.0" y="495.0"/>
      <point x="347.0" y="739.0" type="curve" smooth="yes"/>
      <point x="349.0" y="746.0"/>
      <point x="346.0" y="750.0"/>
      <point x="339.0" y="750.0" type="curve" smooth="yes"/>
      <point x="295.0" y="750.0"/>
      <point x="198.0" y="750.0"/>
    </contour>
    <contour>
      <point x="471.0" y="560.0" type="curve" smooth="yes"/>
      <point x="411.0" y="560.0"/>
      <point x="351.0" y="523.0"/>
      <point x="292.0" y="453.0" type="curve"/>
      <point x="221.0" y="453.0" type="line"/>
      <point x="225.0" y="321.0" type="line"/>
      <point x="249.0" y="340.0"/>
      <point x="296.0" y="350.0"/>
      <point x="328.0" y="350.0" type="curve" smooth="yes"/>
      <point x="341.0" y="350.0"/>
      <point x="349.0" y="347.0"/>
      <point x="354.0" y="340.0" type="curve" smooth="yes"/>
      <point x="360.0" y="332.0"/>
      <point x="359.0" y="326.0"/>
      <point x="356.0" y="314.0" type="curve" smooth="yes"/>
      <point x="354.0" y="306.0" type="line" smooth="yes"/>
      <point x="348.0" y="285.0"/>
      <point x="331.0" y="274.0"/>
      <point x="297.0" y="274.0" type="curve" smooth="yes"/>
      <point x="286.0" y="274.0"/>
      <point x="275.0" y="274.0"/>
      <point x="264.0" y="274.0" type="curve"/>
      <point x="251.0" y="223.0"/>
      <point x="238.0" y="173.0"/>
      <point x="226.0" y="122.0" type="curve" smooth="yes"/>
      <point x="223.0" y="111.0"/>
      <point x="222.0" y="103.0"/>
      <point x="229.0" y="98.0" type="curve" smooth="yes"/>
      <point x="259.0" y="74.0"/>
      <point x="288.0" y="49.0"/>
      <point x="318.0" y="25.0" type="curve" smooth="yes"/>
      <point x="339.0" y="8.0"/>
      <point x="368.0" y="0.0"/>
      <point x="414.0" y="0.0" type="curve" smooth="yes"/>
      <point x="428.0" y="0.0"/>
      <point x="480.0" y="0.0"/>
      <point x="495.0" y="0.0" type="curve" smooth="yes"/>
      <point x="506.0" y="0.0"/>
      <point x="510.0" y="2.0"/>
      <point x="512.0" y="13.0" type="curve" smooth="yes"/>
      <point x="528.0" y="74.0"/>
      <point x="544.0" y="139.0"/>
      <point x="559.0" y="200.0" type="curve"/>
      <point x="536.0" y="200.0" type="line"/>
      <point x="525.0" y="200.0"/>
      <point x="512.0" y="200.0"/>
      <point x="501.0" y="200.0" type="curve" smooth="yes"/>
      <point x="484.0" y="200.0"/>
      <point x="472.0" y="200.0"/>
      <point x="464.0" y="205.0" type="curve" smooth="yes"/>
      <point x="450.0" y="215.0"/>
      <point x="447.0" y="217.0"/>
      <point x="433.0" y="228.0" type="curve"/>
      <point x="438.0" y="247.0" type="line"/>
      <point x="441.0" y="247.0"/>
      <point x="445.0" y="247.0"/>
      <point x="448.0" y="247.0" type="curve" smooth="yes"/>
      <point x="512.0" y="247.0"/>
      <point x="560.0" y="280.0"/>
      <point x="578.0" y="347.0" type="curve" smooth="yes"/>
      <point x="590.0" y="393.0" type="line" smooth="yes"/>
      <point x="616.0" y="490.0"/>
      <point x="567.0" y="560.0"/>
    </contour>
  </outline>
</glyph>
<glyph name="l" format="2">
  <advance width="600"/>
  <unicode hex="006C"/>
  <anchor x="308" y="-1" name="bottom"/>
  <anchor x="391" y="730" name="top"/>
  <anchor x="549" y="400" name="dot"/>
  <anchor x="629" y="671" name="caronslovak"/>
  <anchor x="325" y="424" name="slash"/>
  <outline>
    <contour>
      <point x="131" y="750" type="curve"/>
      <point x="115" y="685"/>
      <point x="98" y="619"/>
      <point x="82" y="554" type="curve" smooth="yes"/>
      <point x="80" y="547"/>
      <point x="83" y="543"/>
      <point x="90" y="543" type="curve" smooth="yes"/>
      <point x="133" y="543"/>
      <point x="177" y="543"/>
      <point x="221" y="543" type="curve"/>
      <point x="245" y="543" type="line"/>
      <point x="216" y="427"/>
      <point x="186" y="312"/>
      <point x="157" y="196" type="curve" smooth="yes"/>
      <point x="128" y="79"/>
      <point x="186" y="0"/>
      <point x="304" y="0" type="curve" smooth="yes"/>
      <point x="360" y="0"/>
      <point x="416" y="0"/>
      <point x="472" y="0" type="curve" smooth="yes"/>
      <point x="478" y="0"/>
      <point x="484" y="4"/>
      <point x="486" y="11" type="curve" smooth="yes"/>
      <point x="502" y="76"/>
      <point x="519" y="142"/>
      <point x="535" y="207" type="curve"/>
      <point x="516" y="207" type="line"/>
      <point x="476" y="207"/>
      <point x="436" y="207"/>
      <point x="396" y="207" type="curve" smooth="yes"/>
      <point x="393" y="207"/>
      <point x="390" y="208"/>
      <point x="389" y="209" type="curve" smooth="yes"/>
      <point x="388" y="211"/>
      <point x="387" y="214"/>
      <point x="388" y="218" type="curve" smooth="yes"/>
      <point x="431" y="391"/>
      <point x="475" y="566"/>
      <point x="518" y="739" type="curve" smooth="yes"/>
      <point x="520" y="746"/>
      <point x="517" y="750"/>
      <point x="510" y="750" type="curve" smooth="yes"/>
      <point x="384" y="750"/>
      <point x="257" y="750"/>
    </contour>
  </outline>
</glyph>
<glyph name="m" format="2">
  <advance width="600"/>
  <unicode hex="006D"/>
  <outline>
    <contour>
      <point x="510" y="0" type="curve"/>
      <point x="518" y="33"/>
      <point x="526" y="65"/>
      <point x="534" y="98" type="curve" smooth="yes"/>
      <point x="563" y="214"/>
      <point x="593" y="329"/>
      <point x="622" y="445" type="curve" smooth="yes"/>
      <point x="641" y="520"/>
      <point x="609" y="560"/>
      <point x="554" y="560" type="curve" smooth="yes"/>
      <point x="492" y="560"/>
      <point x="462" y="512"/>
      <point x="436" y="465" type="curve"/>
      <point x="380" y="465" type="line"/>
      <point x="388" y="372" type="line"/>
      <point x="398" y="376"/>
      <point x="413" y="378"/>
      <point x="428" y="378" type="curve" smooth="yes"/>
      <point x="439" y="378"/>
      <point x="443" y="372"/>
      <point x="440" y="361" type="curve"/>
      <point x="411" y="244"/>
      <point x="382" y="128"/>
      <point x="353" y="11" type="curve" smooth="yes"/>
      <point x="351" y="4"/>
      <point x="354" y="0"/>
      <point x="361" y="0" type="curve" smooth="yes"/>
      <point x="411" y="0"/>
      <point x="460" y="0"/>
    </contour>
    <contour>
      <point x="300" y="0" type="curve"/>
      <point x="337" y="148"/>
      <point x="382" y="326"/>
      <point x="411" y="445" type="curve"/>
      <point x="429" y="519"/>
      <point x="407" y="560"/>
      <point x="355" y="560" type="curve" smooth="yes"/>
      <point x="304" y="560"/>
      <point x="272" y="514"/>
      <point x="243" y="465" type="curve"/>
      <point x="194" y="465" type="line"/>
      <point x="198" y="371" type="line"/>
      <point x="209" y="375"/>
      <point x="221" y="378"/>
      <point x="238" y="378" type="curve" smooth="yes"/>
      <point x="252" y="378"/>
      <point x="253" y="373"/>
      <point x="250" y="360" type="curve"/>
      <point x="221" y="244"/>
      <point x="192" y="127"/>
      <point x="163" y="11" type="curve" smooth="yes"/>
      <point x="161" y="4"/>
      <point x="164" y="0"/>
      <point x="171" y="0" type="curve"/>
      <point x="214" y="0"/>
      <point x="257" y="0"/>
    </contour>
    <contour>
      <point x="110" y="0" type="curve"/>
      <point x="147" y="149"/>
      <point x="185" y="299"/>
      <point x="222" y="448" type="curve" smooth="yes"/>
      <point x="223.0" y="450.0"/>
      <point x="229.0" y="550"/>
      <point x="228" y="550" type="curve" smooth="yes"/>
      <point x="222" y="550"/>
      <point x="136" y="550"/>
      <point x="88" y="550" type="curve"/>
      <point x="81" y="522"/>
      <point x="72" y="488"/>
      <point x="63" y="452" type="curve" smooth="yes"/>
      <point x="26" y="305"/>
      <point x="-11" y="158"/>
      <point x="-47" y="11" type="curve" smooth="yes"/>
      <point x="-49" y="4"/>
      <point x="-46" y="0"/>
      <point x="-39" y="0" type="curve" smooth="yes"/>
      <point x="-2" y="0"/>
      <point x="73" y="0"/>
    </contour>
  </outline>
</glyph>
<glyph name="n" format="2">
  <advance width="600.0"/>
  <unicode hex="006E"/>
  <outline>
    <contour>
      <point x="93.0" y="550.0" type="curve"/>
      <point x="86.0" y="522.0"/>
      <point x="78.0" y="488.0"/>
      <point x="69.0" y="452.0" type="curve" smooth="yes"/>
      <point x="32.0" y="305.0"/>
      <point x="-5.0" y="158.0"/>
      <point x="-42.0" y="11.0" type="curve" smooth="yes"/>
      <point x="-44.0" y="4.0"/>
      <point x="-41.0" y="0.0"/>
      <point x="-34.0" y="0.0" type="curve" smooth="yes"/>
      <point x="19.0" y="0.0"/>
      <point x="126.0" y="0.0"/>
      <point x="180.0" y="0.0" type="curve"/>
      <point x="225.0" y="179.0"/>
      <point x="271.0" y="360.0"/>
      <point x="315.0" y="539.0" type="curve" smooth="yes"/>
      <point x="317.0" y="546.0"/>
      <point x="314.0" y="550.0"/>
      <point x="307.0" y="550.0" type="curve" smooth="yes"/>
      <point x="258.0" y="550.0"/>
      <point x="152.0" y="550.0"/>
    </contour>
    <contour>
      <point x="492.0" y="560.0" type="curve" smooth="yes"/>
      <point x="423.0" y="560.0"/>
      <point x="370.0" y="532.0"/>
      <point x="316.0" y="465.0" type="curve"/>
      <point x="262.0" y="465.0" type="line"/>
      <point x="240.0" y="334.0" type="line"/>
      <point x="282.0" y="362.0"/>
      <point x="305.0" y="370.0"/>
      <point x="328.0" y="370.0" type="curve" smooth="yes"/>
      <point x="346.0" y="370.0"/>
      <point x="351.0" y="360.0"/>
      <point x="346.0" y="342.0" type="curve" smooth="yes"/>
      <point x="329.0" y="276.0"/>
      <point x="313.0" y="211.0"/>
      <point x="299.0" y="154.0" type="curve" smooth="yes"/>
      <point x="277.0" y="66.0"/>
      <point x="332.0" y="-5.0"/>
      <point x="424.0" y="-5.0" type="curve" smooth="yes"/>
      <point x="453.0" y="-5.0"/>
      <point x="485.0" y="-5.0"/>
      <point x="513.0" y="-5.0" type="curve" smooth="yes"/>
      <point x="520.0" y="-5.0"/>
      <point x="525.0" y="-1.0"/>
      <point x="527.0" y="6.0" type="curve" smooth="yes"/>
      <point x="542.0" y="65.0"/>
      <point x="556.0" y="125.0"/>
      <point x="571.0" y="184.0" type="curve"/>
      <point x="547.0" y="184.0" type="line"/>
      <point x="545.0" y="184.0"/>
      <point x="544.0" y="184.0"/>
      <point x="542.0" y="184.0" type="curve" smooth="yes"/>
      <point x="538.0" y="184.0"/>
      <point x="536.0" y="185.0"/>
      <point x="535.0" y="187.0" type="curve" smooth="yes"/>
      <point x="533.0" y="189.0"/>
      <point x="533.0" y="192.0"/>
      <point x="534.0" y="196.0" type="curve" smooth="yes"/>
      <point x="550.0" y="261.0"/>
      <point x="568.0" y="327.0"/>
      <point x="584.0" y="392.0" type="curve" smooth="yes"/>
      <point x="611.0" y="500.0"/>
      <point x="578.0" y="560.0"/>
    </contour>
  </outline>
</glyph>
<glyph name="o" format="2">
  <advance width="600.0"/>
  <unicode hex="006F"/>
  <anchor x="352.0" y="550.0" name="top"/>
  <anchor x="358.0" y="7.0" name="ogonek"/>
  <anchor x="251.0" y="-1.0" name="bottom"/>
  <outline>
    <contour>
      <point x="346.0" y="570.0" type="curve" smooth="yes"/>
      <point x="194.0" y="570.0"/>
      <point x="92.0" y="497.0"/>
      <point x="54.0" y="349.0" type="curve" smooth="yes"/>
      <point x="26.0" y="239.0" type="line" smooth="yes"/>
      <point x="-13.0" y="80.0"/>
      <point x="68.0" y="-20.0"/>
      <point x="250.0" y="-20.0" type="curve" smooth="yes"/>
      <point x="398.0" y="-20.0"/>
      <point x="500.0" y="53.0"/>
      <point x="546.0" y="201.0" type="curve" smooth="yes"/>
      <point x="570.0" y="311.0" type="line" smooth="yes"/>
      <point x="605.0" y="470.0"/>
      <point x="524.0" y="570.0"/>
    </contour>
    <contour>
      <point x="320.0" y="370.0" type="curve" smooth="yes"/>
      <point x="340.0" y="370.0"/>
      <point x="351.0" y="367.0"/>
      <point x="357.0" y="359.0" type="curve" smooth="yes"/>
      <point x="363.0" y="351.0"/>
      <point x="363.0" y="339.0"/>
      <point x="358.0" y="320.0" type="curve" smooth="yes"/>
      <point x="336.0" y="230.0" type="line" smooth="yes"/>
      <point x="327.0" y="192.0"/>
      <point x="313.0" y="180.0"/>
      <point x="280.0" y="180.0" type="curve" smooth="yes"/>
      <point x="260.0" y="180.0"/>
      <point x="249.0" y="183.0"/>
      <point x="243.0" y="191.0" type="curve" smooth="yes"/>
      <point x="237.0" y="199.0"/>
      <point x="237.0" y="211.0"/>
      <point x="242.0" y="230.0" type="curve" smooth="yes"/>
      <point x="264.0" y="320.0" type="line" smooth="yes"/>
      <point x="274.0" y="358.0"/>
      <point x="287.0" y="370.0"/>
    </contour>
  </outline>
</glyph>
<glyph name="p" format="2">
  <advance width="600"/>
  <unicode hex="0070"/>
  <outline>
    <contour>
      <point x="105" y="550" type="curve"/>
      <point x="97" y="521"/>
      <point x="89" y="488"/>
      <point x="79" y="449" type="curve"/>
      <point x="34" y="266"/>
      <point x="-27" y="23"/>
      <point x="-80" y="-189" type="curve"/>
      <point x="-82" y="-196"/>
      <point x="-79" y="-200"/>
      <point x="-72" y="-200" type="curve"/>
      <point x="-20" y="-200"/>
      <point x="90" y="-200"/>
      <point x="142" y="-200" type="curve"/>
      <point x="203" y="46"/>
      <point x="265" y="293"/>
      <point x="327" y="539" type="curve" smooth="yes"/>
      <point x="329" y="546"/>
      <point x="326" y="550"/>
      <point x="319" y="550" type="curve" smooth="yes"/>
      <point x="267" y="550"/>
      <point x="157" y="550"/>
    </contour>
    <contour>
      <point x="473" y="560" type="curve" smooth="yes"/>
      <point x="413" y="560"/>
      <point x="374" y="528"/>
      <point x="329" y="466" type="curve"/>
      <point x="298" y="466" type="line"/>
      <point x="268" y="346" type="line"/>
      <point x="291" y="364"/>
      <point x="310" y="367"/>
      <point x="327" y="367" type="curve" smooth="yes"/>
      <point x="341" y="367"/>
      <point x="351" y="364"/>
      <point x="356" y="356" type="curve" smooth="yes"/>
      <point x="362" y="348"/>
      <point x="363" y="335"/>
      <point x="358" y="317" type="curve" smooth="yes"/>
      <point x="334" y="220" type="line" smooth="yes"/>
      <point x="325" y="184"/>
      <point x="306" y="170"/>
      <point x="277" y="170" type="curve" smooth="yes"/>
      <point x="247" y="170"/>
      <point x="228" y="178"/>
      <point x="208" y="200" type="curve"/>
      <point x="170" y="64" type="line"/>
      <point x="229" y="64" type="line"/>
      <point x="254" y="19"/>
      <point x="298" y="-10"/>
      <point x="359" y="-10" type="curve" smooth="yes"/>
      <point x="452" y="-10"/>
      <point x="511" y="35"/>
      <point x="549" y="190" type="curve" smooth="yes"/>
      <point x="587" y="344" type="line" smooth="yes"/>
      <point x="621" y="481"/>
      <point x="563" y="560"/>
    </contour>
  </outline>
</glyph>
<glyph name="q" format="2">
  <advance width="600.0"/>
  <unicode hex="0071"/>
  <outline>
    <contour>
      <point x="409.0" y="550.0" type="curve"/>
      <point x="399.0" y="513.0"/>
      <point x="390.0" y="477.0"/>
      <point x="381.0" y="440.0" type="curve"/>
      <point x="329.0" y="231.0"/>
      <point x="276.0" y="20.0"/>
      <point x="224.0" y="-189.0" type="curve"/>
      <point x="222.0" y="-196.0"/>
      <point x="225.0" y="-200.0"/>
      <point x="232.0" y="-200.0" type="curve"/>
      <point x="303.0" y="-200.0"/>
      <point x="375.0" y="-200.0"/>
      <point x="446.0" y="-200.0" type="curve"/>
      <point x="458.0" y="-150.0"/>
      <point x="471.0" y="-99.0"/>
      <point x="484.0" y="-49.0" type="curve" smooth="yes"/>
      <point x="533.0" y="147.0"/>
      <point x="582.0" y="343.0"/>
      <point x="631.0" y="539.0" type="curve"/>
      <point x="633.0" y="546.0"/>
      <point x="630.0" y="550.0"/>
      <point x="623.0" y="550.0" type="curve"/>
      <point x="555.0" y="550.0"/>
      <point x="477.0" y="550.0"/>
    </contour>
    <contour>
      <point x="299.0" y="87.0" type="line"/>
      <point x="334.0" y="196.0" type="line"/>
      <point x="317.0" y="188.0"/>
      <point x="297.0" y="184.0"/>
      <point x="274.0" y="184.0" type="curve" smooth="yes"/>
      <point x="257.0" y="184.0"/>
      <point x="247.0" y="187.0"/>
      <point x="242.0" y="194.0" type="curve" smooth="yes"/>
      <point x="237.0" y="200.0"/>
      <point x="237.0" y="210.0"/>
      <point x="240.0" y="224.0" type="curve" smooth="yes"/>
      <point x="267.0" y="331.0" type="line" smooth="yes"/>
      <point x="277.0" y="372.0"/>
      <point x="294.0" y="380.0"/>
      <point x="323.0" y="380.0" type="curve" smooth="yes"/>
      <point x="347.0" y="380.0"/>
      <point x="361.0" y="373.0"/>
      <point x="370.0" y="363.0" type="curve"/>
      <point x="395.0" y="474.0" type="line"/>
      <point x="370.0" y="474.0" type="line"/>
      <point x="355.0" y="511.0"/>
      <point x="323.0" y="560.0"/>
      <point x="244.0" y="560.0" type="curve" smooth="yes"/>
      <point x="157.0" y="560.0"/>
      <point x="90.0" y="516.0"/>
      <point x="54.0" y="367.0" type="curve" smooth="yes"/>
      <point x="12.0" y="202.0" type="line" smooth="yes"/>
      <point x="-21.0" y="68.0"/>
      <point x="18.0" y="-10.0"/>
      <point x="125.0" y="-10.0" type="curve" smooth="yes"/>
      <point x="204.0" y="-10.0"/>
      <point x="243.0" y="30.0"/>
      <point x="273.0" y="87.0" type="curve"/>
    </contour>
  </outline>
</glyph>
<glyph name="r" format="2">
  <advance width="600"/>
  <unicode hex="0072"/>
  <anchor x="400" y="550" name="top"/>
  <anchor x="90" y="-1" name="bottom"/>
  <outline>
    <contour>
      <point x="301" y="424" type="line"/>
      <point x="261" y="264" type="line"/>
      <point x="324" y="301"/>
      <point x="374" y="313"/>
      <point x="443" y="313" type="curve"/>
      <point x="489" y="313"/>
      <point x="519" y="303"/>
      <point x="548" y="287" type="curve"/>
      <point x="568" y="287" type="line"/>
      <point x="587" y="363"/>
      <point x="610" y="452"/>
      <point x="629" y="528" type="curve" smooth="yes"/>
      <point x="630" y="535"/>
      <point x="630" y="537"/>
      <point x="626" y="541" type="curve" smooth="yes"/>
      <point x="617" y="550"/>
      <point x="589" y="560"/>
      <point x="550" y="560" type="curve"/>
      <point x="471" y="560"/>
      <point x="403" y="528"/>
      <point x="341" y="424" type="curve"/>
    </contour>
    <contour>
      <point x="212" y="0" type="curve"/>
      <point x="257" y="179"/>
      <point x="302" y="360"/>
      <point x="347" y="539" type="curve"/>
      <point x="349" y="546"/>
      <point x="346" y="550"/>
      <point x="339" y="550" type="curve" smooth="yes"/>
      <point x="290" y="550"/>
      <point x="181" y="550"/>
      <point x="122" y="550" type="curve"/>
      <point x="115" y="522"/>
      <point x="107" y="488"/>
      <point x="98" y="452" type="curve" smooth="yes"/>
      <point x="61" y="305"/>
      <point x="25" y="158"/>
      <point x="-12" y="11" type="curve" smooth="yes"/>
      <point x="-14" y="4"/>
      <point x="-11" y="0"/>
      <point x="-4" y="0" type="curve" smooth="yes"/>
      <point x="49" y="0"/>
      <point x="158" y="0"/>
    </contour>
  </outline>
</glyph>
<glyph name="s" format="2">
  <advance width="600"/>
  <unicode hex="0073"/>
  <anchor x="395.0" y="550" name="top"/>
  <anchor x="243.0" y="-1" name="bottom"/>
  <outline>
    <contour>
      <point x="266" y="163" type="curve" smooth="yes"/>
      <point x="162" y="163"/>
      <point x="91" y="173"/>
      <point x="29" y="198" type="curve"/>
      <point x="9" y="198" type="line"/>
      <point x="-5" y="141"/>
      <point x="-20" y="85"/>
      <point x="-34" y="28" type="curve" smooth="yes"/>
      <point x="-35" y="24"/>
      <point x="-33" y="21"/>
      <point x="-29" y="19" type="curve" smooth="yes"/>
      <point x="-19" y="14"/>
      <point x="99" y="-12"/>
      <point x="213" y="-12" type="curve" smooth="yes"/>
      <point x="423" y="-12"/>
      <point x="519" y="35"/>
      <point x="551" y="166" type="curve" smooth="yes"/>
      <point x="571" y="247"/>
      <point x="523" y="307"/>
      <point x="429" y="319" type="curve" smooth="yes"/>
      <point x="297" y="336" type="line" smooth="yes"/>
      <point x="265" y="340"/>
      <point x="249" y="344"/>
      <point x="253" y="362" type="curve" smooth="yes"/>
      <point x="258.0" y="380.0"/>
      <point x="280.0" y="387"/>
      <point x="343" y="387" type="curve" smooth="yes"/>
      <point x="428.0" y="387"/>
      <point x="477.0" y="378.0"/>
      <point x="548" y="359" type="curve"/>
      <point x="568" y="359" type="line"/>
      <point x="582" y="414"/>
      <point x="596" y="470"/>
      <point x="610" y="524" type="curve"/>
      <point x="611" y="528"/>
      <point x="609" y="531"/>
      <point x="605" y="533" type="curve" smooth="yes"/>
      <point x="592.0" y="540.0"/>
      <point x="507.0" y="563"/>
      <point x="403" y="563" type="curve" smooth="yes"/>
      <point x="194.0" y="563"/>
      <point x="92.0" y="513.0"/>
      <point x="60" y="383" type="curve" smooth="yes"/>
      <point x="40" y="302"/>
      <point x="88" y="245"/>
      <point x="188" y="231" type="curve" smooth="yes"/>
      <point x="321" y="212" type="line" smooth="yes"/>
      <point x="357" y="207"/>
      <point x="367" y="200"/>
      <point x="365" y="190" type="curve" smooth="yes"/>
      <point x="362" y="177"/>
      <point x="342" y="163"/>
    </contour>
  </outline>
</glyph>
<glyph name="t" format="2">
  <advance width="600"/>
  <unicode hex="0074"/>
  <anchor x="338.0" y="0" name="bottom"/>
  <anchor x="513" y="700" name="caronslovak"/>
  <outline>
    <contour>
      <point x="88" y="550" type="line"/>
      <point x="77" y="505"/>
      <point x="50" y="400"/>
      <point x="38" y="355" type="curve" smooth="yes"/>
      <point x="36" y="348"/>
      <point x="39" y="344"/>
      <point x="46" y="344" type="curve" smooth="yes"/>
      <point x="585" y="344" type="line"/>
      <point x="597" y="389"/>
      <point x="624" y="494"/>
      <point x="635" y="539" type="curve" smooth="yes"/>
      <point x="637" y="546"/>
      <point x="634" y="550"/>
      <point x="627" y="550" type="curve" smooth="yes"/>
    </contour>
    <contour>
      <point x="552" y="206" type="curve"/>
      <point x="532" y="206" type="line"/>
      <point x="492" y="206"/>
      <point x="451" y="206"/>
      <point x="411" y="206" type="curve" smooth="yes"/>
      <point x="393" y="206"/>
      <point x="381" y="210"/>
      <point x="375" y="217" type="curve" smooth="yes"/>
      <point x="369" y="224"/>
      <point x="369" y="234"/>
      <point x="372" y="248" type="curve"/>
      <point x="409" y="395"/>
      <point x="446" y="542"/>
      <point x="483" y="689" type="curve" smooth="yes"/>
      <point x="485" y="696"/>
      <point x="482" y="700"/>
      <point x="475" y="700" type="curve"/>
      <point x="404" y="700"/>
      <point x="332" y="700"/>
      <point x="261" y="700" type="curve"/>
      <point x="253" y="670"/>
      <point x="245" y="639"/>
      <point x="238" y="609" type="curve" smooth="yes"/>
      <point x="207" y="484"/>
      <point x="176" y="360"/>
      <point x="144" y="235" type="curve"/>
      <point x="108" y="93"/>
      <point x="185" y="0"/>
      <point x="327" y="0" type="curve" smooth="yes"/>
      <point x="381" y="0"/>
      <point x="483" y="0"/>
      <point x="490" y="0" type="curve" smooth="yes"/>
      <point x="498" y="0"/>
      <point x="501" y="3"/>
      <point x="503" y="11" type="curve" smooth="yes"/>
      <point x="521" y="75"/>
      <point x="535" y="141"/>
    </contour>
  </outline>
</glyph>
<glyph name="u" format="2">
  <advance width="600.0"/>
  <unicode hex="0075"/>
  <outline>
    <contour>
      <point x="94.0" y="550.0" type="curve"/>
      <point x="86.0" y="517.0"/>
      <point x="78.0" y="485.0"/>
      <point x="70.0" y="452.0" type="curve" smooth="yes"/>
      <point x="45.0" y="354.0"/>
      <point x="24.0" y="273.0"/>
      <point x="0.0" y="175.0" type="curve" smooth="yes"/>
      <point x="-28.0" y="64.0"/>
      <point x="12.0" y="-10.0"/>
      <point x="100.0" y="-10.0" type="curve" smooth="yes"/>
      <point x="164.0" y="-10.0"/>
      <point x="223.0" y="22.0"/>
      <point x="277.0" y="86.0" type="curve"/>
      <point x="319.0" y="86.0" type="line"/>
      <point x="339.0" y="216.0" type="line"/>
      <point x="297.0" y="188.0"/>
      <point x="274.0" y="180.0"/>
      <point x="251.0" y="180.0" type="curve" smooth="yes"/>
      <point x="233.0" y="180.0"/>
      <point x="229.0" y="190.0"/>
      <point x="233.0" y="208.0" type="curve" smooth="yes"/>
      <point x="261.0" y="318.0"/>
      <point x="289.0" y="429.0"/>
      <point x="316.0" y="539.0" type="curve" smooth="yes"/>
      <point x="318.0" y="546.0"/>
      <point x="315.0" y="550.0"/>
      <point x="308.0" y="550.0" type="curve" smooth="yes"/>
      <point x="237.0" y="550.0"/>
      <point x="165.0" y="550.0"/>
    </contour>
    <contour>
      <point x="399.0" y="550.0" type="curve"/>
      <point x="366.0" y="416.0"/>
      <point x="331.0" y="279.0"/>
      <point x="298.0" y="145.0" type="curve" smooth="yes"/>
      <point x="277.0" y="61.0"/>
      <point x="332.0" y="-5.0"/>
      <point x="427.0" y="-5.0" type="curve" smooth="yes"/>
      <point x="456.0" y="-5.0"/>
      <point x="485.0" y="-5.0"/>
      <point x="514.0" y="-5.0" type="curve" smooth="yes"/>
      <point x="521.0" y="-5.0"/>
      <point x="526.0" y="-1.0"/>
      <point x="528.0" y="6.0" type="curve" smooth="yes"/>
      <point x="543.0" y="66.0"/>
      <point x="558.0" y="127.0"/>
      <point x="573.0" y="187.0" type="curve"/>
      <point x="549.0" y="187.0" type="line"/>
      <point x="547.0" y="187.0"/>
      <point x="546.0" y="187.0"/>
      <point x="544.0" y="187.0" type="curve" smooth="yes"/>
      <point x="540.0" y="187.0"/>
      <point x="538.0" y="188.0"/>
      <point x="537.0" y="190.0" type="curve" smooth="yes"/>
      <point x="535.0" y="192.0"/>
      <point x="535.0" y="195.0"/>
      <point x="536.0" y="199.0" type="curve" smooth="yes"/>
      <point x="565.0" y="313.0"/>
      <point x="593.0" y="425.0"/>
      <point x="621.0" y="539.0" type="curve" smooth="yes"/>
      <point x="623.0" y="546.0"/>
      <point x="620.0" y="550.0"/>
      <point x="613.0" y="550.0" type="curve" smooth="yes"/>
      <point x="560.0" y="550.0"/>
      <point x="453.0" y="550.0"/>
    </contour>
  </outline>
</glyph>
<glyph name="v" format="2">
  <advance width="600.0"/>
  <unicode hex="0076"/>
  <outline>
    <contour>
      <point x="79.0" y="550.0" type="curve"/>
      <point x="63.0" y="486.0"/>
      <point x="48.0" y="425.0"/>
      <point x="32.0" y="361.0" type="curve" smooth="yes"/>
      <point x="30.0" y="354.0"/>
      <point x="33.0" y="350.0"/>
      <point x="40.0" y="350.0" type="curve" smooth="yes"/>
      <point x="51.0" y="350.0"/>
      <point x="63.0" y="350.0"/>
      <point x="74.0" y="350.0" type="curve"/>
      <point x="88.0" y="350.0" type="line"/>
      <point x="64.0" y="257.0"/>
      <point x="31.0" y="124.0"/>
      <point x="3.0" y="11.0" type="curve" smooth="yes"/>
      <point x="1.0" y="4.0"/>
      <point x="4.0" y="0.0"/>
      <point x="11.0" y="0.0" type="curve" smooth="yes"/>
      <point x="214.0" y="0.0" type="line"/>
      <point x="414.0" y="0.0"/>
      <point x="537.0" y="100.0"/>
      <point x="586.0" y="307.0" type="curve" smooth="yes"/>
      <point x="591.0" y="328.0" type="line" smooth="yes"/>
      <point x="616.0" y="428.0"/>
      <point x="615.0" y="509.0"/>
      <point x="588.0" y="545.0" type="curve" smooth="yes"/>
      <point x="586.0" y="547.0"/>
      <point x="581.0" y="550.0"/>
      <point x="575.0" y="550.0" type="curve" smooth="yes"/>
      <point x="518.0" y="550.0"/>
      <point x="460.0" y="550.0"/>
      <point x="404.0" y="550.0" type="curve"/>
      <point x="399.0" y="530.0" type="line"/>
      <point x="417.0" y="481.0"/>
      <point x="416.0" y="439.0"/>
      <point x="393.0" y="339.0" type="curve" smooth="yes"/>
      <point x="387.0" y="313.0" type="line" smooth="yes"/>
      <point x="367.0" y="228.0"/>
      <point x="324.0" y="190.0"/>
      <point x="271.0" y="190.0" type="curve"/>
      <point x="253.0" y="190.0" type="line"/>
      <point x="257.0" y="209.0"/>
      <point x="262.0" y="229.0"/>
      <point x="267.0" y="248.0" type="curve" smooth="yes"/>
      <point x="292.0" y="345.0"/>
      <point x="316.0" y="442.0"/>
      <point x="340.0" y="539.0" type="curve" smooth="yes"/>
      <point x="342.0" y="546.0"/>
      <point x="339.0" y="550.0"/>
      <point x="332.0" y="550.0" type="curve" smooth="yes"/>
      <point x="247.0" y="550.0"/>
      <point x="163.0" y="550.0"/>
    </contour>
  </outline>
</glyph>
<glyph name="w" format="2">
  <advance width="600.0"/>
  <unicode hex="0077"/>
  <outline>
    <contour>
      <point x="274.0" y="425.0" type="curve"/>
      <point x="253.0" y="341.0"/>
      <point x="232.0" y="259.0"/>
      <point x="211.0" y="175.0" type="curve" smooth="yes"/>
      <point x="177.0" y="38.0"/>
      <point x="213.0" y="-10.0"/>
      <point x="339.0" y="-10.0" type="curve" smooth="yes"/>
      <point x="355.0" y="-10.0" type="line" smooth="yes"/>
      <point x="442.0" y="-10.0"/>
      <point x="521.0" y="23.0"/>
      <point x="565.0" y="198.0" type="curve" smooth="yes"/>
      <point x="597.0" y="327.0" type="line" smooth="yes"/>
      <point x="626.0" y="443.0"/>
      <point x="632.0" y="513.0"/>
      <point x="608.0" y="545.0" type="curve" smooth="yes"/>
      <point x="607.0" y="547.0"/>
      <point x="601.0" y="550.0"/>
      <point x="595.0" y="550.0" type="curve" smooth="yes"/>
      <point x="545.0" y="550.0"/>
      <point x="493.0" y="550.0"/>
      <point x="443.0" y="550.0" type="curve"/>
      <point x="438.0" y="530.0" type="line"/>
      <point x="461.0" y="477.0"/>
      <point x="455.0" y="433.0"/>
      <point x="427.0" y="323.0" type="curve" smooth="yes"/>
      <point x="392.0" y="185.0" type="line" smooth="yes"/>
      <point x="388.0" y="170.0"/>
      <point x="378.0" y="160.0"/>
      <point x="365.0" y="160.0" type="curve"/>
      <point x="362.0" y="160.0" type="line" smooth="yes"/>
      <point x="347.0" y="160.0"/>
      <point x="342.0" y="170.0"/>
      <point x="345.0" y="185.0" type="curve" smooth="yes"/>
      <point x="365.0" y="262.0"/>
      <point x="384.0" y="337.0"/>
      <point x="403.0" y="414.0" type="curve" smooth="yes"/>
      <point x="405.0" y="421.0"/>
      <point x="402.0" y="425.0"/>
      <point x="395.0" y="425.0" type="curve" smooth="yes"/>
      <point x="354.0" y="425.0"/>
      <point x="314.0" y="425.0"/>
    </contour>
    <contour>
      <point x="84.0" y="550.0" type="curve"/>
      <point x="76.0" y="516.0"/>
      <point x="68.0" y="483.0"/>
      <point x="59.0" y="449.0" type="curve" smooth="yes"/>
      <point x="21.0" y="297.0"/>
      <point x="-16.0" y="154.0"/>
      <point x="-55.0" y="1.0" type="curve" smooth="yes"/>
      <point x="-57.0" y="-6.0"/>
      <point x="-54.0" y="-10.0"/>
      <point x="-47.0" y="-10.0" type="curve" smooth="yes"/>
      <point x="35.0" y="-10.0" type="line" smooth="yes"/>
      <point x="115.0" y="-10.0"/>
      <point x="162.0" y="35.0"/>
      <point x="197.0" y="83.0" type="curve"/>
      <point x="232.0" y="83.0" type="line"/>
      <point x="235.0" y="195.0" type="line"/>
      <point x="205.0" y="171.0"/>
      <point x="189.0" y="160.0"/>
      <point x="168.0" y="160.0" type="curve"/>
      <point x="163.0" y="160.0" type="line"/>
      <point x="169.0" y="184.0"/>
      <point x="177.0" y="216.0"/>
      <point x="183.0" y="240.0" type="curve" smooth="yes"/>
      <point x="210.0" y="345.0"/>
      <point x="233.0" y="435.0"/>
      <point x="260.0" y="539.0" type="curve" smooth="yes"/>
      <point x="261.0" y="546.0"/>
      <point x="258.0" y="550.0"/>
      <point x="252.0" y="550.0" type="curve" smooth="yes"/>
      <point x="197.0" y="550.0"/>
      <point x="140.0" y="550.0"/>
    </contour>
  </outline>
</glyph>
<glyph name="x" format="2">
  <advance width="600.0"/>
  <unicode hex="0078"/>
  <outline>
    <contour>
      <point x="99.0" y="550.0" type="curve"/>
      <point x="87.0" y="501.0"/>
      <point x="68.0" y="425.0"/>
      <point x="54.0" y="369.0" type="curve" smooth="yes"/>
      <point x="52.0" y="362.0"/>
      <point x="55.0" y="358.0"/>
      <point x="62.0" y="358.0" type="curve" smooth="yes"/>
      <point x="83.0" y="358.0"/>
      <point x="102.0" y="358.0"/>
      <point x="123.0" y="358.0" type="curve"/>
      <point x="139.0" y="358.0" type="line"/>
      <point x="189.0" y="266.0"/>
      <point x="240.0" y="173.0"/>
      <point x="290.0" y="81.0" type="curve" smooth="yes"/>
      <point x="322.0" y="20.0"/>
      <point x="338.0" y="0.0"/>
      <point x="393.0" y="0.0" type="curve" smooth="yes"/>
      <point x="415.0" y="0.0"/>
      <point x="469.0" y="0.0"/>
      <point x="492.0" y="0.0" type="curve" smooth="yes"/>
      <point x="505.0" y="0.0"/>
      <point x="509.0" y="5.0"/>
      <point x="513.0" y="18.0" type="curve" smooth="yes"/>
      <point x="517.0" y="36.0"/>
      <point x="552.0" y="175.0"/>
      <point x="556.0" y="191.0" type="curve"/>
      <point x="542.0" y="191.0" type="line"/>
      <point x="521.0" y="191.0"/>
      <point x="499.0" y="191.0"/>
      <point x="475.0" y="191.0" type="curve" smooth="yes"/>
      <point x="466.0" y="191.0"/>
      <point x="460.0" y="194.0"/>
      <point x="455.0" y="204.0" type="curve" smooth="yes"/>
      <point x="395.0" y="315.0"/>
      <point x="335.0" y="427.0"/>
      <point x="276.0" y="538.0" type="curve" smooth="yes"/>
      <point x="271.0" y="547.0"/>
      <point x="267.0" y="550.0"/>
      <point x="260.0" y="550.0" type="curve" smooth="yes"/>
      <point x="224.0" y="550.0"/>
      <point x="135.0" y="550.0"/>
    </contour>
    <contour>
      <point x="419.0" y="550.0" type="curve"/>
      <point x="404.0" y="516.0"/>
      <point x="389.0" y="459.0"/>
      <point x="376.0" y="389.0" type="curve"/>
      <point x="309.0" y="389.0" type="line"/>
      <point x="391.0" y="237.0" type="line"/>
      <point x="470.0" y="328.0"/>
      <point x="565.0" y="437.0"/>
      <point x="645.0" y="531.0" type="curve" smooth="yes"/>
      <point x="648.0" y="534.0"/>
      <point x="651.0" y="538.0"/>
      <point x="652.0" y="541.0" type="curve" smooth="yes"/>
      <point x="653.0" y="546.0"/>
      <point x="651.0" y="550.0"/>
      <point x="644.0" y="550.0" type="curve" smooth="yes"/>
      <point x="563.0" y="550.0"/>
      <point x="500.0" y="550.0"/>
    </contour>
    <contour>
      <point x="206.0" y="313.0" type="line"/>
      <point x="122.0" y="216.0"/>
      <point x="22.0" y="97.0"/>
      <point x="-58.0" y="0.0" type="curve"/>
      <point x="-13.0" y="0.0"/>
      <point x="89.0" y="0.0"/>
      <point x="163.0" y="0.0" type="curve" smooth="yes"/>
      <point x="178.0" y="0.0"/>
      <point x="189.0" y="2.0"/>
      <point x="194.0" y="15.0" type="curve" smooth="yes"/>
      <point x="211.0" y="59.0"/>
      <point x="224.0" y="102.0"/>
      <point x="233.0" y="149.0" type="curve"/>
      <point x="289.0" y="149.0" type="line"/>
    </contour>
  </outline>
</glyph>
<glyph name="y" format="2">
  <advance width="600"/>
  <unicode hex="0079"/>
  <anchor x="353" y="550" name="top"/>
  <outline>
    <contour>
      <point x="640" y="550" type="curve" smooth="yes"/>
      <point x="589" y="550"/>
      <point x="461" y="550"/>
      <point x="417" y="550" type="curve"/>
      <point x="345" y="373"/>
      <point x="263" y="175"/>
      <point x="191" y="-2" type="curve" smooth="yes"/>
      <point x="181" y="-25"/>
      <point x="173" y="-31"/>
      <point x="148" y="-31" type="curve" smooth="yes"/>
      <point x="102" y="-31"/>
      <point x="57" y="-31"/>
      <point x="11" y="-31" type="curve"/>
      <point x="-9" y="-31" type="line"/>
      <point x="-45" y="-188" type="line" smooth="yes"/>
      <point x="-47" y="-196"/>
      <point x="-44" y="-200"/>
      <point x="-37" y="-200" type="curve" smooth="yes"/>
      <point x="-27" y="-200"/>
      <point x="64" y="-200"/>
      <point x="114" y="-200" type="curve" smooth="yes"/>
      <point x="249" y="-200"/>
      <point x="309" y="-153"/>
      <point x="380" y="-12" type="curve" smooth="yes"/>
      <point x="469" y="170"/>
      <point x="555" y="348"/>
      <point x="646" y="534" type="curve" smooth="yes"/>
      <point x="650" y="544"/>
      <point x="647" y="550"/>
    </contour>
    <contour>
      <point x="277" y="550" type="curve" smooth="yes"/>
      <point x="221" y="550"/>
      <point x="125" y="550"/>
      <point x="79" y="550" type="curve"/>
      <point x="71" y="378"/>
      <point x="63" y="64"/>
      <point x="63" y="51" type="curve" smooth="yes"/>
      <point x="63" y="44"/>
      <point x="67" y="40"/>
      <point x="75" y="40" type="curve" smooth="yes"/>
      <point x="256" y="40" type="line"/>
      <point x="345" y="216" type="line"/>
      <point x="262" y="216" type="line"/>
      <point x="270" y="304"/>
      <point x="281" y="436"/>
      <point x="290" y="535" type="curve" smooth="yes"/>
      <point x="291" y="543"/>
      <point x="286" y="550"/>
    </contour>
  </outline>
</glyph>
<glyph name="z" format="2">
  <advance width="600.0"/>
  <unicode hex="007A"/>
  <outline>
    <contour>
      <point x="147.0" y="550.0" type="line"/>
      <point x="132.0" y="490.0"/>
      <point x="120.0" y="441.0"/>
      <point x="105.0" y="381.0" type="curve" smooth="yes"/>
      <point x="103.0" y="374.0"/>
      <point x="106.0" y="370.0"/>
      <point x="113.0" y="370.0" type="curve" smooth="yes"/>
      <point x="275.0" y="370.0" type="line" smooth="yes"/>
      <point x="338.0" y="370.0"/>
      <point x="365.0" y="380.0"/>
      <point x="405.0" y="404.0" type="curve"/>
      <point x="405.0" y="385.0" type="line"/>
      <point x="311.0" y="329.0"/>
      <point x="141.0" y="228.0"/>
      <point x="-5.0" y="142.0" type="curve"/>
      <point x="-41.0" y="-2.0" type="line" smooth="yes"/>
      <point x="-42.0" y="-8.0"/>
      <point x="-39.0" y="-13.0"/>
      <point x="-33.0" y="-13.0" type="curve" smooth="yes"/>
      <point x="-29.0" y="-13.0"/>
      <point x="-24.0" y="-12.0"/>
      <point x="-17.0" y="-7.0" type="curve" smooth="yes"/>
      <point x="186.0" y="122.0"/>
      <point x="432.0" y="278.0"/>
      <point x="594.0" y="379.0" type="curve"/>
      <point x="634.0" y="539.0" type="line" smooth="yes"/>
      <point x="635.0" y="545.0"/>
      <point x="632.0" y="550.0"/>
      <point x="625.0" y="550.0" type="curve" smooth="yes"/>
    </contour>
    <contour>
      <point x="267.0" y="208.0" type="line"/>
      <point x="98.0" y="92.0" type="line"/>
      <point x="149.0" y="18.0"/>
      <point x="204.0" y="0.0"/>
      <point x="297.0" y="0.0" type="curve" smooth="yes"/>
      <point x="346.0" y="0.0"/>
      <point x="484.0" y="0.0"/>
      <point x="492.0" y="0.0" type="curve" smooth="yes"/>
      <point x="499.0" y="0.0"/>
      <point x="504.0" y="4.0"/>
      <point x="505.0" y="11.0" type="curve" smooth="yes"/>
      <point x="522.0" y="79.0"/>
      <point x="539.0" y="146.0"/>
      <point x="556.0" y="214.0" type="curve"/>
      <point x="536.0" y="214.0" type="line"/>
      <point x="516.0" y="214.0"/>
      <point x="494.0" y="214.0"/>
      <point x="474.0" y="214.0" type="curve" smooth="yes"/>
      <point x="409.0" y="214.0"/>
      <point x="370.0" y="207.0"/>
      <point x="267.0" y="151.0" type="curve"/>
    </contour>
    <contour>
      <point x="110.0" y="580.0" type="line"/>
      <point x="95.0" y="523.0"/>
      <point x="62.0" y="388.0"/>
      <point x="47.0" y="330.0" type="curve" smooth="yes"/>
      <point x="45.0" y="323.0"/>
      <point x="48.0" y="319.0"/>
      <point x="55.0" y="319.0" type="curve" smooth="yes"/>
      <point x="106.0" y="319.0"/>
      <point x="172.0" y="319.0"/>
      <point x="223.0" y="319.0" type="curve"/>
      <point x="238.0" y="377.0"/>
      <point x="271.0" y="511.0"/>
      <point x="286.0" y="569.0" type="curve" smooth="yes"/>
      <point x="288.0" y="576.0"/>
      <point x="285.0" y="580.0"/>
      <point x="278.0" y="580.0" type="curve" smooth="yes"/>
    </contour>
  </outline>
</glyph>
<glyph name="braceleft" format="2">
  <advance width="600.0"/>
  <unicode hex="007B"/>
  <outline>
    <contour>
      <point x="391.0" y="167.0" type="curve" smooth="yes"/>
      <point x="407.0" y="221.0"/>
      <point x="386.0" y="258.0"/>
      <point x="313.0" y="281.0" type="curve"/>
      <point x="318.0" y="301.0" type="line"/>
      <point x="393.0" y="306.0"/>
      <point x="433.0" y="328.0"/>
      <point x="446.0" y="386.0" type="curve" smooth="yes"/>
      <point x="458.0" y="438.0"/>
      <point x="451.0" y="499.0"/>
      <point x="458.0" y="556.0" type="curve" smooth="yes"/>
      <point x="459.0" y="562.0"/>
      <point x="459.0" y="569.0"/>
      <point x="461.0" y="577.0" type="curve"/>
      <point x="467.0" y="577.0"/>
      <point x="473.0" y="577.0"/>
      <point x="479.0" y="577.0" type="curve" smooth="yes"/>
      <point x="503.0" y="577.0"/>
      <point x="554.0" y="577.0"/>
      <point x="592.0" y="577.0" type="curve"/>
      <point x="609.0" y="577.0" type="line"/>
      <point x="624.0" y="634.0"/>
      <point x="638.0" y="692.0"/>
      <point x="652.0" y="749.0" type="curve" smooth="yes"/>
      <point x="654.0" y="756.0"/>
      <point x="651.0" y="760.0"/>
      <point x="644.0" y="760.0" type="curve" smooth="yes"/>
      <point x="456.0" y="760.0" type="line" smooth="yes"/>
      <point x="341.0" y="760.0"/>
      <point x="293.0" y="717.0"/>
      <point x="274.0" y="640.0" type="curve" smooth="yes"/>
      <point x="270.0" y="622.0" type="line" smooth="yes"/>
      <point x="255.0" y="553.0"/>
      <point x="279.0" y="504.0"/>
      <point x="266.0" y="450.0" type="curve" smooth="yes"/>
      <point x="257.0" y="412.0"/>
      <point x="229.0" y="400.0"/>
      <point x="184.0" y="400.0" type="curve" smooth="yes"/>
      <point x="81.0" y="400.0" type="line"/>
      <point x="65.0" y="337.0"/>
      <point x="50.0" y="274.0"/>
      <point x="34.0" y="211.0" type="curve" smooth="yes"/>
      <point x="32.0" y="204.0"/>
      <point x="35.0" y="200.0"/>
      <point x="42.0" y="200.0" type="curve" smooth="yes"/>
      <point x="141.0" y="200.0" type="line" smooth="yes"/>
      <point x="186.0" y="200.0"/>
      <point x="197.0" y="177.0"/>
      <point x="190.0" y="149.0" type="curve" smooth="yes"/>
      <point x="175.0" y="90.0"/>
      <point x="119.0" y="34.0"/>
      <point x="107.0" y="-28.0" type="curve" smooth="yes"/>
      <point x="105.0" y="-38.0" type="line" smooth="yes"/>
      <point x="88.0" y="-123.0"/>
      <point x="130.0" y="-161.0"/>
      <point x="214.0" y="-161.0" type="curve" smooth="yes"/>
      <point x="414.0" y="-161.0" type="line" smooth="yes"/>
      <point x="421.0" y="-161.0"/>
      <point x="426.0" y="-157.0"/>
      <point x="427.0" y="-150.0" type="curve" smooth="yes"/>
      <point x="441.0" y="-94.0"/>
      <point x="456.0" y="-35.0"/>
      <point x="470.0" y="22.0" type="curve"/>
      <point x="442.0" y="22.0" type="line"/>
      <point x="408.0" y="22.0"/>
      <point x="358.0" y="22.0"/>
      <point x="340.0" y="22.0" type="curve" smooth="yes"/>
      <point x="334.0" y="22.0"/>
      <point x="328.0" y="22.0"/>
      <point x="322.0" y="22.0" type="curve"/>
      <point x="325.0" y="31.0"/>
      <point x="328.0" y="39.0"/>
      <point x="331.0" y="47.0" type="curve" smooth="yes"/>
      <point x="345.0" y="80.0"/>
      <point x="376.0" y="115.0"/>
    </contour>
  </outline>
</glyph>
<glyph name="bar" format="2">
  <advance width="600.0"/>
  <unicode hex="007C"/>
  <outline>
    <contour>
      <point x="307.0" y="760.0" type="curve"/>
      <point x="297.0" y="722.0"/>
      <point x="288.0" y="686.0"/>
      <point x="279.0" y="648.0" type="curve" smooth="yes"/>
      <point x="213.0" y="383.0"/>
      <point x="146.0" y="117.0"/>
      <point x="80.0" y="-148.0" type="curve" smooth="yes"/>
      <point x="78.0" y="-155.0"/>
      <point x="81.0" y="-159.0"/>
      <point x="88.0" y="-159.0" type="curve"/>
      <point x="161.0" y="-159.0"/>
      <point x="232.0" y="-159.0"/>
      <point x="305.0" y="-159.0" type="curve"/>
      <point x="381.0" y="143.0"/>
      <point x="456.0" y="447.0"/>
      <point x="532.0" y="749.0" type="curve" smooth="yes"/>
      <point x="534.0" y="756.0"/>
      <point x="531.0" y="760.0"/>
      <point x="524.0" y="760.0" type="curve" smooth="yes"/>
      <point x="451.0" y="760.0"/>
      <point x="380.0" y="760.0"/>
    </contour>
  </outline>
</glyph>
<glyph name="asciitilde" format="2">
  <advance width="600.0"/>
  <unicode hex="007E"/>
  <outline>
    <contour>
      <point x="463.0" y="370.0" type="curve" smooth="yes"/>
      <point x="370.0" y="370.0"/>
      <point x="335.0" y="470.0"/>
      <point x="220.0" y="470.0" type="curve" smooth="yes"/>
      <point x="170.0" y="470.0"/>
      <point x="127.0" y="457.0"/>
      <point x="105.0" y="435.0" type="curve" smooth="yes"/>
      <point x="96.0" y="426.0"/>
      <point x="93.0" y="422.0"/>
      <point x="90.0" y="408.0" type="curve" smooth="yes"/>
      <point x="86.0" y="393.0"/>
      <point x="53.0" y="247.0"/>
      <point x="39.0" y="191.0" type="curve"/>
      <point x="59.0" y="191.0" type="line"/>
      <point x="88.0" y="216.0"/>
      <point x="116.0" y="228.0"/>
      <point x="157.0" y="228.0" type="curve" smooth="yes"/>
      <point x="246.0" y="228.0"/>
      <point x="293.0" y="128.0"/>
      <point x="403.0" y="128.0" type="curve" smooth="yes"/>
      <point x="446.0" y="128.0"/>
      <point x="481.0" y="136.0"/>
      <point x="506.0" y="161.0" type="curve" smooth="yes"/>
      <point x="516.0" y="171.0"/>
      <point x="517.0" y="173.0"/>
      <point x="521.0" y="188.0" type="curve" smooth="yes"/>
      <point x="525.0" y="204.0"/>
      <point x="562.0" y="351.0"/>
      <point x="576.0" y="407.0" type="curve"/>
      <point x="556.0" y="407.0" type="line"/>
      <point x="526.0" y="378.0"/>
      <point x="496.0" y="370.0"/>
    </contour>
  </outline>
</glyph>
<glyph name="cent" format="2">
  <advance width="600"/>
  <unicode hex="00A2"/>
  <outline>
    <contour>
      <point x="432" y="641" type="curve" smooth="yes"/>
      <point x="213" y="641"/>
      <point x="107" y="537"/>
      <point x="73" y="401" type="curve" smooth="yes"/>
      <point x="49" y="304" type="line" smooth="yes"/>
      <point x="10" y="149"/>
      <point x="106" y="56"/>
      <point x="316" y="56" type="curve" smooth="yes"/>
      <point x="389" y="56"/>
      <point x="475" y="74"/>
      <point x="492" y="91" type="curve"/>
      <point x="494" y="93"/>
      <point x="496" y="96"/>
      <point x="497" y="100" type="curve" smooth="yes"/>
      <point x="513" y="162"/>
      <point x="528" y="223"/>
      <point x="544" y="285" type="curve"/>
      <point x="524" y="285" type="line"/>
      <point x="468" y="264"/>
      <point x="421" y="256"/>
      <point x="354" y="256" type="curve" smooth="yes"/>
      <point x="314" y="256"/>
      <point x="292" y="262"/>
      <point x="282" y="276" type="curve"/>
      <point x="273" y="287"/>
      <point x="274" y="304"/>
      <point x="279" y="326" type="curve" smooth="yes"/>
      <point x="291" y="371" type="line" smooth="yes"/>
      <point x="306" y="432"/>
      <point x="360" y="441"/>
      <point x="400" y="441" type="curve" smooth="yes"/>
      <point x="466" y="441"/>
      <point x="510" y="430"/>
      <point x="555" y="407" type="curve"/>
      <point x="575" y="407" type="line"/>
      <point x="590" y="470"/>
      <point x="606" y="532"/>
      <point x="621" y="595" type="curve" smooth="yes"/>
      <point x="622" y="599"/>
      <point x="620" y="602"/>
      <point x="616" y="604" type="curve" smooth="yes"/>
      <point x="601" y="612"/>
      <point x="516" y="641"/>
    </contour>
    <contour>
      <point x="399" y="460" type="line"/>
      <point x="448" y="560"/>
      <point x="508.388" y="676.108"/>
      <point x="563" y="784" type="curve" smooth="yes"/>
      <point x="567" y="793"/>
      <point x="562" y="797"/>
      <point x="556" y="797" type="curve" smooth="yes"/>
      <point x="484" y="797"/>
      <point x="461" y="797"/>
      <point x="387" y="797" type="curve"/>
      <point x="378" y="761"/>
      <point x="369" y="724"/>
      <point x="360" y="689" type="curve" smooth="yes"/>
      <point x="344" y="626"/>
      <point x="329.0" y="563.0"/>
      <point x="313" y="500" type="curve" smooth="yes"/>
      <point x="311" y="492"/>
      <point x="312" y="487"/>
      <point x="321" y="484" type="curve" smooth="yes"/>
    </contour>
    <contour>
      <point x="243" y="235" type="line"/>
      <point x="195.0" y="144.0"/>
      <point x="133.612" y="18.891999999999996"/>
      <point x="79" y="-89" type="curve" smooth="yes"/>
      <point x="74" y="-98"/>
      <point x="79" y="-102"/>
      <point x="85" y="-102" type="curve" smooth="yes"/>
      <point x="157" y="-102"/>
      <point x="180" y="-102"/>
      <point x="254" y="-102" type="curve"/>
      <point x="263" y="-66"/>
      <point x="273" y="-29"/>
      <point x="281" y="6" type="curve" smooth="yes"/>
      <point x="297" y="69"/>
      <point x="313.0" y="132.0"/>
      <point x="329" y="195" type="curve" smooth="yes"/>
      <point x="331" y="203"/>
      <point x="330" y="208"/>
      <point x="321" y="211" type="curve" smooth="yes"/>
    </contour>
  </outline>
</glyph>
<glyph name="sterling" format="2">
  <advance width="600.0"/>
  <unicode hex="00A3"/>
  <outline>
    <contour>
      <point x="51.0" y="440.0" type="line"/>
      <point x="37.0" y="383.0"/>
      <point x="25.0" y="336.0"/>
      <point x="11.0" y="279.0" type="curve" smooth="yes"/>
      <point x="9.0" y="272.0"/>
      <point x="12.0" y="268.0"/>
      <point x="19.0" y="268.0" type="curve" smooth="yes"/>
      <point x="498.0" y="268.0" type="line"/>
      <point x="512.0" y="325.0"/>
      <point x="524.0" y="372.0"/>
      <point x="538.0" y="429.0" type="curve" smooth="yes"/>
      <point x="540.0" y="436.0"/>
      <point x="537.0" y="440.0"/>
      <point x="530.0" y="440.0" type="curve"/>
    </contour>
    <contour>
      <point x="454.0" y="505.0" type="curve" smooth="yes"/>
      <point x="508.0" y="505.0"/>
      <point x="555.0" y="499.0"/>
      <point x="596.0" y="491.0" type="curve"/>
      <point x="616.0" y="491.0" type="line"/>
      <point x="633.0" y="559.0"/>
      <point x="656.0" y="653.0"/>
      <point x="666.0" y="691.0" type="curve" smooth="yes"/>
      <point x="668.0" y="698.0"/>
      <point x="666.0" y="701.0"/>
      <point x="657.0" y="703.0" type="curve" smooth="yes"/>
      <point x="617.0" y="713.0"/>
      <point x="541.0" y="720.0"/>
      <point x="454.0" y="720.0" type="curve" smooth="yes"/>
      <point x="295.0" y="720.0"/>
      <point x="194.0" y="653.0"/>
      <point x="159.0" y="512.0" type="curve" smooth="yes"/>
      <point x="153.0" y="488.0" type="line" smooth="yes"/>
      <point x="138.0" y="427.0"/>
      <point x="113.0" y="330.0"/>
      <point x="94.0" y="251.0" type="curve" smooth="yes"/>
      <point x="82.0" y="205.0"/>
      <point x="62.0" y="190.0"/>
      <point x="28.0" y="190.0" type="curve" smooth="yes"/>
      <point x="8.0" y="190.0" type="line"/>
      <point x="1.0" y="159.0"/>
      <point x="-29.0" y="39.0"/>
      <point x="-36.0" y="11.0" type="curve" smooth="yes"/>
      <point x="-38.0" y="4.0"/>
      <point x="-35.0" y="0.0"/>
      <point x="-28.0" y="0.0" type="curve"/>
      <point x="23.0" y="0.0"/>
      <point x="120.0" y="0.0"/>
      <point x="170.0" y="0.0" type="curve"/>
      <point x="178.0" y="0.0" type="line"/>
      <point x="259.0" y="0.0"/>
      <point x="448.0" y="0.0"/>
      <point x="500.0" y="0.0" type="curve" smooth="yes"/>
      <point x="507.0" y="0.0"/>
      <point x="512.0" y="4.0"/>
      <point x="514.0" y="11.0" type="curve" smooth="yes"/>
      <point x="528.0" y="67.0"/>
      <point x="545.0" y="137.0"/>
      <point x="561.0" y="200.0" type="curve"/>
      <point x="541.0" y="200.0" type="line"/>
      <point x="504.0" y="200.0"/>
      <point x="468.0" y="200.0"/>
      <point x="413.0" y="200.0" type="curve" smooth="yes"/>
      <point x="358.0" y="200.0"/>
      <point x="315.0" y="197.0"/>
      <point x="234.0" y="184.0" type="curve"/>
      <point x="258.0" y="159.0" type="line"/>
      <point x="278.0" y="239.0" type="line"/>
      <point x="247.0" y="184.0" type="line"/>
      <point x="301.0" y="236.0"/>
      <point x="319.0" y="272.0"/>
      <point x="332.0" y="324.0" type="curve" smooth="yes"/>
      <point x="341.0" y="359.0"/>
      <point x="357.0" y="425.0"/>
      <point x="363.0" y="449.0" type="curve" smooth="yes"/>
      <point x="368.0" y="468.0"/>
      <point x="374.0" y="481.0"/>
      <point x="385.0" y="490.0" type="curve"/>
      <point x="397.0" y="501.0"/>
      <point x="417.0" y="505.0"/>
    </contour>
  </outline>
</glyph>
<glyph name="currency" format="2">
  <advance width="600.0"/>
  <unicode hex="00A4"/>
  <outline>
    <contour>
      <point x="275.0" y="434.0" type="curve"/>
      <point x="244.0" y="465.0"/>
      <point x="208.0" y="501.0"/>
      <point x="176.0" y="533.0" type="curve" smooth="yes"/>
      <point x="174.0" y="535.0"/>
      <point x="172.0" y="536.0"/>
      <point x="170.0" y="536.0" type="curve" smooth="yes"/>
      <point x="168.0" y="536.0"/>
      <point x="166.0" y="535.0"/>
      <point x="164.0" y="533.0" type="curve" smooth="yes"/>
      <point x="130.0" y="499.0"/>
      <point x="93.0" y="462.0"/>
      <point x="67.0" y="436.0" type="curve"/>
      <point x="98.0" y="405.0"/>
      <point x="135.0" y="368.0"/>
      <point x="166.0" y="337.0" type="curve" smooth="yes"/>
      <point x="170.0" y="333.0"/>
      <point x="174.0" y="333.0"/>
      <point x="178.0" y="337.0" type="curve" smooth="yes"/>
      <point x="208.0" y="367.0"/>
      <point x="247.0" y="406.0"/>
    </contour>
    <contour>
      <point x="337.0" y="434.0" type="curve"/>
      <point x="346.0" y="425.0"/>
      <point x="424.0" y="347.0"/>
      <point x="434.0" y="337.0" type="curve" smooth="yes"/>
      <point x="438.0" y="333.0"/>
      <point x="442.0" y="333.0"/>
      <point x="446.0" y="337.0" type="curve" smooth="yes"/>
      <point x="477.0" y="368.0"/>
      <point x="514.0" y="405.0"/>
      <point x="545.0" y="436.0" type="curve"/>
      <point x="512.0" y="469.0"/>
      <point x="481.0" y="500.0"/>
      <point x="448.0" y="533.0" type="curve" smooth="yes"/>
      <point x="446.0" y="535.0"/>
      <point x="444.0" y="536.0"/>
      <point x="442.0" y="536.0" type="curve" smooth="yes"/>
      <point x="440.0" y="536.0"/>
      <point x="438.0" y="535.0"/>
      <point x="436.0" y="533.0" type="curve" smooth="yes"/>
      <point x="404.0" y="501.0"/>
      <point x="368.0" y="465.0"/>
    </contour>
    <contour>
      <point x="337.0" y="164.0" type="curve"/>
      <point x="368.0" y="133.0"/>
      <point x="404.0" y="97.0"/>
      <point x="436.0" y="65.0" type="curve" smooth="yes"/>
      <point x="438.0" y="63.0"/>
      <point x="440.0" y="62.0"/>
      <point x="442.0" y="62.0" type="curve" smooth="yes"/>
      <point x="444.0" y="62.0"/>
      <point x="446.0" y="63.0"/>
      <point x="448.0" y="65.0" type="curve" smooth="yes"/>
      <point x="482.0" y="99.0"/>
      <point x="519.0" y="136.0"/>
      <point x="545.0" y="162.0" type="curve"/>
      <point x="514.0" y="193.0"/>
      <point x="477.0" y="230.0"/>
      <point x="446.0" y="261.0" type="curve" smooth="yes"/>
      <point x="442.0" y="265.0"/>
      <point x="438.0" y="265.0"/>
      <point x="434.0" y="261.0" type="curve" smooth="yes"/>
      <point x="404.0" y="231.0"/>
      <point x="365.0" y="192.0"/>
    </contour>
    <contour>
      <point x="275.0" y="164.0" type="curve"/>
      <point x="266.0" y="173.0"/>
      <point x="188.0" y="251.0"/>
      <point x="178.0" y="261.0" type="curve" smooth="yes"/>
      <point x="174.0" y="265.0"/>
      <point x="170.0" y="265.0"/>
      <point x="166.0" y="261.0" type="curve" smooth="yes"/>
      <point x="135.0" y="230.0"/>
      <point x="98.0" y="193.0"/>
      <point x="67.0" y="162.0" type="curve"/>
      <point x="100.0" y="129.0"/>
      <point x="131.0" y="98.0"/>
      <point x="164.0" y="65.0" type="curve" smooth="yes"/>
      <point x="166.0" y="63.0"/>
      <point x="168.0" y="62.0"/>
      <point x="170.0" y="62.0" type="curve" smooth="yes"/>
      <point x="172.0" y="62.0"/>
      <point x="174.0" y="63.0"/>
      <point x="176.0" y="65.0" type="curve" smooth="yes"/>
      <point x="208.0" y="97.0"/>
      <point x="244.0" y="133.0"/>
    </contour>
    <contour>
      <point x="135.0" y="323.0" type="curve" smooth="yes"/>
      <point x="135.0" y="281.0" type="line" smooth="yes"/>
      <point x="135.0" y="186.0"/>
      <point x="202.0" y="126.0"/>
      <point x="307.0" y="126.0" type="curve" smooth="yes"/>
      <point x="412.0" y="126.0"/>
      <point x="479.0" y="186.0"/>
      <point x="479.0" y="281.0" type="curve" smooth="yes"/>
      <point x="479.0" y="323.0" type="line" smooth="yes"/>
      <point x="479.0" y="417.0"/>
      <point x="412.0" y="477.0"/>
      <point x="307.0" y="477.0" type="curve" smooth="yes"/>
      <point x="202.0" y="477.0"/>
      <point x="135.0" y="417.0"/>
    </contour>
    <contour>
      <point x="262.0" y="290.0" type="curve" smooth="yes"/>
      <point x="262.0" y="313.0" type="line" smooth="yes"/>
      <point x="262.0" y="337.0"/>
      <point x="279.0" y="350.0"/>
      <point x="307.0" y="350.0" type="curve" smooth="yes"/>
      <point x="322.0" y="350.0"/>
      <point x="333.0" y="347.0"/>
      <point x="341.0" y="340.0" type="curve"/>
      <point x="348.0" y="334.0"/>
      <point x="352.0" y="325.0"/>
      <point x="352.0" y="313.0" type="curve" smooth="yes"/>
      <point x="352.0" y="290.0" type="line" smooth="yes"/>
      <point x="352.0" y="267.0"/>
      <point x="335.0" y="253.0"/>
      <point x="307.0" y="253.0" type="curve" smooth="yes"/>
      <point x="293.0" y="253.0"/>
      <point x="282.0" y="256.0"/>
      <point x="274.0" y="262.0" type="curve"/>
      <point x="266.0" y="269.0"/>
      <point x="262.0" y="278.0"/>
    </contour>
  </outline>
</glyph>
<glyph name="section" format="2">
  <advance width="600.0"/>
  <unicode hex="00A7"/>
  <outline>
    <contour>
      <point x="427.0" y="720.0" type="curve" smooth="yes"/>
      <point x="248.0" y="720.0"/>
      <point x="128.0" y="646.0"/>
      <point x="96.0" y="517.0" type="curve" smooth="yes"/>
      <point x="90.0" y="493.0" type="line" smooth="yes"/>
      <point x="66.0" y="396.0"/>
      <point x="111.0" y="344.0"/>
      <point x="244.0" y="314.0" type="curve" smooth="yes"/>
      <point x="325.0" y="296.0" type="line" smooth="yes"/>
      <point x="353.0" y="290.0"/>
      <point x="362.0" y="280.0"/>
      <point x="358.0" y="262.0" type="curve" smooth="yes"/>
      <point x="346.0" y="215.0" type="line" smooth="yes"/>
      <point x="340.0" y="191.0"/>
      <point x="334.0" y="167.0"/>
      <point x="328.0" y="143.0" type="curve"/>
      <point x="443.0" y="143.0" type="line"/>
      <point x="457.0" y="201.0" type="line"/>
      <point x="521.0" y="206.0"/>
      <point x="567.0" y="245.0"/>
      <point x="579.0" y="305.0" type="curve" smooth="yes"/>
      <point x="581.0" y="315.0" type="line" smooth="yes"/>
      <point x="594.0" y="381.0"/>
      <point x="554.0" y="423.0"/>
      <point x="457.0" y="444.0" type="curve" smooth="yes"/>
      <point x="337.0" y="470.0" type="line" smooth="yes"/>
      <point x="309.0" y="476.0"/>
      <point x="298.0" y="483.0"/>
      <point x="301.0" y="497.0" type="curve" smooth="yes"/>
      <point x="302.0" y="499.0" type="line" smooth="yes"/>
      <point x="308.0" y="523.0"/>
      <point x="329.0" y="530.0"/>
      <point x="397.0" y="530.0" type="curve" smooth="yes"/>
      <point x="422.0" y="530.0"/>
      <point x="438.0" y="527.0"/>
      <point x="456.0" y="519.0" type="curve"/>
      <point x="436.0" y="557.0" type="line"/>
      <point x="431.0" y="537.0"/>
      <point x="426.0" y="516.0"/>
      <point x="421.0" y="496.0" type="curve" smooth="yes"/>
      <point x="419.0" y="489.0"/>
      <point x="422.0" y="485.0"/>
      <point x="429.0" y="485.0" type="curve" smooth="yes"/>
      <point x="490.0" y="485.0"/>
      <point x="552.0" y="485.0"/>
      <point x="613.0" y="485.0" type="curve"/>
      <point x="628.0" y="542.0"/>
      <point x="639.0" y="590.0"/>
      <point x="654.0" y="649.0" type="curve" smooth="yes"/>
      <point x="656.0" y="658.0"/>
      <point x="656.0" y="661.0"/>
      <point x="652.0" y="666.0" type="curve" smooth="yes"/>
      <point x="634.0" y="690.0"/>
      <point x="512.0" y="720.0"/>
    </contour>
    <contour>
      <point x="214.0" y="1.0" type="curve" smooth="yes"/>
      <point x="134.0" y="1.0"/>
      <point x="53.0" y="22.0"/>
      <point x="-4.0" y="58.0" type="curve"/>
      <point x="-24.0" y="58.0" type="line"/>
      <point x="-40.0" y="-7.0"/>
      <point x="-54.0" y="-62.0"/>
      <point x="-70.0" y="-127.0" type="curve" smooth="yes"/>
      <point x="-71.0" y="-130.0"/>
      <point x="-71.0" y="-133.0"/>
      <point x="-69.0" y="-135.0" type="curve" smooth="yes"/>
      <point x="-47.0" y="-164.0"/>
      <point x="77.0" y="-200.0"/>
      <point x="178.0" y="-200.0" type="curve" smooth="yes"/>
      <point x="356.0" y="-200.0"/>
      <point x="470.0" y="-133.0"/>
      <point x="499.0" y="-13.0" type="curve" smooth="yes"/>
      <point x="508.0" y="24.0" type="line" smooth="yes"/>
      <point x="534.0" y="129.0"/>
      <point x="494.0" y="183.0"/>
      <point x="369.0" y="210.0" type="curve" smooth="yes"/>
      <point x="276.0" y="230.0" type="line" smooth="yes"/>
      <point x="246.0" y="236.0"/>
      <point x="238.0" y="245.0"/>
      <point x="244.0" y="268.0" type="curve" smooth="yes"/>
      <point x="255.0" y="310.0" type="line" smooth="yes"/>
      <point x="260.0" y="330.0"/>
      <point x="267.0" y="359.0"/>
      <point x="270.0" y="371.0" type="curve"/>
      <point x="159.0" y="371.0" type="line"/>
      <point x="148.0" y="326.0" type="line"/>
      <point x="83.0" y="323.0"/>
      <point x="33.0" y="281.0"/>
      <point x="23.0" y="222.0" type="curve" smooth="yes"/>
      <point x="22.0" y="216.0" type="line" smooth="yes"/>
      <point x="10.0" y="144.0"/>
      <point x="46.0" y="105.0"/>
      <point x="145.0" y="83.0" type="curve" smooth="yes"/>
      <point x="265.0" y="56.0" type="line" smooth="yes"/>
      <point x="291.0" y="50.0"/>
      <point x="302.0" y="41.0"/>
      <point x="299.0" y="28.0" type="curve" smooth="yes"/>
      <point x="299.0" y="27.0" type="line" smooth="yes"/>
      <point x="294.0" y="8.0"/>
      <point x="271.0" y="1.0"/>
    </contour>
  </outline>
</glyph>
<glyph name="copyright" format="2">
  <advance width="600.0"/>
  <unicode hex="00A9"/>
  <outline>
    <contour>
      <point x="387.0" y="715.0" type="curve" smooth="yes"/>
      <point x="206.0" y="715.0"/>
      <point x="97.0" y="617.0"/>
      <point x="50.0" y="428.0" type="curve" smooth="yes"/>
      <point x="11.0" y="271.0" type="line" smooth="yes"/>
      <point x="-29.0" y="109.0"/>
      <point x="53.0" y="-15.0"/>
      <point x="237.0" y="-15.0" type="curve" smooth="yes"/>
      <point x="402.0" y="-15.0"/>
      <point x="532.0" y="50.0"/>
      <point x="587.0" y="272.0" type="curve" smooth="yes"/>
      <point x="626.0" y="429.0" type="line" smooth="yes"/>
      <point x="670.0" y="605.0"/>
      <point x="583.0" y="715.0"/>
    </contour>
    <contour>
      <point x="386.0" y="623.0" type="curve" smooth="yes"/>
      <point x="452.0" y="623.0"/>
      <point x="497.0" y="605.0"/>
      <point x="519.0" y="575.0" type="curve"/>
      <point x="542.0" y="541.0"/>
      <point x="544.0" y="485.0"/>
      <point x="526.0" y="415.0" type="curve" smooth="yes"/>
      <point x="493.0" y="284.0" type="line" smooth="yes"/>
      <point x="452.0" y="120.0"/>
      <point x="371.0" y="77.0"/>
      <point x="250.0" y="77.0" type="curve" smooth="yes"/>
      <point x="192.0" y="77.0"/>
      <point x="147.0" y="91.0"/>
      <point x="123.0" y="122.0" type="curve"/>
      <point x="96.0" y="156.0"/>
      <point x="92.0" y="210.0"/>
      <point x="111.0" y="285.0" type="curve" smooth="yes"/>
      <point x="144.0" y="416.0" type="line" smooth="yes"/>
      <point x="179.0" y="558.0"/>
      <point x="247.0" y="623.0"/>
    </contour>
    <contour>
      <point x="368.0" y="566.0" type="curve" smooth="yes"/>
      <point x="283.0" y="566.0"/>
      <point x="226.0" y="515.0"/>
      <point x="204.0" y="427.0" type="curve" smooth="yes"/>
      <point x="166.0" y="273.0" type="line" smooth="yes"/>
      <point x="149.0" y="202.0"/>
      <point x="183.0" y="134.0"/>
      <point x="268.0" y="134.0" type="curve" smooth="yes"/>
      <point x="322.0" y="134.0"/>
      <point x="362.0" y="147.0"/>
      <point x="390.0" y="169.0" type="curve" smooth="yes"/>
      <point x="394.0" y="172.0"/>
      <point x="395.0" y="174.0"/>
      <point x="397.0" y="180.0" type="curve" smooth="yes"/>
      <point x="404.0" y="209.0"/>
      <point x="413.0" y="248.0"/>
      <point x="421.0" y="277.0" type="curve"/>
      <point x="409.0" y="277.0" type="line"/>
      <point x="378.0" y="248.0"/>
      <point x="351.0" y="239.0"/>
      <point x="320.0" y="239.0" type="curve" smooth="yes"/>
      <point x="301.0" y="239.0"/>
      <point x="288.0" y="244.0"/>
      <point x="283.0" y="252.0" type="curve"/>
      <point x="278.0" y="260.0"/>
      <point x="277.0" y="275.0"/>
      <point x="283.0" y="297.0" type="curve" smooth="yes"/>
      <point x="311.0" y="408.0" type="line" smooth="yes"/>
      <point x="320.0" y="444.0"/>
      <point x="331.0" y="465.0"/>
      <point x="365.0" y="465.0" type="curve" smooth="yes"/>
      <point x="380.0" y="465.0"/>
      <point x="390.0" y="461.0"/>
      <point x="394.0" y="455.0" type="curve"/>
      <point x="375.0" y="495.0" type="line"/>
      <point x="368.0" y="467.0"/>
      <point x="361.0" y="438.0"/>
      <point x="354.0" y="410.0" type="curve" smooth="yes"/>
      <point x="352.0" y="403.0"/>
      <point x="354.0" y="399.0"/>
      <point x="362.0" y="399.0" type="curve" smooth="yes"/>
      <point x="392.0" y="399.0"/>
      <point x="421.0" y="399.0"/>
      <point x="451.0" y="399.0" type="curve"/>
      <point x="461.0" y="438.0"/>
      <point x="471.0" y="479.0"/>
      <point x="480.0" y="514.0" type="curve" smooth="yes"/>
      <point x="482.0" y="521.0"/>
      <point x="481.0" y="524.0"/>
      <point x="478.0" y="528.0" type="curve" smooth="yes"/>
      <point x="455.0" y="552.0"/>
      <point x="417.0" y="566.0"/>
    </contour>
  </outline>
</glyph>
<glyph name="guillemotleft" format="2">
  <advance width="600"/>
  <unicode hex="00AB"/>
  <outline>
    <contour>
      <point x="277" y="98" type="line"/>
      <point x="247" y="165"/>
      <point x="220" y="225"/>
      <point x="191" y="292" type="curve"/>
      <point x="250" y="358"/>
      <point x="321" y="436"/>
      <point x="381" y="502" type="curve"/>
      <point x="386" y="522" type="line"/>
      <point x="326" y="522"/>
      <point x="273" y="522"/>
      <point x="213" y="522" type="curve" smooth="yes"/>
      <point x="198" y="522"/>
      <point x="191" y="520"/>
      <point x="184" y="512" type="curve" smooth="yes"/>
      <point x="130" y="450"/>
      <point x="75" y="387"/>
      <point x="20" y="325" type="curve"/>
      <point x="17" y="312"/>
      <point x="14" y="300"/>
      <point x="11" y="287" type="curve" smooth="yes"/>
      <point x="9" y="279"/>
      <point x="10" y="276"/>
      <point x="12" y="270" type="curve" smooth="yes"/>
      <point x="37" y="210"/>
      <point x="61" y="150"/>
      <point x="86" y="90" type="curve" smooth="yes"/>
      <point x="90" y="81"/>
      <point x="96" y="78"/>
      <point x="109" y="78" type="curve" smooth="yes"/>
      <point x="169" y="78"/>
      <point x="211" y="78"/>
      <point x="272" y="78" type="curve"/>
    </contour>
    <contour>
      <point x="522" y="98" type="line"/>
      <point x="492" y="165"/>
      <point x="465" y="225"/>
      <point x="436" y="292" type="curve"/>
      <point x="500" y="358"/>
      <point x="578" y="436"/>
      <point x="643" y="502" type="curve"/>
      <point x="648" y="522" type="line"/>
      <point x="588" y="522"/>
      <point x="526" y="522"/>
      <point x="468" y="522" type="curve" smooth="yes"/>
      <point x="453" y="522"/>
      <point x="446" y="520"/>
      <point x="439" y="512" type="curve" smooth="yes"/>
      <point x="381" y="450"/>
      <point x="323" y="387"/>
      <point x="265" y="325" type="curve"/>
      <point x="262" y="312"/>
      <point x="259" y="300"/>
      <point x="256" y="287" type="curve" smooth="yes"/>
      <point x="254" y="279"/>
      <point x="255" y="276"/>
      <point x="257" y="270" type="curve" smooth="yes"/>
      <point x="282" y="210"/>
      <point x="306" y="150"/>
      <point x="331" y="90" type="curve" smooth="yes"/>
      <point x="335" y="81"/>
      <point x="341" y="78"/>
      <point x="354" y="78" type="curve" smooth="yes"/>
      <point x="415" y="78"/>
      <point x="456" y="78"/>
      <point x="517" y="78" type="curve"/>
    </contour>
  </outline>
</glyph>
